STARTFONT 2.3
FONT -FontForge-Source Sans Pro-Book-R-Normal-SansPro--20-200-72-72-P-98-ISO10646-1
SIZE 20 72 72  4
FONTBOUNDINGBOX 53 27 -9 -7
COMMENT "Generated by fontforge, http://fontforge.sourceforge.net"
COMMENT "Copyright 2010, 2012, 2014 Adobe Systems Incorporated (http://www.adobe.com/), with Reserved Font Name `Source'."
STARTPROPERTIES 41
FOUNDRY "FontForge"
FAMILY_NAME "Source Sans Pro"
WEIGHT_NAME "Book"
SLANT "R"
SETWIDTH_NAME "Normal"
ADD_STYLE_NAME "SansPro"
PIXEL_SIZE 20
POINT_SIZE 200
RESOLUTION_X 72
RESOLUTION_Y 72
SPACING "P"
AVERAGE_WIDTH 98
CHARSET_REGISTRY "ISO10646"
CHARSET_ENCODING "1"
FONTNAME_REGISTRY ""
CHARSET_COLLECTIONS "ISO8859-2 ISO8859-5 ISO8859-7 ISO8859-9 ISO8859-4 ISO10646-1"
BITS_PER_PIXEL 4
FONT_NAME "SourceSansPro-Regular"
FACE_NAME "Source Sans Pro Regular"
COPYRIGHT "Copyright 2010, 2012, 2014 Adobe Systems Incorporated (http://www.adobe.com/), with Reserved Font Name `Source'."
FONT_VERSION "2.021;PS 2.000;hotconv 1.0.86;makeotf.lib2.5.63406"
FONT_ASCENT 15
FONT_DESCENT 5
UNDERLINE_POSITION -2
UNDERLINE_THICKNESS 1
X_HEIGHT 9
CAP_HEIGHT 12
RAW_ASCENT 750
RAW_DESCENT 250
NORM_SPACE 4
RELATIVE_WEIGHT 40
RELATIVE_SETWIDTH 50
SUPERSCRIPT_X 0
SUPERSCRIPT_Y 7
SUPERSCRIPT_SIZE 12
SUBSCRIPT_X 0
SUBSCRIPT_Y 1
SUBSCRIPT_SIZE 12
FIGURE_WIDTH 10
AVG_LOWERCASE_WIDTH 100
AVG_UPPERCASE_WIDTH 120
ENDPROPERTIES
CHARS 1896
STARTCHAR space
ENCODING 32
SWIDTH 200 0
DWIDTH 4 0
BBX 1 1 0 0
BITMAP
00
ENDCHAR
STARTCHAR exclam
ENCODING 33
SWIDTH 289 0
DWIDTH 6 0
BBX 4 15 1 0
BITMAP
0650
0EB0
0EA0
0DA0
0D90
0C90
0C80
0B80
0B70
0B70
0000
0000
1DA0
4FF1
1DB0
ENDCHAR
STARTCHAR quotedbl
ENCODING 34
SWIDTH 425 0
DWIDTH 9 0
BBX 6 5 1 9
BITMAP
6F50DD
5F50DC
4F30BB
3F20AA
1F0088
ENDCHAR
STARTCHAR numbersign
ENCODING 35
SWIDTH 497 0
DWIDTH 10 0
BBX 10 13 0 0
BITMAP
000A600E20
000C401F00
000D302E00
000F104C00
0EFFFFFFF5
004C008800
006A00A600
008900C400
4FFFFFFFE0
00C501F100
00D302E000
00F104C000
02E006A000
ENDCHAR
STARTCHAR dollar
ENCODING 36
SWIDTH 497 0
DWIDTH 10 0
BBX 8 16 1 -1
BITMAP
0008A000
0008A000
02AFFD70
1DC215D3
5F400000
6F300000
3FB10000
07FD6000
004CFC30
00005EE2
000004F9
000000EB
100001F9
BC411AE2
18CFEA30
0008A000
ENDCHAR
STARTCHAR percent
ENCODING 37
SWIDTH 824 0
DWIDTH 16 0
BBX 16 14 0 0
BITMAP
00000000001E2000
02BFD40000790000
0BA16E1001E20000
2F200C7008900000
4F000A901E100000
4F000A9098000000
2F200C72E11AED60
0BA16E19809C14F3
02BFD42E10E400A9
000000A701F2007B
000002E101F2008B
00000A7000E400A9
00003D00009C14F3
0000B600001AED60
ENDCHAR
STARTCHAR ampersand
ENCODING 38
SWIDTH 609 0
DWIDTH 12 0
BBX 12 13 0 0
BITMAP
0005CEB20000
003F51AB0000
008D006E0000
008D00CB0000
005F5CD20000
000EFC200000
00AFF40000C7
0AF6BE1005F3
2F802EC10BC0
5F4004FC6F30
3F70004FFA00
0AE5127EFF94
007CFEC627B9
ENDCHAR
STARTCHAR quotesingle
ENCODING 39
SWIDTH 249 0
DWIDTH 5 0
BBX 3 5 1 9
BITMAP
6F50
5F50
4F30
3F20
1F00
ENDCHAR
STARTCHAR parenleft
ENCODING 40
SWIDTH 303 0
DWIDTH 6 0
BBX 5 18 1 -3
BITMAP
001C20
008B00
01E400
06E000
0B9000
0E6000
2F3000
4F1000
5F0000
5F0000
4F1000
2F3000
0E6000
0B9000
06E000
01E400
008B00
001C20
ENDCHAR
STARTCHAR parenright
ENCODING 41
SWIDTH 303 0
DWIDTH 6 0
BBX 5 18 0 -3
BITMAP
1C1000
0B9000
03F100
00D700
008C00
005F10
002F30
001F50
000F60
000F60
001F50
002F30
005F10
008C00
00D700
03F100
0B9000
1C1000
ENDCHAR
STARTCHAR asterisk
ENCODING 42
SWIDTH 418 0
DWIDTH 8 0
BBX 7 6 1 8
BITMAP
005B0000
317C1300
9FEFFD10
03FF8000
09C8D100
09208200
ENDCHAR
STARTCHAR plus
ENCODING 43
SWIDTH 497 0
DWIDTH 10 0
BBX 10 9 0 2
BITMAP
0000990000
0000A90000
0000A90000
0000A90000
5FFFFFFFF4
0000A90000
0000A90000
0000A90000
0000990000
ENDCHAR
STARTCHAR comma
ENCODING 44
SWIDTH 249 0
DWIDTH 5 0
BBX 3 6 1 -4
BITMAP
6E80
6EE0
05C0
1C70
CA00
2000
ENDCHAR
STARTCHAR hyphen
ENCODING 45
SWIDTH 311 0
DWIDTH 6 0
BBX 6 1 0 5
BITMAP
3FFFF6
ENDCHAR
STARTCHAR period
ENCODING 46
SWIDTH 249 0
DWIDTH 5 0
BBX 3 3 1 0
BITMAP
5E50
AFA0
5E50
ENDCHAR
STARTCHAR slash
ENCODING 47
SWIDTH 350 0
DWIDTH 7 0
BBX 7 17 0 -3
BITMAP
00000990
00000E40
00004E00
00008A00
0000D500
0003F100
0007A000
000C6000
002F1000
007B0000
00B70000
01F20000
06C00000
0B800000
1F300000
5D000000
A8000000
ENDCHAR
STARTCHAR zero
ENCODING 48
SWIDTH 497 0
DWIDTH 10 0
BBX 10 13 0 0
BITMAP
002AEEA100
01DB22CC00
07F2002F60
0CC0000DB0
0F90000AE0
1F800009F0
2F700008F1
1F800009F0
0F90000AE0
0CC0000DB0
07F2003F60
01DB22CC00
001AEEA100
ENDCHAR
STARTCHAR one
ENCODING 49
SWIDTH 497 0
DWIDTH 10 0
BBX 8 13 1 0
BITMAP
015CF200
0CFFF200
0008F200
0008F200
0008F200
0008F200
0008F200
0008F200
0008F200
0008F200
0008F200
0008F200
6FFFFFFC
ENDCHAR
STARTCHAR two
ENCODING 50
SWIDTH 497 0
DWIDTH 10 0
BBX 10 13 0 0
BITMAP
029DFD8000
1EB314EA00
0400006F30
0000004F60
0000005F50
000000BF20
000005FA00
00002EE200
0001DF5000
001CF80000
00BFA00000
0BFB000000
3FFEEFFFF1
ENDCHAR
STARTCHAR three
ENCODING 51
SWIDTH 497 0
DWIDTH 10 0
BBX 9 13 0 0
BITMAP
018DFD9100
0BC313DD10
0100005F60
0000004F70
0000007F30
000027F800
000CFF9100
000015CD20
0000001EA0
0000000CD0
0400000EB0
4F9202AF30
04ADFDA300
ENDCHAR
STARTCHAR four
ENCODING 52
SWIDTH 497 0
DWIDTH 10 0
BBX 10 13 0 0
BITMAP
000008FA00
00004FFA00
0001DBDA00
0009F2EA00
004F70EA00
01DC00EA00
0AE200EA00
5F6000EA00
AFFFFFFFF6
000000EA00
000000EA00
000000EA00
000000EA00
ENDCHAR
STARTCHAR five
ENCODING 53
SWIDTH 497 0
DWIDTH 10 0
BBX 9 13 0 0
BITMAP
01FFFFFF50
02F6000000
03F4000000
04F3000000
05F2000000
06FBEEB400
02A413BF30
0000001EC0
0000000BE0
0000000CE0
0300002FA0
4F8213CD10
05AEFE9100
ENDCHAR
STARTCHAR six
ENCODING 54
SWIDTH 497 0
DWIDTH 10 0
BBX 9 13 1 0
BITMAP
005CEEB400
06F612A700
2F60000000
8E00000000
CB00000000
E94CED6000
FDB216F700
FC0000AE00
EA00007F10
BD00007F10
5F3000BD00
0BD317F400
018DFC4000
ENDCHAR
STARTCHAR seven
ENCODING 55
SWIDTH 497 0
DWIDTH 10 0
BBX 10 13 0 0
BITMAP
2FFFFFFFF1
0000002EB0
000000AE10
000004F700
00000AE000
00001F8000
00007F2000
0000BE0000
0000EB0000
0002F80000
0004F60000
0005F50000
0006F40000
ENDCHAR
STARTCHAR eight
ENCODING 56
SWIDTH 497 0
DWIDTH 10 0
BBX 10 13 0 0
BITMAP
002AEEB300
01EA119E20
07F1000D80
08F1000C90
03FA102F50
005FE7DA00
007EDFF400
07E405DF40
0E80001DD0
2F500007F1
1E80000AE0
06F7116F60
004BEEB400
ENDCHAR
STARTCHAR nine
ENCODING 57
SWIDTH 497 0
DWIDTH 10 0
BBX 9 13 0 0
BITMAP
004CFD7000
05F613DA00
0DA0004F40
2F60000E90
2F60000BD0
0F90001DE0
08F513BDE0
007DEC3AD0
0000000CA0
0000001F70
0000008E10
089116F500
04BEEB4000
ENDCHAR
STARTCHAR colon
ENCODING 58
SWIDTH 249 0
DWIDTH 5 0
BBX 3 10 1 0
BITMAP
5E50
AFA0
5E50
0000
0000
0000
0000
5E50
AFA0
5E50
ENDCHAR
STARTCHAR semicolon
ENCODING 59
SWIDTH 249 0
DWIDTH 5 0
BBX 3 14 1 -4
BITMAP
5E50
AFA0
5E50
0000
0000
0000
0000
0000
6E80
6EE0
05C0
1C70
CA00
2000
ENDCHAR
STARTCHAR less
ENCODING 60
SWIDTH 497 0
DWIDTH 10 0
BBX 10 8 0 3
BITMAP
00000005B4
000028EFB2
015BFC7100
3EE8300000
3ED8200000
016BFC6100
000028EFA2
00000005B4
ENDCHAR
STARTCHAR equal
ENCODING 61
SWIDTH 497 0
DWIDTH 10 0
BBX 10 5 0 4
BITMAP
5FFFFFFFF4
0000000000
0000000000
0000000000
5FFFFFFFF4
ENDCHAR
STARTCHAR greater
ENCODING 62
SWIDTH 497 0
DWIDTH 10 0
BBX 10 8 0 3
BITMAP
4A40000000
2BFD820000
0017CFB500
0000038EE3
0000038EE3
0017CFB500
2BFD820000
4A40000000
ENDCHAR
STARTCHAR question
ENCODING 63
SWIDTH 425 0
DWIDTH 9 0
BBX 8 13 0 0
BITMAP
04BEEC50
1D8119F3
000002F7
000005F5
00003EA0
0001DB00
0009E100
000CA000
00000000
00000000
000CB000
003FF200
001CB000
ENDCHAR
STARTCHAR at
ENCODING 64
SWIDTH 847 0
DWIDTH 17 0
BBX 15 16 1 -3
BITMAP
000017BEFDA40000
0006EA41026DA000
008E30000001C900
05E2000000002E30
1E6001AEC7800990
6D000CA15F8005C0
A8006D000E6004D0
D500C8002F3005D0
E400F5004F0007A0
E400E5008D000D50
C600BB15CE109C00
8B002CEA1AEEA100
2F40000000110000
07E3000000000000
008E931138800000
00039DEED9300000
ENDCHAR
STARTCHAR A
ENCODING 65
SWIDTH 544 0
DWIDTH 11 0
BBX 11 13 0 0
BITMAP
0000AF800000
0001ECD00000
0005F5F30000
000AC0E90000
001F70AE0000
006F305F4000
00BD001F9000
01F9000CE000
06FFFFFFF400
0BD00001F900
1F800000BE00
6F4000006F40
CE0000002FA0
ENDCHAR
STARTCHAR B
ENCODING 66
SWIDTH 588 0
DWIDTH 12 0
BBX 10 13 1 0
BITMAP
3FFFFEC600
3F70027FA0
3F70000AF2
3F700007F2
3F70000AD0
3F70028E40
3FFFFFFC60
3F70014BF7
3F700000DD
3F700000BE
3F700001EB
3F70014CE3
3FFFFEC920
ENDCHAR
STARTCHAR C
ENCODING 67
SWIDTH 571 0
DWIDTH 11 0
BBX 10 13 1 0
BITMAP
0017CEEC60
02DC4117E3
0CD1000010
6F50000000
BF00000000
DC00000000
EC00000000
DD00000000
BF00000000
6F50000000
1DD1000031
03EC4116E8
0018DFEC60
ENDCHAR
STARTCHAR D
ENCODING 68
SWIDTH 615 0
DWIDTH 12 0
BBX 11 13 1 0
BITMAP
3FFFFDA30000
3F7013AF7000
3F700008F400
3F700001EC00
3F700000AF10
3F7000007F30
3F7000007F40
3F7000008F30
3F700000AF10
3F700001EB00
3F700009F400
3F7013AF6000
3FFFFD930000
ENDCHAR
STARTCHAR E
ENCODING 69
SWIDTH 527 0
DWIDTH 11 0
BBX 9 13 1 0
BITMAP
3FFFFFFF50
3F70000000
3F70000000
3F70000000
3F70000000
3F70000000
3FFFFFF700
3F70000000
3F70000000
3F70000000
3F70000000
3F70000000
3FFFFFFF80
ENDCHAR
STARTCHAR F
ENCODING 70
SWIDTH 494 0
DWIDTH 10 0
BBX 9 13 1 0
BITMAP
3FFFFFFF50
3F70000000
3F70000000
3F70000000
3F70000000
3F70000000
3FFFFFF700
3F70000000
3F70000000
3F70000000
3F70000000
3F70000000
3F70000000
ENDCHAR
STARTCHAR G
ENCODING 71
SWIDTH 617 0
DWIDTH 12 0
BBX 10 13 1 0
BITMAP
0017CEFD92
02DD5114D8
0CD1000010
6F50000000
BF00000000
DC00000000
EC00000000
DD0004FFFF
BF0000008F
6F5000008F
0DD100008F
02DD5114CE
0018CEED82
ENDCHAR
STARTCHAR H
ENCODING 72
SWIDTH 652 0
DWIDTH 13 0
BBX 11 13 1 0
BITMAP
3F7000007F40
3F7000007F40
3F7000007F40
3F7000007F40
3F7000007F40
3F7000007F40
3FFFFFFFFF40
3F7000007F40
3F7000007F40
3F7000007F40
3F7000007F40
3F7000007F40
3F7000007F40
ENDCHAR
STARTCHAR I
ENCODING 73
SWIDTH 263 0
DWIDTH 5 0
BBX 3 13 1 0
BITMAP
3F70
3F70
3F70
3F70
3F70
3F70
3F70
3F70
3F70
3F70
3F70
3F70
3F70
ENDCHAR
STARTCHAR J
ENCODING 74
SWIDTH 480 0
DWIDTH 10 0
BBX 8 13 0 0
BITMAP
000000CD
000000CD
000000CD
000000CD
000000CD
000000CD
000000CD
000000CD
000000CD
000000DC
030001E9
2FA119F3
03BEFC40
ENDCHAR
STARTCHAR K
ENCODING 75
SWIDTH 579 0
DWIDTH 12 0
BBX 11 13 1 0
BITMAP
3F700007F700
3F70004F9000
3F7003EC0000
3F701DD10000
3F70CE300000
3F79FE200000
3FDF9FA00000
3FFA08F40000
3FB001EC0000
3F70006F7000
3F70000CE100
3F700004F900
3F700000AF30
ENDCHAR
STARTCHAR L
ENCODING 76
SWIDTH 486 0
DWIDTH 10 0
BBX 9 13 1 0
BITMAP
3F70000000
3F70000000
3F70000000
3F70000000
3F70000000
3F70000000
3F70000000
3F70000000
3F70000000
3F70000000
3F70000000
3F70000000
3FFFFFFF30
ENDCHAR
STARTCHAR M
ENCODING 77
SWIDTH 727 0
DWIDTH 15 0
BBX 12 13 1 0
BITMAP
3FE0000007FB
3FF500000CFB
3FBB00003FBB
3F7F10008BBB
3F4E6000D6BB
3F49C004F1CB
3F43F209A0CB
3F40D80E50CB
3F407D4E00CB
3F402FC900CB
3F400BF300CB
3F40049000CB
3F40000000CB
ENDCHAR
STARTCHAR N
ENCODING 78
SWIDTH 647 0
DWIDTH 13 0
BBX 11 13 1 0
BITMAP
3FC000007F20
3FF600007F20
3FBE10007F20
3F5E80007F20
3F58F2007F20
3F51EB007F20
3F605F407F20
3F600CD06F20
3F6003F76F20
3F60009E6F20
3F60001EBF20
3F600007FF20
3F600000DF20
ENDCHAR
STARTCHAR O
ENCODING 79
SWIDTH 664 0
DWIDTH 13 0
BBX 12 13 1 0
BITMAP
0029DFEA3000
03EC3029F600
1DC100009F30
6F4000001EB0
BE0000000BF1
DC00000008F3
EC00000008F4
DC00000008F3
BF0000000BF0
6F5000001FA0
1DD100009F30
03EC3029F600
0019DFEA3000
ENDCHAR
STARTCHAR P
ENCODING 80
SWIDTH 566 0
DWIDTH 11 0
BBX 10 13 1 0
BITMAP
3FFFFEC700
3F70027FA0
3F700008F3
3F700004F6
3F700004F6
3F700009F2
3F70027F90
3FFFFDB500
3F70000000
3F70000000
3F70000000
3F70000000
3F70000000
ENDCHAR
STARTCHAR Q
ENCODING 81
SWIDTH 664 0
DWIDTH 13 0
BBX 12 16 1 -3
BITMAP
0029DFEA3000
03EB3029F600
1DC000008F30
6F4000001EB0
BE0000000BF1
DC00000008F3
EC00000007F4
DD00000008F3
BF0000000BF1
6F5000001FB0
1DD100009F40
03EC3029F700
0029EFFB4000
00000DD10000
000003EC4111
00000028DFE5
ENDCHAR
STARTCHAR R
ENCODING 82
SWIDTH 569 0
DWIDTH 11 0
BBX 10 13 1 0
BITMAP
3FFFFEC710
3F70015EC0
3F700005F5
3F700003F7
3F700006F6
3F70016EE1
3FFFFFFD30
3F700DC000
3F7006F400
3F7000CC00
3F70005F60
3F70000CE1
3F700004F9
ENDCHAR
STARTCHAR S
ENCODING 83
SWIDTH 534 0
DWIDTH 11 0
BBX 9 13 1 0
BITMAP
018CFEB600
0CD3028E30
6F40000100
7F40000000
4FC2000000
08FF930000
004BFFC300
000029FF40
0000004FB0
0000000DD0
4200000EB0
DE7202AE30
17CEFE9200
ENDCHAR
STARTCHAR T
ENCODING 84
SWIDTH 536 0
DWIDTH 11 0
BBX 11 13 0 0
BITMAP
7FFFFFFFFF20
00007F300000
00007F300000
00007F300000
00007F300000
00007F300000
00007F300000
00007F300000
00007F300000
00007F300000
00007F300000
00007F300000
00007F300000
ENDCHAR
STARTCHAR U
ENCODING 85
SWIDTH 645 0
DWIDTH 13 0
BBX 11 13 1 0
BITMAP
4F6000007F20
4F6000007F20
4F6000007F20
4F6000007F20
4F6000007F20
4F6000007F20
4F6000007F20
4F6000007F20
3F7000007F10
1F9000009E00
0BD10001E900
03EB313BE200
002AEFD92000
ENDCHAR
STARTCHAR V
ENCODING 86
SWIDTH 515 0
DWIDTH 10 0
BBX 11 13 0 0
BITMAP
DE0000008F20
8F300000DC00
3F800002F700
0DC00007F300
08F2000BD000
03F6001F8000
00DB005F3000
009F10AD0000
004F50E90000
000E93F40000
0009E8E00000
0004FE900000
0000EF400000
ENDCHAR
STARTCHAR W
ENCODING 87
SWIDTH 786 0
DWIDTH 16 0
BBX 16 13 0 0
BITMAP
7F40000EC00007F2
3F70004FF1000AE0
0FA0008CF5000DB0
0CD000C8D8001F80
09F101F59C004F40
06F404F16F106F10
02F708C02F509D00
00EA0C900D90CA00
00BC0F5009C0F700
008F3F1006F3F400
005F9D0002F9F100
001FE90000DEC000
000DF500009F9000
ENDCHAR
STARTCHAR X
ENCODING 88
SWIDTH 513 0
DWIDTH 10 0
BBX 10 13 0 0
BITMAP
3FA00005F7
09F3000CD0
01EB005F50
007F40DB00
000DC6F300
0005FE9000
0001FF4000
0009EDC000
002F75F600
00BE10CD10
04F6004F80
0DD0000AF2
6F500002FA
ENDCHAR
STARTCHAR Y
ENCODING 89
SWIDTH 476 0
DWIDTH 10 0
BBX 10 13 0 0
BITMAP
CE100006F4
4F70000DC0
0CD0005F50
04F600CC00
00CC04F500
005F4BC000
000CDF5000
0005FC0000
0001F90000
0001F90000
0001F90000
0001F90000
0001F90000
ENDCHAR
STARTCHAR Z
ENCODING 90
SWIDTH 539 0
DWIDTH 11 0
BBX 10 13 0 0
BITMAP
07FFFFFFFD
00000008F8
0000002FD1
000000BF40
000006FA00
00001EE100
0000AF6000
0004FC0000
001DF30000
008F800000
03FD100000
0CF4000000
1FFFFFFFFE
ENDCHAR
STARTCHAR bracketleft
ENCODING 91
SWIDTH 303 0
DWIDTH 6 0
BBX 5 17 1 -3
BITMAP
2FFF70
2F2000
2F2000
2F2000
2F2000
2F2000
2F2000
2F2000
2F2000
2F2000
2F2000
2F2000
2F2000
2F2000
2F2000
2F2000
2FFF70
ENDCHAR
STARTCHAR backslash
ENCODING 92
SWIDTH 350 0
DWIDTH 7 0
BBX 7 17 0 -3
BITMAP
89000000
4E000000
0E400000
09800000
05D00000
01E30000
00A70000
005C0000
001F2000
000B7000
0006B000
0002F100
0000C600
00007A00
00002F10
00000D50
000008A0
ENDCHAR
STARTCHAR bracketright
ENCODING 93
SWIDTH 303 0
DWIDTH 6 0
BBX 5 17 0 -3
BITMAP
6FFF30
001F30
001F30
001F30
001F30
001F30
001F30
001F30
001F30
001F30
001F30
001F30
001F30
001F30
001F30
001F30
6FFF30
ENDCHAR
STARTCHAR asciicircum
ENCODING 94
SWIDTH 497 0
DWIDTH 10 0
BBX 8 8 1 5
BITMAP
001ED000
006BC500
00C66B00
04E11F30
0A900A90
2F4005E1
8D0000E7
22000022
ENDCHAR
STARTCHAR underscore
ENCODING 95
SWIDTH 500 0
DWIDTH 10 0
BBX 10 1 0 -2
BITMAP
CFFFFFFFFC
ENDCHAR
STARTCHAR grave
ENCODING 96
SWIDTH 542 0
DWIDTH 11 0
BBX 5 4 2 11
BITMAP
1B3000
2DE200
01CD10
001B40
ENDCHAR
STARTCHAR a
ENCODING 97
SWIDTH 504 0
DWIDTH 10 0
BBX 8 10 1 0
BITMAP
27CEFC40
3C511CE1
000003F7
000001F9
0059CEFA
2DE841FA
CE1000FA
EA0001FA
AE304CEA
1AEE91BA
ENDCHAR
STARTCHAR b
ENCODING 98
SWIDTH 553 0
DWIDTH 11 0
BBX 10 14 1 0
BITMAP
5F40000000
5F40000000
5F40000000
5F40000000
5F47DFC400
5FD712BF40
5F50001EB0
5F40000AF0
5F400009F1
5F40000AF1
5F40000CE0
5F50003F90
5FD513DD10
5F29EEA200
ENDCHAR
STARTCHAR c
ENCODING 99
SWIDTH 456 0
DWIDTH 9 0
BBX 9 10 0 0
BITMAP
0017DFE920
00CE513A10
07F4000000
0DD0000000
1FA0000000
1FA0000000
0ED0000000
08F4000000
01DE402A30
0019DFD920
ENDCHAR
STARTCHAR d
ENCODING 100
SWIDTH 555 0
DWIDTH 11 0
BBX 10 14 0 0
BITMAP
00000003F7
00000003F7
00000003F7
00000003F7
0019EEB5F7
01CE414CF7
08F40003F7
0DD00003F7
0FB00003F7
1FA00003F7
0EC00003F7
0AF20004F7
02EC205CF7
003BEE91E7
ENDCHAR
STARTCHAR e
ENCODING 101
SWIDTH 496 0
DWIDTH 10 0
BBX 10 10 0 0
BITMAP
0018DFC600
01CC315F50
08E10008D0
0DA00005F2
1FFFFFFFF2
1FA0000000
0DC0000000
08F4000000
01CE502650
0018DFDB40
ENDCHAR
STARTCHAR f
ENCODING 102
SWIDTH 292 0
DWIDTH 6 0
BBX 7 14 0 0
BITMAP
003BEE30
00CD2200
01F90000
01F80000
6FFFF900
01F80000
01F80000
01F80000
01F80000
01F80000
01F80000
01F80000
01F80000
01F80000
ENDCHAR
STARTCHAR g
ENCODING 103
SWIDTH 504 0
DWIDTH 10 0
BBX 10 14 0 -4
BITMAP
002AEFFFFA
02EA12CE10
09F1003F50
0BD0001F70
09F1003F40
02EA12CB00
01CCEE9100
07E2000000
01DEFFFD91
07C00004F9
0E600000CC
1F700002F9
0AE6114DD1
007CEFC710
ENDCHAR
STARTCHAR h
ENCODING 104
SWIDTH 544 0
DWIDTH 11 0
BBX 9 14 1 0
BITMAP
5F40000000
5F40000000
5F40000000
5F40000000
5F45DEC300
5FB812CE00
5F70005F40
5F40004F60
5F40003F60
5F40003F60
5F40003F60
5F40003F60
5F40003F60
5F40003F60
ENDCHAR
STARTCHAR i
ENCODING 105
SWIDTH 246 0
DWIDTH 5 0
BBX 3 15 1 0
BITMAP
0100
7F70
6E60
0000
0000
5F40
5F40
5F40
5F40
5F40
5F40
5F40
5F40
5F40
5F40
ENDCHAR
STARTCHAR j
ENCODING 106
SWIDTH 247 0
DWIDTH 5 0
BBX 5 19 -1 -4
BITMAP
000100
007F70
006E60
000000
000000
005F40
005F40
005F40
005F40
005F40
005F40
005F40
005F40
005F40
005F40
005F40
006F30
11AE10
9FD400
ENDCHAR
STARTCHAR k
ENCODING 107
SWIDTH 495 0
DWIDTH 10 0
BBX 9 14 1 0
BITMAP
5F40000000
5F40000000
5F40000000
5F40000000
5F4001DC10
5F400AE200
5F407F4000
5F43F70000
5F5DF50000
5FDDDD1000
5FE34F8000
5F6009F300
5F4001EC00
5F40006F60
ENDCHAR
STARTCHAR l
ENCODING 108
SWIDTH 255 0
DWIDTH 5 0
BBX 4 14 1 0
BITMAP
5F40
5F40
5F40
5F40
5F40
5F40
5F40
5F40
5F40
5F40
5F40
5F40
4F60
0BF3
ENDCHAR
STARTCHAR m
ENCODING 109
SWIDTH 829 0
DWIDTH 17 0
BBX 15 10 1 0
BITMAP
5F17DEB218EE9100
5FC613ECC614F900
5F60009F6000BE00
5F40007F30009F00
5F40007F30009F10
5F40007F30009F10
5F40007F30009F10
5F40007F30009F10
5F40007F30009F10
5F40007F30009F10
ENDCHAR
STARTCHAR n
ENCODING 110
SWIDTH 547 0
DWIDTH 11 0
BBX 9 10 1 0
BITMAP
5F17DEC300
5FC712CE00
5F60005F40
5F40004F60
5F40003F60
5F40003F60
5F40003F60
5F40003F60
5F40003F60
5F40003F60
ENDCHAR
STARTCHAR o
ENCODING 111
SWIDTH 542 0
DWIDTH 11 0
BBX 10 10 0 0
BITMAP
0018DFD700
01CD305EA0
08F30006F5
0DC00000FB
1FA00000DD
1FA00000DD
0DC00000EB
08F30006F5
01CD305EA0
0018DFD700
ENDCHAR
STARTCHAR p
ENCODING 112
SWIDTH 555 0
DWIDTH 11 0
BBX 10 14 1 -4
BITMAP
5F17DFC400
5FD712BF40
5F50001EB0
5F40000AF0
5F400009F1
5F40000AF1
5F40000CE0
5F40003F90
5FD513DD10
5F59EEA200
5F40000000
5F40000000
5F40000000
5F40000000
ENDCHAR
STARTCHAR q
ENCODING 113
SWIDTH 555 0
DWIDTH 11 0
BBX 10 14 0 -4
BITMAP
0019EFB3E7
01CE404CF7
08F40003F7
0DD00003F7
0FB00003F7
1FA00003F7
0EC00003F7
0AF20004F7
02EC205CF7
003BEE93F7
00000003F7
00000003F7
00000003F7
00000003F7
ENDCHAR
STARTCHAR r
ENCODING 114
SWIDTH 347 0
DWIDTH 7 0
BBX 6 10 1 0
BITMAP
5F18EC
5FA611
5F7000
5F4000
5F4000
5F4000
5F4000
5F4000
5F4000
5F4000
ENDCHAR
STARTCHAR s
ENCODING 115
SWIDTH 419 0
DWIDTH 8 0
BBX 8 10 0 0
BITMAP
018DED81
09E314A1
0DA00000
0BE50000
02CFC610
0004BFD2
000004F9
000000EA
2E7116F5
06CEEC50
ENDCHAR
STARTCHAR t
ENCODING 116
SWIDTH 338 0
DWIDTH 7 0
BBX 7 13 0 0
BITMAP
00D90000
00E90000
00F90000
7FFFFF30
01F90000
01F90000
01F90000
01F90000
01F90000
01F90000
00FA0000
00BE2110
002BEE50
ENDCHAR
STARTCHAR u
ENCODING 117
SWIDTH 544 0
DWIDTH 11 0
BBX 9 10 1 0
BITMAP
8F20006F40
8F20006F40
8F20006F40
8F20006F40
8F20006F40
8F20006F40
7F30006F40
5F4000AF40
1EB119AF40
04CEC52F40
ENDCHAR
STARTCHAR v
ENCODING 118
SWIDTH 467 0
DWIDTH 9 0
BBX 9 10 0 0
BITMAP
9F20000AE0
4F60001E90
0DB0005F40
08F100AD00
03F600E800
00DB04F300
007F19D000
002F5D8000
000CCF3000
0007FC0000
ENDCHAR
STARTCHAR w
ENCODING 119
SWIDTH 718 0
DWIDTH 14 0
BBX 14 10 0 0
BITMAP
6F4000BF2000CB
2F8000EF6001F7
0DC003E9A004F3
09F107B6E008E0
05F40B72F30CB0
01F80F40D71F70
00BB4E00AB4F30
007E8B006E7E00
003FD7002FDA00
000EF3000DF600
ENDCHAR
STARTCHAR x
ENCODING 120
SWIDTH 446 0
DWIDTH 9 0
BBX 9 10 0 0
BITMAP
3F90009F20
08F302F800
01DB0AD100
005F8F5000
000BFB0000
001EFC0000
009E5F7000
03F60AE200
0CC002EA00
6F40007F50
ENDCHAR
STARTCHAR y
ENCODING 121
SWIDTH 467 0
DWIDTH 9 0
BBX 9 14 0 -4
BITMAP
9F20000AE0
3F70000E90
0CD0005F30
06F3009D00
01E900E800
009E04F300
003F48D000
000C9D8000
0006FF2000
0001EC0000
0001F70000
0006F10000
014E700000
3FE7000000
ENDCHAR
STARTCHAR z
ENCODING 122
SWIDTH 425 0
DWIDTH 9 0
BBX 8 10 0 0
BITMAP
0CFFFFFC
000009F7
00003FC0
0000DF30
0008F900
002FD100
00CF4000
06FA0000
2EE10000
6FFFFFFF
ENDCHAR
STARTCHAR braceleft
ENCODING 123
SWIDTH 303 0
DWIDTH 6 0
BBX 6 17 0 -3
BITMAP
002CF7
009C10
00B900
00B900
00A900
00AA00
009A00
03E700
5FD100
03E700
009A00
009A00
00A900
00B900
00B900
009C10
002CF7
ENDCHAR
STARTCHAR bar
ENCODING 124
SWIDTH 241 0
DWIDTH 5 0
BBX 2 20 1 -5
BITMAP
2F
2F
2F
2F
2F
2F
2F
2F
2F
2F
2F
2F
2F
2F
2F
2F
2F
2F
2F
2F
ENDCHAR
STARTCHAR braceright
ENCODING 125
SWIDTH 303 0
DWIDTH 6 0
BBX 6 17 0 -3
BITMAP
6FC300
01CB00
008C00
008C00
008B00
009B00
009A00
006E30
000CF6
006E30
009A00
009A00
008B00
008C00
008C00
01CB00
6FC300
ENDCHAR
STARTCHAR asciitilde
ENCODING 126
SWIDTH 497 0
DWIDTH 10 0
BBX 10 2 0 6
BITMAP
05DEB514C1
1C316CED50
ENDCHAR
STARTCHAR uni00A0
ENCODING 160
SWIDTH 202 0
DWIDTH 4 0
BBX 1 1 0 0
BITMAP
00
ENDCHAR
STARTCHAR exclamdown
ENCODING 161
SWIDTH 289 0
DWIDTH 6 0
BBX 4 15 1 -5
BITMAP
1DA0
4FF1
1DA0
0000
0000
0B70
0B70
0B80
0C80
0C90
0D90
0DA0
0EA0
0EB0
0650
ENDCHAR
STARTCHAR cent
ENCODING 162
SWIDTH 497 0
DWIDTH 10 0
BBX 8 15 1 -1
BITMAP
00001100
0000C400
0000C400
006CFFC6
0AE5C554
5F50C400
AF00C400
BD00C400
AF00C400
5F50C400
0BE5C558
007CFEC6
0000C400
0000C400
00001000
ENDCHAR
STARTCHAR sterling
ENCODING 163
SWIDTH 497 0
DWIDTH 10 0
BBX 9 13 1 0
BITMAP
003BEEB300
02EA219A00
09F1000000
0BD0000000
0AE0000000
06F3000000
DFFFFF8000
00DA000000
00DA000000
01F9000000
07F4000000
5FB0000000
EFFFFFFF10
ENDCHAR
STARTCHAR currency
ENCODING 164
SWIDTH 497 0
DWIDTH 10 0
BBX 10 9 0 2
BITMAP
0600000060
3E9AEEAAE2
06F912AF50
0BC0000DA0
0DA0000BC0
0BC0000DA0
06F912AF50
3E9AEEAAE2
0600000060
ENDCHAR
STARTCHAR yen
ENCODING 165
SWIDTH 497 0
DWIDTH 10 0
BBX 10 13 0 0
BITMAP
5F600006F4
0DD0000DC0
06F4005F50
00DB00CD00
007F33F600
001E9AD000
0008FF7000
1FFFFFFFF1
0000DC0000
1BBBEEBBB0
0444DD4440
0000DC0000
0000DC0000
ENDCHAR
STARTCHAR brokenbar
ENCODING 166
SWIDTH 241 0
DWIDTH 5 0
BBX 2 20 1 -5
BITMAP
2F
2F
2F
2F
2F
2F
2F
2F
2F
03
14
2F
2F
2F
2F
2F
2F
2F
2F
2F
ENDCHAR
STARTCHAR section
ENCODING 167
SWIDTH 497 0
DWIDTH 10 0
BBX 9 15 0 -1
BITMAP
001AEEC600
00AC216900
00F9000000
00DE600000
00AFFD5000
09E7BFFB10
0F7003CFA0
1F70000BF0
0AE50007E0
00AFB41C70
0004BFE900
000004EC00
0000009D00
05C403D800
029DFD7000
ENDCHAR
STARTCHAR dieresis
ENCODING 168
SWIDTH 542 0
DWIDTH 11 0
BBX 7 2 2 12
BITMAP
4E406E30
5E406E30
ENDCHAR
STARTCHAR copyright
ENCODING 169
SWIDTH 744 0
DWIDTH 15 0
BBX 13 13 1 0
BITMAP
0005AEFDA40000
01BC51026D9000
0B90000001A900
5B005CED601D30
B405E513900690
E00D70000002C0
E00F50000001D0
E00D70000002C0
B406E513A10690
5C005CED701D30
0B90000001B900
01BC51026D9000
0005BEFDA40000
ENDCHAR
STARTCHAR ordfeminine
ENCODING 170
SWIDTH 345 0
DWIDTH 7 0
BBX 6 6 0 8
BITMAP
06CFD4
06318C
029CFE
1E835E
3F219E
09ED6C
ENDCHAR
STARTCHAR guillemotleft
ENCODING 171
SWIDTH 429 0
DWIDTH 9 0
BBX 8 7 0 2
BITMAP
001B20A4
00B909B0
0AB08D10
1F30E500
0AB08D10
00B909B0
001B20A4
ENDCHAR
STARTCHAR logicalnot
ENCODING 172
SWIDTH 497 0
DWIDTH 10 0
BBX 10 5 0 2
BITMAP
5FFFFFFFF4
00000001F4
00000001F4
00000001F4
00000001E4
ENDCHAR
STARTCHAR uni00AD
ENCODING 173
SWIDTH 311 0
DWIDTH 6 0
BBX 6 1 0 5
BITMAP
3FFFF6
ENDCHAR
STARTCHAR registered
ENCODING 174
SWIDTH 423 0
DWIDTH 8 0
BBX 8 8 0 6
BITMAP
008EFB30
0A9215D2
4A3FF74B
85393C0D
853FF60D
4A394B3B
0A9215D2
008EFB30
ENDCHAR
STARTCHAR macron
ENCODING 175
SWIDTH 542 0
DWIDTH 11 0
BBX 7 1 2 12
BITMAP
4FFFFF10
ENDCHAR
STARTCHAR degree
ENCODING 176
SWIDTH 331 0
DWIDTH 7 0
BBX 6 5 0 9
BITMAP
03CEA1
0D4198
2D003B
0E4198
04CEA1
ENDCHAR
STARTCHAR plusminus
ENCODING 177
SWIDTH 497 0
DWIDTH 10 0
BBX 10 11 0 0
BITMAP
0000880000
0000A90000
0000A90000
0000A90000
5FFFFFFFF4
0000A90000
0000A90000
0000A90000
0000550000
0000000000
5FFFFFFFF4
ENDCHAR
STARTCHAR two.sups
ENCODING 178
SWIDTH 367 0
DWIDTH 7 0
BBX 7 8 0 8
BITMAP
04CEB200
1D41AC00
00005E00
00009C00
0005F400
005F7000
06F90000
0EFFFF60
ENDCHAR
STARTCHAR three.sups
ENCODING 179
SWIDTH 367 0
DWIDTH 7 0
BBX 7 8 0 8
BITMAP
03CFC300
09519D00
00004F00
0002BA00
005FE400
00015F30
1E514F40
04CFD700
ENDCHAR
STARTCHAR acute
ENCODING 180
SWIDTH 542 0
DWIDTH 11 0
BBX 5 4 4 11
BITMAP
005A00
03FB10
2EB100
5A0000
ENDCHAR
STARTCHAR uni00B5
ENCODING 181
SWIDTH 562 0
DWIDTH 11 0
BBX 10 13 1 -3
BITMAP
5F40005F40
5F40005F40
5F40005F40
5F40005F30
5F40005F30
5F40005F30
5F50005F30
5F60009F30
5FD218AF50
5F9EE80AF8
5F30000000
5F30000000
5F40000000
ENDCHAR
STARTCHAR paragraph
ENCODING 182
SWIDTH 560 0
DWIDTH 11 0
BBX 10 15 0 -2
BITMAP
004ADF86F4
05FFFF86F4
0DFFFF86F4
2FFFFF86F4
2FFFFF86F4
1FFFFF86F4
0AFFFF86F4
01BFFF86F4
00037856F4
00000006F4
00000006F4
00000006F4
00000006F4
00000006F4
00000004B3
ENDCHAR
STARTCHAR periodcentered
ENCODING 183
SWIDTH 249 0
DWIDTH 5 0
BBX 3 3 1 5
BITMAP
5E50
AFA0
5E50
ENDCHAR
STARTCHAR cedilla
ENCODING 184
SWIDTH 542 0
DWIDTH 11 0
BBX 5 6 3 -5
BITMAP
005100
02D000
08F800
017F10
028E00
4EA300
ENDCHAR
STARTCHAR one.sups
ENCODING 185
SWIDTH 367 0
DWIDTH 7 0
BBX 4 8 1 8
BITMAP
04DB
4FFB
008B
008B
008B
008B
008B
008B
ENDCHAR
STARTCHAR ordmasculine
ENCODING 186
SWIDTH 365 0
DWIDTH 7 0
BBX 7 6 0 8
BITMAP
03BED600
1E714F40
5E000A90
5E000A90
1E714F40
03BED600
ENDCHAR
STARTCHAR guillemotright
ENCODING 187
SWIDTH 429 0
DWIDTH 9 0
BBX 7 7 1 2
BITMAP
94076000
3E32D500
06E34E40
00B809A0
05E33E40
3E31D500
94076000
ENDCHAR
STARTCHAR onequarter
ENCODING 188
SWIDTH 781 0
DWIDTH 16 0
BBX 14 14 1 0
BITMAP
0000000006A000
28F400001D3000
BFF400007A0000
00F40001E20000
00F40007900000
00F4001E200000
00F40089001DC0
00F401E2009CC0
00F4088004D5C0
00002E101D55C0
000098008B05C0
0002E100DFFFFF
000970000005C0
002E10000005C0
ENDCHAR
STARTCHAR onehalf
ENCODING 189
SWIDTH 808 0
DWIDTH 16 0
BBX 15 14 1 0
BITMAP
000000000C400000
28F400005B000000
BFF40000D4000000
00F40006B0000000
00F4000D30000000
00F4006A00000000
00F401D306DEA100
00F407A02D22C900
00F41E2000008C00
000089000000B900
0001E2000007E200
00089000007F5000
001E200009F60000
009800002FFFFF30
ENDCHAR
STARTCHAR threequarters
ENCODING 190
SWIDTH 796 0
DWIDTH 16 0
BBX 16 14 0 0
BITMAP
00000000000A7000
03CFC300003D0000
09519D0000B60000
00004F0003D00000
0002BA000B600000
005FE4004D000000
00015F30C500AF20
1E514F44C004CF20
04CFD70C501D4F20
0000005C009A0F20
000000D404E10F20
000005B009FFFFF4
00000D4000000F20
00006B0000000F20
ENDCHAR
STARTCHAR questiondown
ENCODING 191
SWIDTH 425 0
DWIDTH 9 0
BBX 7 14 1 -4
BITMAP
005E5000
009FA000
005E5000
00000000
00000000
002F5000
006F2000
02EB0000
1CE20000
8F400000
EB000000
E9000000
AE403D60
19DFD700
ENDCHAR
STARTCHAR Agrave
ENCODING 192
SWIDTH 544 0
DWIDTH 11 0
BBX 11 17 0 0
BITMAP
001B50000000
0007F8000000
00003C300000
000000000000
0000AF800000
0001ECD00000
0005F5F30000
000AC0E90000
001F70AE0000
006F305F4000
00BD001F9000
01F9000CE000
06FFFFFFF400
0BD00001F900
1F800000BE00
6F4000006F40
CE0000002FA0
ENDCHAR
STARTCHAR Aacute
ENCODING 193
SWIDTH 544 0
DWIDTH 11 0
BBX 11 17 0 0
BITMAP
0000007A0000
00001AE60000
00005B200000
000000000000
0000AF800000
0001ECD00000
0005F5F30000
000AC0E90000
001F70AE0000
006F305F4000
00BD001F9000
01F9000CE000
06FFFFFFF400
0BD00001F900
1F800000BE00
6F4000006F40
CE0000002FA0
ENDCHAR
STARTCHAR Acircumflex
ENCODING 194
SWIDTH 544 0
DWIDTH 11 0
BBX 11 17 0 0
BITMAP
0001CFA00000
000BB3D90000
004A101B2000
000000000000
0000AF800000
0001ECD00000
0005F5F30000
000AC0E90000
001F70AE0000
006F305F4000
00BD001F9000
01F9000CE000
06FFFFFFF400
0BD00001F900
1F800000BE00
6F4000006F40
CE0000002FA0
ENDCHAR
STARTCHAR Atilde
ENCODING 195
SWIDTH 544 0
DWIDTH 11 0
BBX 11 17 0 0
BITMAP
000210001000
009EEA26D000
01D218ED4000
000000000000
0000AF800000
0001ECD00000
0005F5F30000
000AC0E90000
001F70AE0000
006F305F4000
00BD001F9000
01F9000CE000
06FFFFFFF400
0BD00001F900
1F800000BE00
6F4000006F40
CE0000002FA0
ENDCHAR
STARTCHAR Adieresis
ENCODING 196
SWIDTH 544 0
DWIDTH 11 0
BBX 11 16 0 0
BITMAP
006E305E4000
006E305E4000
000000000000
0000AF800000
0001ECD00000
0005F5F30000
000AC0E90000
001F70AE0000
006F305F4000
00BD001F9000
01F9000CE000
06FFFFFFF400
0BD00001F900
1F800000BE00
6F4000006F40
CE0000002FA0
ENDCHAR
STARTCHAR Aring
ENCODING 197
SWIDTH 544 0
DWIDTH 11 0
BBX 11 18 0 0
BITMAP
0001BEA00000
000691B40000
000691B40000
0001BEA00000
000000000000
0000AF800000
0001ECD00000
0005F5F30000
000AC0E90000
001F70AE0000
006F305F4000
00BD001F9000
01F9000CE000
06FFFFFFF400
0BD00001F900
1F800000BE00
6F4000006F40
CE0000002FA0
ENDCHAR
STARTCHAR AE
ENCODING 198
SWIDTH 822 0
DWIDTH 16 0
BBX 16 13 0 0
BITMAP
0000003FFFFFFFF4
000000BDFB000000
000004F5FB000000
00000CD0FB000000
00005F50FB000000
0000DD00FB000000
0006F500FFFFFF50
001DC000FB000000
007FFFFFFB000000
01EA0000FB000000
08F30000FB000000
1EA00000FB000000
9F300000FFFFFFF7
ENDCHAR
STARTCHAR Ccedilla
ENCODING 199
SWIDTH 571 0
DWIDTH 11 0
BBX 10 18 1 -5
BITMAP
0017CEEC60
02DC4117E3
0CD1000010
6F50000000
BF00000000
DC00000000
EC00000000
DD00000000
BF00000000
6F50000000
1DD1000031
03EC4116E8
0018DFFC60
00000D3000
00003FB100
000004E600
000015F300
0000EC5000
ENDCHAR
STARTCHAR Egrave
ENCODING 200
SWIDTH 527 0
DWIDTH 11 0
BBX 9 17 1 0
BITMAP
0088000000
005EB10000
0001A70000
0000000000
3FFFFFFF50
3F70000000
3F70000000
3F70000000
3F70000000
3F70000000
3FFFFFF700
3F70000000
3F70000000
3F70000000
3F70000000
3F70000000
3FFFFFFF80
ENDCHAR
STARTCHAR Eacute
ENCODING 201
SWIDTH 527 0
DWIDTH 11 0
BBX 9 17 1 0
BITMAP
000004B100
00007F8100
0002C40000
0000000000
3FFFFFFF50
3F70000000
3F70000000
3F70000000
3F70000000
3F70000000
3FFFFFF700
3F70000000
3F70000000
3F70000000
3F70000000
3F70000000
3FFFFFFF80
ENDCHAR
STARTCHAR Ecircumflex
ENCODING 202
SWIDTH 527 0
DWIDTH 11 0
BBX 9 17 1 0
BITMAP
0009FD1000
007E3AC100
01C2009500
0000000000
3FFFFFFF50
3F70000000
3F70000000
3F70000000
3F70000000
3F70000000
3FFFFFF700
3F70000000
3F70000000
3F70000000
3F70000000
3F70000000
3FFFFFFF80
ENDCHAR
STARTCHAR Edieresis
ENCODING 203
SWIDTH 527 0
DWIDTH 11 0
BBX 9 16 1 0
BITMAP
03E602E800
03E602E800
0000000000
3FFFFFFF50
3F70000000
3F70000000
3F70000000
3F70000000
3F70000000
3FFFFFF700
3F70000000
3F70000000
3F70000000
3F70000000
3F70000000
3FFFFFFF80
ENDCHAR
STARTCHAR Igrave
ENCODING 204
SWIDTH 263 0
DWIDTH 5 0
BBX 4 17 0 0
BITMAP
9700
5EA1
01A6
0000
03F7
03F7
03F7
03F7
03F7
03F7
03F7
03F7
03F7
03F7
03F7
03F7
03F7
ENDCHAR
STARTCHAR Iacute
ENCODING 205
SWIDTH 263 0
DWIDTH 5 0
BBX 5 17 1 0
BITMAP
004B10
07F800
3C3000
000000
3F7000
3F7000
3F7000
3F7000
3F7000
3F7000
3F7000
3F7000
3F7000
3F7000
3F7000
3F7000
3F7000
ENDCHAR
STARTCHAR Icircumflex
ENCODING 206
SWIDTH 263 0
DWIDTH 5 0
BBX 7 17 -1 0
BITMAP
00AFD100
08D3BB00
2C200A50
00000000
003F7000
003F7000
003F7000
003F7000
003F7000
003F7000
003F7000
003F7000
003F7000
003F7000
003F7000
003F7000
003F7000
ENDCHAR
STARTCHAR Idieresis
ENCODING 207
SWIDTH 263 0
DWIDTH 5 0
BBX 7 16 -1 0
BITMAP
4E502E70
4E502E70
00000000
003F7000
003F7000
003F7000
003F7000
003F7000
003F7000
003F7000
003F7000
003F7000
003F7000
003F7000
003F7000
003F7000
ENDCHAR
STARTCHAR Eth
ENCODING 208
SWIDTH 638 0
DWIDTH 13 0
BBX 12 13 0 0
BITMAP
00CFFFEB6000
00CE0026EC10
00CE00003EB0
00CE000008F3
00CE000003F8
00CE000001FA
5EFFFFD000FB
00CE000001FA
00CE000004F7
00CE000009F3
00CE00003FA0
00CE0027EC10
00CFFFEB6000
ENDCHAR
STARTCHAR Ntilde
ENCODING 209
SWIDTH 647 0
DWIDTH 13 0
BBX 11 17 1 0
BITMAP
000220001000
007EEB25E000
00C407EE5000
000000000000
3FC000007F20
3FF600007F20
3FBE10007F20
3F5E80007F20
3F58F2007F20
3F51EB007F20
3F605F407F20
3F600CD06F20
3F6003F76F20
3F60009E6F20
3F60001EBF20
3F600007FF20
3F600000DF20
ENDCHAR
STARTCHAR Ograve
ENCODING 210
SWIDTH 664 0
DWIDTH 13 0
BBX 12 17 1 0
BITMAP
000980000000
0005EA100000
00001A600000
000000000000
0029DFEA3000
03EC3029F600
1DC100009F30
6F4000001EB0
BE0000000BF1
DC00000008F3
EC00000008F4
DC00000008F3
BF0000000BF0
6F5000001FA0
1DD100009F30
03EC3029F600
0019DFEA3000
ENDCHAR
STARTCHAR Oacute
ENCODING 211
SWIDTH 664 0
DWIDTH 13 0
BBX 12 17 1 0
BITMAP
0000004B1000
000007F80000
00002C300000
000000000000
0029DFEA3000
03EC3029F600
1DC100009F30
6F4000001EB0
BE0000000BF1
DC00000008F3
EC00000008F4
DC00000008F3
BF0000000BF0
6F5000001FA0
1DD100009F30
03EC3029F600
0019DFEA3000
ENDCHAR
STARTCHAR Ocircumflex
ENCODING 212
SWIDTH 664 0
DWIDTH 13 0
BBX 12 17 1 0
BITMAP
0000AFD10000
0008D3BB0000
001C200A5000
000000000000
0029DFEA3000
03EC3029F600
1DC100009F30
6F4000001EB0
BE0000000BF1
DC00000008F3
EC00000008F4
DC00000008F3
BF0000000BF0
6F5000001FA0
1DD100009F30
03EC3029F600
0019DFEA3000
ENDCHAR
STARTCHAR Otilde
ENCODING 213
SWIDTH 664 0
DWIDTH 13 0
BBX 12 17 1 0
BITMAP
000120001000
006EDC33F100
00B506DE7000
000000000000
0029DFEA3000
03EC3029F600
1DC100009F30
6F4000001EB0
BE0000000BF1
DC00000008F3
EC00000008F4
DC00000008F3
BF0000000BF0
6F5000001FA0
1DD100009F30
03EC3029F600
0019DFEA3000
ENDCHAR
STARTCHAR Odieresis
ENCODING 214
SWIDTH 664 0
DWIDTH 13 0
BBX 12 16 1 0
BITMAP
003E502E7000
003E502E7000
000000000000
0029DFEA3000
03EC3029F600
1DC100009F30
6F4000001EB0
BE0000000BF1
DC00000008F3
EC00000008F4
DC00000008F3
BF0000000BF0
6F5000001FA0
1DD100009F30
03EC3029F600
0019DFEA3000
ENDCHAR
STARTCHAR multiply
ENCODING 215
SWIDTH 497 0
DWIDTH 10 0
BBX 8 8 1 3
BITMAP
96000068
6F6006F5
06F66F50
006FF500
006FF500
06F56F50
6F6006F5
96000068
ENDCHAR
STARTCHAR Oslash
ENCODING 216
SWIDTH 664 0
DWIDTH 13 0
BBX 12 15 1 -1
BITMAP
000000000030
0018DFEB44F2
03EC4029FE80
1DD10001EF30
6F50000BBEB0
AF10008D1AF1
DD0004F308F4
DD002E6007F4
CE00CA0007F4
9F18D1000AF1
4FAE30001EC0
0CF600008F40
3FED4028F700
C918DFEA4000
210000000000
ENDCHAR
STARTCHAR Ugrave
ENCODING 217
SWIDTH 645 0
DWIDTH 13 0
BBX 11 17 1 0
BITMAP
001B50000000
0007F8000000
00003C300000
000000000000
4F6000007F20
4F6000007F20
4F6000007F20
4F6000007F20
4F6000007F20
4F6000007F20
4F6000007F20
4F6000007F20
3F7000007F10
1F9000009E00
0BD10001E900
03EB313BE200
002AEFD92000
ENDCHAR
STARTCHAR Uacute
ENCODING 218
SWIDTH 645 0
DWIDTH 13 0
BBX 11 17 1 0
BITMAP
0000007A0000
00001AE60000
00005B200000
000000000000
4F6000007F20
4F6000007F20
4F6000007F20
4F6000007F20
4F6000007F20
4F6000007F20
4F6000007F20
4F6000007F20
3F7000007F10
1F9000009E00
0BD10001E900
03EB313BE200
002AEFD92000
ENDCHAR
STARTCHAR Ucircumflex
ENCODING 219
SWIDTH 645 0
DWIDTH 13 0
BBX 11 17 1 0
BITMAP
0001CFB00000
000AC3D90000
004A101B2000
000000000000
4F6000007F20
4F6000007F20
4F6000007F20
4F6000007F20
4F6000007F20
4F6000007F20
4F6000007F20
4F6000007F20
3F7000007F10
1F9000009E00
0BD10001E900
03EB313BE200
002AEFD92000
ENDCHAR
STARTCHAR Udieresis
ENCODING 220
SWIDTH 645 0
DWIDTH 13 0
BBX 11 16 1 0
BITMAP
006E304E4000
006E304E4000
000000000000
4F6000007F20
4F6000007F20
4F6000007F20
4F6000007F20
4F6000007F20
4F6000007F20
4F6000007F20
4F6000007F20
3F7000007F10
1F9000009E00
0BD10001E900
03EB313BE200
002AEFD92000
ENDCHAR
STARTCHAR Yacute
ENCODING 221
SWIDTH 476 0
DWIDTH 10 0
BBX 10 17 0 0
BITMAP
000003C200
00006F9100
0001C40000
0000000000
CE100006F4
4F70000DC0
0CD0005F50
04F600CC00
00CC04F500
005F4BC000
000CDF5000
0005FC0000
0001F90000
0001F90000
0001F90000
0001F90000
0001F90000
ENDCHAR
STARTCHAR Thorn
ENCODING 222
SWIDTH 583 0
DWIDTH 12 0
BBX 10 13 1 0
BITMAP
3F70000000
3F70000000
3FFFFEC810
3F70015DD1
3F700004F6
3F700000F9
3F700001F9
3F700005F5
3F70026EB0
3FFFFEC710
3F70000000
3F70000000
3F70000000
ENDCHAR
STARTCHAR germandbls
ENCODING 223
SWIDTH 576 0
DWIDTH 12 0
BBX 10 14 1 0
BITMAP
008DFD7000
0AE515F700
2F8000DB00
5F5000EA00
5F4008F300
5F403F7000
5F408F1000
5F407F7000
5F400AFC40
5F40004CF5
5F400001DD
5F400000AD
5F408513E8
5F407CED80
ENDCHAR
STARTCHAR agrave
ENCODING 224
SWIDTH 504 0
DWIDTH 10 0
BBX 8 15 1 0
BITMAP
02B10000
03EC1000
003EB000
0002C200
00000000
27CEFC40
3C511CE1
000003F7
000001F9
0059CEFA
2DE841FA
CE1000FA
EA0001FA
AE304CEA
1AEE91BA
ENDCHAR
STARTCHAR aacute
ENCODING 225
SWIDTH 504 0
DWIDTH 10 0
BBX 8 15 1 0
BITMAP
00000870
00006F90
0004F800
00087000
00000000
27CEFC40
3C511CE1
000003F7
000001F9
0059CEFA
2DE841FA
CE1000FA
EA0001FA
AE304CEA
1AEE91BA
ENDCHAR
STARTCHAR acircumflex
ENCODING 226
SWIDTH 504 0
DWIDTH 10 0
BBX 8 14 1 0
BITMAP
002EF800
02D94E70
087002C1
00000000
27CEFC40
3C511CE1
000003F7
000001F9
0059CEFA
2DE841FA
CE1000FA
EA0001FA
AE304CEA
1AEE91BA
ENDCHAR
STARTCHAR atilde
ENCODING 227
SWIDTH 504 0
DWIDTH 10 0
BBX 8 14 1 0
BITMAP
01640033
0DACA1A8
2D009EC1
00000000
27CEFC40
3C511CE1
000003F7
000001F9
0059CEFA
2DE841FA
CE1000FA
EA0001FA
AE304CEA
1AEE91BA
ENDCHAR
STARTCHAR adieresis
ENCODING 228
SWIDTH 504 0
DWIDTH 10 0
BBX 8 14 1 0
BITMAP
07E209D1
07E209D1
00000000
00000000
27CEFC40
3C511CE1
000003F7
000001F9
0059CEFA
2DE841FA
CE1000FA
EA0001FA
AE304CEA
1AEE91BA
ENDCHAR
STARTCHAR aring
ENCODING 229
SWIDTH 504 0
DWIDTH 10 0
BBX 8 15 1 0
BITMAP
004DE900
00D51C50
00D51C50
004DE900
00000000
27CEFC40
3C511CE1
000003F7
000001F9
0059CEFA
2DE841FA
CE1000FA
EA0001FA
AE304CEA
1AEE91BA
ENDCHAR
STARTCHAR ae
ENCODING 230
SWIDTH 785 0
DWIDTH 16 0
BBX 14 10 1 0
BITMAP
17BEEB207DEC40
2C612AC8C207F3
000002FF2000C9
000013FB00009C
018DFCFD9999CE
3ED510EC666665
BE1000CC000000
CC0001CF300000
8F414C9AE51392
19EEB4007DFDA3
ENDCHAR
STARTCHAR ccedilla
ENCODING 231
SWIDTH 456 0
DWIDTH 9 0
BBX 9 15 0 -5
BITMAP
0017DFE920
00CE513A10
07F4000000
0DD0000000
1FA0000000
1FA0000000
0ED0000000
08F4000000
01DE402A30
0019DFD920
00004B0000
0000AE6000
000019E000
000029C000
0006DA2000
ENDCHAR
STARTCHAR egrave
ENCODING 232
SWIDTH 496 0
DWIDTH 10 0
BBX 10 15 0 0
BITMAP
002B200000
003ED10000
0002DB0000
00002B2000
0000000000
0018DFC600
01CC315F50
08E10008D0
0DA00005F2
1FFFFFFFF2
1FA0000000
0DC0000000
08F4000000
01CE502650
0018DFDB40
ENDCHAR
STARTCHAR eacute
ENCODING 233
SWIDTH 496 0
DWIDTH 10 0
BBX 10 15 0 0
BITMAP
0000007800
000005FA00
00003F9000
0000780000
0000000000
0018DFC600
01CC315F50
08E10008D0
0DA00005F2
1FFFFFFFF2
1FA0000000
0DC0000000
08F4000000
01CE502650
0018DFDB40
ENDCHAR
STARTCHAR ecircumflex
ENCODING 234
SWIDTH 496 0
DWIDTH 10 0
BBX 10 14 0 0
BITMAP
0002DF9000
001DA4D800
0087002B20
0000000000
0018DFC600
01CC315F50
08E10008D0
0DA00005F2
1FFFFFFFF2
1FA0000000
0DC0000000
08F4000000
01CE502650
0018DFDB40
ENDCHAR
STARTCHAR edieresis
ENCODING 235
SWIDTH 496 0
DWIDTH 10 0
BBX 10 14 0 0
BITMAP
006E308E10
006E308E10
0000000000
0000000000
0018DFC600
01CC315F50
08E10008D0
0DA00005F2
1FFFFFFFF2
1FA0000000
0DC0000000
08F4000000
01CE502650
0018DFDB40
ENDCHAR
STARTCHAR igrave
ENCODING 236
SWIDTH 246 0
DWIDTH 5 0
BBX 5 15 -1 0
BITMAP
1B3000
1DE200
01CD10
001B40
000000
005F40
005F40
005F40
005F40
005F40
005F40
005F40
005F40
005F40
005F40
ENDCHAR
STARTCHAR iacute
ENCODING 237
SWIDTH 246 0
DWIDTH 5 0
BBX 5 15 1 0
BITMAP
004A00
03EC10
2EB100
5A0000
000000
5F4000
5F4000
5F4000
5F4000
5F4000
5F4000
5F4000
5F4000
5F4000
5F4000
ENDCHAR
STARTCHAR icircumflex
ENCODING 238
SWIDTH 246 0
DWIDTH 5 0
BBX 7 14 -1 0
BITMAP
01CFB000
0BB3CA00
59001A40
00000000
005F4000
005F4000
005F4000
005F4000
005F4000
005F4000
005F4000
005F4000
005F4000
005F4000
ENDCHAR
STARTCHAR idieresis
ENCODING 239
SWIDTH 246 0
DWIDTH 5 0
BBX 7 14 -1 0
BITMAP
4E506E30
4E506E30
00000000
00000000
005F4000
005F4000
005F4000
005F4000
005F4000
005F4000
005F4000
005F4000
005F4000
005F4000
ENDCHAR
STARTCHAR eth
ENCODING 240
SWIDTH 545 0
DWIDTH 11 0
BBX 9 14 1 0
BITMAP
01B6000520
018FB5CD30
0007FF8000
02AFAF9000
05A207F500
000000CD00
02AEEB8F40
2EB303BF80
AE10001EA0
DA00000EA0
DB00000F80
9E10005F30
1DC304E900
018DFD7000
ENDCHAR
STARTCHAR ntilde
ENCODING 241
SWIDTH 547 0
DWIDTH 11 0
BBX 9 14 1 0
BITMAP
0036200510
04E9E52F20
07803CE800
0000000000
5F17DEC300
5FC712CE00
5F60005F40
5F40004F60
5F40003F60
5F40003F60
5F40003F60
5F40003F60
5F40003F60
5F40003F60
ENDCHAR
STARTCHAR ograve
ENCODING 242
SWIDTH 542 0
DWIDTH 11 0
BBX 10 15 0 0
BITMAP
001B300000
002DE20000
0001CD1000
00001B4000
0000000000
0018DFD700
01CD305EA0
08F30006F5
0DC00000FB
1FA00000DD
1FA00000DD
0DC00000EB
08F30006F5
01CD305EA0
0018DFD700
ENDCHAR
STARTCHAR oacute
ENCODING 243
SWIDTH 542 0
DWIDTH 11 0
BBX 10 15 0 0
BITMAP
0000005A00
000003FB10
00002EB100
00005A0000
0000000000
0018DFD700
01CD305EA0
08F30006F5
0DC00000FB
1FA00000DD
1FA00000DD
0DC00000EB
08F30006F5
01CD305EA0
0018DFD700
ENDCHAR
STARTCHAR ocircumflex
ENCODING 244
SWIDTH 542 0
DWIDTH 11 0
BBX 10 14 0 0
BITMAP
0001CFA000
001BB3D900
0069001B40
0000000000
0018DFD700
01CD305EA0
08F30006F5
0DC00000FB
1FA00000DD
1FA00000DD
0DC00000EB
08F30006F5
01CD305EA0
0018DFD700
ENDCHAR
STARTCHAR otilde
ENCODING 245
SWIDTH 542 0
DWIDTH 11 0
BBX 10 14 0 0
BITMAP
0006500240
00ABBC28B0
00D207ED30
0000000000
0018DFD700
01CD305EA0
08F30006F5
0DC00000FB
1FA00000DD
1FA00000DD
0DC00000EB
08F30006F5
01CD305EA0
0018DFD700
ENDCHAR
STARTCHAR odieresis
ENCODING 246
SWIDTH 542 0
DWIDTH 11 0
BBX 10 14 0 0
BITMAP
004E406E30
005E406E30
0000000000
0000000000
0018DFD700
01CD305EA0
08F30006F5
0DC00000FB
1FA00000DD
1FA00000DD
0DC00000EB
08F30006F5
01CD305EA0
0018DFD700
ENDCHAR
STARTCHAR divide
ENCODING 247
SWIDTH 497 0
DWIDTH 10 0
BBX 10 9 0 2
BITMAP
0001DC0000
0001DC0000
0000000000
0000000000
5FFFFFFFF4
0000000000
0000000000
0001DC0000
0001DC0000
ENDCHAR
STARTCHAR oslash
ENCODING 248
SWIDTH 542 0
DWIDTH 11 0
BBX 10 12 0 -1
BITMAP
0000000001
0018DEC66A
01CD305FE1
08F2002EF4
0DB001D5EB
1F900B70CD
1F909900BD
0DC7B000DB
07FD1004F5
03FE404EA0
0C58DFD700
0100000000
ENDCHAR
STARTCHAR ugrave
ENCODING 249
SWIDTH 544 0
DWIDTH 11 0
BBX 9 15 1 0
BITMAP
01B3000000
02DE200000
001CD10000
0001B40000
0000000000
8F20006F40
8F20006F40
8F20006F40
8F20006F40
8F20006F40
8F20006F40
7F30006F40
5F4000AF40
1EB119AF40
04CEC52F40
ENDCHAR
STARTCHAR uacute
ENCODING 250
SWIDTH 544 0
DWIDTH 11 0
BBX 9 15 1 0
BITMAP
000005A000
00003EC100
0002EB1000
0005A00000
0000000000
8F20006F40
8F20006F40
8F20006F40
8F20006F40
8F20006F40
8F20006F40
7F30006F40
5F4000AF40
1EB119AF40
04CEC52F40
ENDCHAR
STARTCHAR ucircumflex
ENCODING 251
SWIDTH 544 0
DWIDTH 11 0
BBX 9 14 1 0
BITMAP
001CFA0000
00BB3CA000
069001A400
0000000000
8F20006F40
8F20006F40
8F20006F40
8F20006F40
8F20006F40
8F20006F40
7F30006F40
5F4000AF40
1EB119AF40
04CEC52F40
ENDCHAR
STARTCHAR udieresis
ENCODING 252
SWIDTH 544 0
DWIDTH 11 0
BBX 9 14 1 0
BITMAP
04E406E300
04E506E300
0000000000
0000000000
8F20006F40
8F20006F40
8F20006F40
8F20006F40
8F20006F40
8F20006F40
7F30006F40
5F4000AF40
1EB119AF40
04CEC52F40
ENDCHAR
STARTCHAR yacute
ENCODING 253
SWIDTH 467 0
DWIDTH 9 0
BBX 9 19 0 -4
BITMAP
000001B300
00000BE400
0000AE3000
0001B30000
0000000000
9F20000AE0
3F70000E90
0CD0005F30
06F3009D00
01E900E800
009E04F300
003F48D000
000C9D8000
0006FF2000
0001EC0000
0001F70000
0006F10000
014E700000
3FE7000000
ENDCHAR
STARTCHAR thorn
ENCODING 254
SWIDTH 555 0
DWIDTH 11 0
BBX 10 18 1 -4
BITMAP
5F40000000
5F40000000
5F40000000
5F40000000
5F58DFC400
5FD612BF40
5F50001EB0
5F40000AF0
5F400009F1
5F40000AF1
5F40000CE0
5F40003F90
5FD413DD10
5F6AEEA200
5F40000000
5F40000000
5F40000000
5F40000000
ENDCHAR
STARTCHAR ydieresis
ENCODING 255
SWIDTH 467 0
DWIDTH 9 0
BBX 9 18 0 -4
BITMAP
00DA01E800
00DA01E800
0000000000
0000000000
9F20000AE0
3F70000E90
0CD0005F30
06F3009D00
01E900E800
009E04F300
003F48D000
000C9D8000
0006FF2000
0001EC0000
0001F70000
0006F10000
014E700000
3FE7000000
ENDCHAR
STARTCHAR Amacron
ENCODING 256
SWIDTH 544 0
DWIDTH 11 0
BBX 11 15 0 0
BITMAP
004FFFFF2000
000000000000
0000AF800000
0001ECD00000
0005F5F30000
000AC0E90000
001F70AE0000
006F305F4000
00BD001F9000
01F9000CE000
06FFFFFFF400
0BD00001F900
1F800000BE00
6F4000006F40
CE0000002FA0
ENDCHAR
STARTCHAR amacron
ENCODING 257
SWIDTH 504 0
DWIDTH 10 0
BBX 8 13 1 0
BITMAP
06FFFFD0
00000000
00000000
27CEFC40
3C511CE1
000003F7
000001F9
0059CEFA
2DE841FA
CE1000FA
EA0001FA
AE304CEA
1AEE91BA
ENDCHAR
STARTCHAR Abreve
ENCODING 258
SWIDTH 544 0
DWIDTH 11 0
BBX 11 17 0 0
BITMAP
0059000B3000
002E516D0000
0004CEC30000
000000000000
0000AF800000
0001ECD00000
0005F5F30000
000AC0E90000
001F70AE0000
006F305F4000
00BD001F9000
01F9000CE000
06FFFFFFF400
0BD00001F900
1F800000BE00
6F4000006F40
CE0000002FA0
ENDCHAR
STARTCHAR abreve
ENCODING 259
SWIDTH 504 0
DWIDTH 10 0
BBX 8 14 1 0
BITMAP
0B4000C3
07D318D1
008DEB20
00000000
27CEFC40
3C511CE1
000003F7
000001F9
0059CEFA
2DE841FA
CE1000FA
EA0001FA
AE304CEA
1AEE91BA
ENDCHAR
STARTCHAR Aogonek
ENCODING 260
SWIDTH 544 0
DWIDTH 11 0
BBX 12 17 0 -4
BITMAP
0000AF800000
0001ECD00000
0005F5F30000
000AC0E90000
001F70AE0000
006F305F4000
00BD001F9000
01F9000CE000
06FFFFFFF400
0BD00001F900
1F800000BE00
6F4000006F40
CE0000002FA0
000000003D30
00000000D600
00000000F610
000000008ED3
ENDCHAR
STARTCHAR aogonek
ENCODING 261
SWIDTH 504 0
DWIDTH 10 0
BBX 8 14 1 -4
BITMAP
27CEFC40
3C512BE1
000003F7
000014F9
028DFCFA
4FC400FA
CD0000FA
EA0001FA
AE304CEA
1AEE91BA
000006B2
00001E10
00004F21
00000BEB
ENDCHAR
STARTCHAR Cacute
ENCODING 262
SWIDTH 571 0
DWIDTH 11 0
BBX 10 17 1 0
BITMAP
0000005B10
000008F800
00003C3000
0000000000
0017CEEC60
02DC4117E3
0CD1000010
6F50000000
BF00000000
DC00000000
EC00000000
DD00000000
BF00000000
6F50000000
1DD1000031
03EC4116E8
0018DFEC60
ENDCHAR
STARTCHAR cacute
ENCODING 263
SWIDTH 456 0
DWIDTH 9 0
BBX 9 15 0 0
BITMAP
0000003B10
000002ED20
00001DC100
00004B1000
0000000000
0017DFE920
00CE513A10
07F4000000
0DD0000000
1FA0000000
1FA0000000
0ED0000000
08F4000000
01DE402A30
0019DFD920
ENDCHAR
STARTCHAR Ccircumflex
ENCODING 264
SWIDTH 571 0
DWIDTH 11 0
BBX 10 17 1 0
BITMAP
0000AFC100
0008D3BB00
002B100A40
0000000000
0017CEEC60
02DC4117E3
0CD1000010
6F50000000
BF00000000
DC00000000
EC00000000
DD00000000
BF00000000
6F50000000
1DD1000031
03EC4116E8
0018DFEC60
ENDCHAR
STARTCHAR ccircumflex
ENCODING 265
SWIDTH 456 0
DWIDTH 9 0
BBX 9 14 0 0
BITMAP
0000AFC100
000AD3BB10
004B100960
0000000000
0017DFE920
00CE513A10
07F4000000
0DD0000000
1FA0000000
1FA0000000
0ED0000000
08F4000000
01DE402A30
0019DFD920
ENDCHAR
STARTCHAR Cdotaccent
ENCODING 266
SWIDTH 571 0
DWIDTH 11 0
BBX 10 16 1 0
BITMAP
00005E7000
00005E7000
0000000000
0017CEEC60
02DC4117E3
0CD1000010
6F50000000
BF00000000
DC00000000
EC00000000
DD00000000
BF00000000
6F50000000
1DD1000031
03EC4116E8
0018DFEC60
ENDCHAR
STARTCHAR cdotaccent
ENCODING 267
SWIDTH 456 0
DWIDTH 9 0
BBX 9 14 0 0
BITMAP
00004E6000
00004E6000
0000000000
0000000000
0017DFE920
00CE513A10
07F4000000
0DD0000000
1FA0000000
1FA0000000
0ED0000000
08F4000000
01DE402A30
0019DFD920
ENDCHAR
STARTCHAR Ccaron
ENCODING 268
SWIDTH 571 0
DWIDTH 11 0
BBX 10 17 1 0
BITMAP
002B100A40
0008D3BB00
0000AFC100
0000000000
0017CEEC60
02DC4117E3
0CD1000010
6F50000000
BF00000000
DC00000000
EC00000000
DD00000000
BF00000000
6F50000000
1DD1000031
03EC4116E8
0018DFEC60
ENDCHAR
STARTCHAR ccaron
ENCODING 269
SWIDTH 456 0
DWIDTH 9 0
BBX 9 14 0 0
BITMAP
004B100960
000AD3BB10
0000AFC100
0000000000
0017DFE920
00CE513A10
07F4000000
0DD0000000
1FA0000000
1FA0000000
0ED0000000
08F4000000
01DE402A30
0019DFD920
ENDCHAR
STARTCHAR Dcaron
ENCODING 270
SWIDTH 615 0
DWIDTH 12 0
BBX 11 17 1 0
BITMAP
0087004B0000
002D85E40000
0003EF600000
000000000000
3FFFFDA30000
3F7013AF7000
3F700008F400
3F700001EC00
3F700000AF10
3F7000007F30
3F7000007F40
3F7000008F30
3F700000AF10
3F700001EB00
3F700009F400
3F7013AF6000
3FFFFD930000
ENDCHAR
STARTCHAR dcaron
ENCODING 271
SWIDTH 573 0
DWIDTH 11 0
BBX 12 15 0 0
BITMAP
00000000007A
00000003F779
00000003F778
00000003F767
00000003F700
0019EEB5F700
01CE414CF700
08F40003F700
0DD00003F700
0FB00003F700
1FA00003F700
0EC00003F700
0AF20004F700
02EC205CF700
003BEE91E700
ENDCHAR
STARTCHAR Dcroat
ENCODING 272
SWIDTH 638 0
DWIDTH 13 0
BBX 12 13 0 0
BITMAP
00CFFFEB6000
00CE0026EC10
00CE00003EB0
00CE000008F3
00CE000003F8
00CE000001FA
5EFFFFD000FB
00CE000001FA
00CE000004F7
00CE000009F3
00CE00003FA0
00CE0027EC10
00CFFFEB6000
ENDCHAR
STARTCHAR dcroat
ENCODING 273
SWIDTH 555 0
DWIDTH 11 0
BBX 11 14 0 0
BITMAP
00000003F700
00000003F700
00006FFFFFD0
00000003F700
00000003F700
0019EEB5F700
01DD414CF700
09F30003F700
0EC00003F700
1FA00003F700
0FB00003F700
0BF20004F700
03FC314CF700
004BEE91F700
ENDCHAR
STARTCHAR Emacron
ENCODING 274
SWIDTH 527 0
DWIDTH 11 0
BBX 9 15 1 0
BITMAP
00FFFFF600
0000000000
3FFFFFFF50
3F70000000
3F70000000
3F70000000
3F70000000
3F70000000
3FFFFFF700
3F70000000
3F70000000
3F70000000
3F70000000
3F70000000
3FFFFFFF80
ENDCHAR
STARTCHAR emacron
ENCODING 275
SWIDTH 496 0
DWIDTH 10 0
BBX 10 13 0 0
BITMAP
005FFFFE00
0000000000
0000000000
0018DFC600
01CC315F50
08E10008D0
0DA00005F2
1FFFFFFFF2
1FA0000000
0DC0000000
08F4000000
01CE502650
0018DFDB40
ENDCHAR
STARTCHAR Ebreve
ENCODING 276
SWIDTH 527 0
DWIDTH 11 0
BBX 9 17 1 0
BITMAP
02D0008700
00C814E300
002BED5000
0000000000
3FFFFFFF50
3F70000000
3F70000000
3F70000000
3F70000000
3F70000000
3FFFFFF700
3F70000000
3F70000000
3F70000000
3F70000000
3F70000000
3FFFFFFF80
ENDCHAR
STARTCHAR ebreve
ENCODING 277
SWIDTH 496 0
DWIDTH 10 0
BBX 10 14 0 0
BITMAP
00A5000B40
006D317E10
0007DEB300
0000000000
0018DFC600
01CC315F50
08E10008D0
0DA00005F2
1FFFFFFFF2
1FA0000000
0DC0000000
08F4000000
01CE502650
0018DFDB40
ENDCHAR
STARTCHAR Edotaccent
ENCODING 278
SWIDTH 527 0
DWIDTH 11 0
BBX 9 16 1 0
BITMAP
0004E90000
0004E90000
0000000000
3FFFFFFF50
3F70000000
3F70000000
3F70000000
3F70000000
3F70000000
3FFFFFF700
3F70000000
3F70000000
3F70000000
3F70000000
3F70000000
3FFFFFFF80
ENDCHAR
STARTCHAR edotaccent
ENCODING 279
SWIDTH 496 0
DWIDTH 10 0
BBX 10 14 0 0
BITMAP
00008E3000
00008E3000
0000000000
0000000000
0018DFC600
01CC315F50
08E10008D0
0DA00005F2
1FFFFFFFF2
1FA0000000
0DC0000000
08F4000000
01CE502650
0018DFDB40
ENDCHAR
STARTCHAR Eogonek
ENCODING 280
SWIDTH 527 0
DWIDTH 11 0
BBX 9 17 1 -4
BITMAP
3FFFFFFF50
3F70000000
3F70000000
3F70000000
3F70000000
3F70000000
3FFFFFF700
3F70000000
3F70000000
3F70000000
3F70000000
3F70000000
3FFFFFFF80
000000B810
000007C000
000009C110
000003DE80
ENDCHAR
STARTCHAR eogonek
ENCODING 281
SWIDTH 496 0
DWIDTH 10 0
BBX 10 14 0 -4
BITMAP
0018DFC600
01CC315F50
08E10008D0
0DA00005F2
1FFFFFFFF2
1FA0000000
0DC0000000
08F4000000
01CE502650
0018DFFF70
000001D600
000007B000
000009B110
000003DE60
ENDCHAR
STARTCHAR Ecaron
ENCODING 282
SWIDTH 527 0
DWIDTH 11 0
BBX 9 17 1 0
BITMAP
01C2009500
007E3AC100
0009FD1000
0000000000
3FFFFFFF50
3F70000000
3F70000000
3F70000000
3F70000000
3F70000000
3FFFFFF700
3F70000000
3F70000000
3F70000000
3F70000000
3F70000000
3FFFFFFF80
ENDCHAR
STARTCHAR ecaron
ENCODING 283
SWIDTH 496 0
DWIDTH 10 0
BBX 10 14 0 0
BITMAP
0087002B20
001DA4D800
0002DF9000
0000000000
0018DFC600
01CC315F50
08E10008D0
0DA00005F2
1FFFFFFFF2
1FA0000000
0DC0000000
08F4000000
01CE502650
0018DFDB40
ENDCHAR
STARTCHAR Gcircumflex
ENCODING 284
SWIDTH 617 0
DWIDTH 12 0
BBX 10 17 1 0
BITMAP
00004FF500
0002E75E40
00096004A0
0000000000
0017CEFD92
02DD5114D8
0CD1000010
6F50000000
BF00000000
DC00000000
EC00000000
DD0004FFFF
BF0000008F
6F5000008F
0DD100008F
02DD5114CE
0018CEED82
ENDCHAR
STARTCHAR gcircumflex
ENCODING 285
SWIDTH 504 0
DWIDTH 10 0
BBX 10 18 0 -4
BITMAP
0001DF9000
001CA3D800
0078001B30
0000000000
002AEFFFFA
02EA12CE10
09F1003F50
0BD0001F70
09F1003F40
02EA12CB00
01CCEE9100
07E2000000
01DEFFFD91
07C00004F9
0E600000CC
1F700002F9
0AE6114DD1
007CEFC710
ENDCHAR
STARTCHAR Gbreve
ENCODING 286
SWIDTH 617 0
DWIDTH 12 0
BBX 10 17 1 0
BITMAP
000A4002C0
0007C21B80
00008EE910
0000000000
0017CEFD92
02DD5114D8
0CD1000010
6F50000000
BF00000000
DC00000000
EC00000000
DD0004FFFF
BF0000008F
6F5000008F
0DD100008F
02DD5114CE
0018CEED82
ENDCHAR
STARTCHAR gbreve
ENCODING 287
SWIDTH 504 0
DWIDTH 10 0
BBX 10 18 0 -4
BITMAP
0096000A50
005D316E10
0007DEC300
0000000000
002AEFFFFA
02EA12CE10
09F1003F50
0BD0001F70
09F1003F40
02EA12CB00
01CCEE9100
07E2000000
01DEFFFD91
07C00004F9
0E600000CC
1F700002F9
0AE6114DD1
007CEFC710
ENDCHAR
STARTCHAR Gdotaccent
ENCODING 288
SWIDTH 617 0
DWIDTH 12 0
BBX 10 16 1 0
BITMAP
00000CD100
00000CD100
0000000000
0017CEFD92
02DD5114D8
0CD1000010
6F50000000
BF00000000
DC00000000
EC00000000
DD0004FFFF
BF0000008F
6F5000008F
0DD100008F
02DD5114CE
0018CEED82
ENDCHAR
STARTCHAR gdotaccent
ENCODING 289
SWIDTH 504 0
DWIDTH 10 0
BBX 10 18 0 -4
BITMAP
00007E3000
00008E3000
0000000000
0000000000
002AEFFFFA
02EA12CE10
09F1003F50
0BD0001F70
09F1003F40
02EA12CB00
01CCEE9100
07E2000000
01DEFFFD91
07C00004F9
0E600000CC
1F700002F9
0AE6114DD1
007CEFC710
ENDCHAR
STARTCHAR uni0122
ENCODING 290
SWIDTH 617 0
DWIDTH 12 0
BBX 10 18 1 -5
BITMAP
0017CEFD92
02DD5114D8
0CD1000010
6F50000000
BF00000000
DC00000000
EC00000000
DD0004FFFF
BF0000008F
6F5000008F
0DD100008F
02DD5114CE
0018CEED82
0000000000
00001D9100
000002E700
000014E500
0000CC6000
ENDCHAR
STARTCHAR uni0123
ENCODING 291
SWIDTH 504 0
DWIDTH 10 0
BBX 10 19 0 -4
BITMAP
00003AE200
0001E71000
0002F50000
00007D5000
0000000000
002AEFFFFA
02EA12CE10
09F1003F50
0BD0001F70
09F1003F40
02EA12CB00
01CCEE9100
07E2000000
01DEFFFD91
07C00004F9
0E600000CC
1F700002F9
0AE6114DD1
007CEFC710
ENDCHAR
STARTCHAR Hcircumflex
ENCODING 292
SWIDTH 652 0
DWIDTH 13 0
BBX 11 17 1 0
BITMAP
0000BFC00000
0009C3CA0000
003B101B3000
000000000000
3F7000007F40
3F7000007F40
3F7000007F40
3F7000007F40
3F7000007F40
3F7000007F40
3FFFFFFFFF40
3F7000007F40
3F7000007F40
3F7000007F40
3F7000007F40
3F7000007F40
3F7000007F40
ENDCHAR
STARTCHAR hcircumflex
ENCODING 293
SWIDTH 544 0
DWIDTH 11 0
BBX 11 18 -1 0
BITMAP
00CFB0000000
0AC3C9000000
3B101B300000
000000000000
005F40000000
005F40000000
005F40000000
005F40000000
005F45DEC300
005FB812CE00
005F70005F40
005F40004F60
005F40003F60
005F40003F60
005F40003F60
005F40003F60
005F40003F60
005F40003F60
ENDCHAR
STARTCHAR Hbar
ENCODING 294
SWIDTH 687 0
DWIDTH 14 0
BBX 14 13 0 0
BITMAP
00CD000001FA00
00CD000001FA00
5EFFFFFFFFFFF1
00CD000001FA00
00CD000001FA00
00CFFFFFFFFA00
00CD000001FA00
00CD000001FA00
00CD000001FA00
00CD000001FA00
00CD000001FA00
00CD000001FA00
00CD000001FA00
ENDCHAR
STARTCHAR hbar
ENCODING 295
SWIDTH 544 0
DWIDTH 11 0
BBX 10 14 0 0
BITMAP
05F4000000
05F4000000
BEFFEED000
05F4000000
05F4000000
05F43AC920
05FAA45DD0
05F90006F4
05F40004F6
05F40003F6
05F40003F6
05F40003F6
05F40003F6
05F40003F6
ENDCHAR
STARTCHAR Itilde
ENCODING 296
SWIDTH 263 0
DWIDTH 5 0
BBX 8 17 -1 0
BITMAP
01200010
6EDC33F1
B506DE70
00000000
003F7000
003F7000
003F7000
003F7000
003F7000
003F7000
003F7000
003F7000
003F7000
003F7000
003F7000
003F7000
003F7000
ENDCHAR
STARTCHAR itilde
ENCODING 297
SWIDTH 246 0
DWIDTH 5 0
BBX 7 14 -1 0
BITMAP
06500150
ACBC27B0
C306ED30
00000000
005F4000
005F4000
005F4000
005F4000
005F4000
005F4000
005F4000
005F4000
005F4000
005F4000
ENDCHAR
STARTCHAR Imacron
ENCODING 298
SWIDTH 263 0
DWIDTH 5 0
BBX 7 15 -1 0
BITMAP
1FFFFF50
00000000
003F7000
003F7000
003F7000
003F7000
003F7000
003F7000
003F7000
003F7000
003F7000
003F7000
003F7000
003F7000
003F7000
ENDCHAR
STARTCHAR imacron
ENCODING 299
SWIDTH 246 0
DWIDTH 5 0
BBX 7 13 -1 0
BITMAP
3FFFFF20
00000000
00000000
005F4000
005F4000
005F4000
005F4000
005F4000
005F4000
005F4000
005F4000
005F4000
005F4000
ENDCHAR
STARTCHAR uni012C
ENCODING 300
SWIDTH 263 0
DWIDTH 5 0
BBX 7 17 -1 0
BITMAP
3C000960
0D714E20
02BED500
00000000
003F7000
003F7000
003F7000
003F7000
003F7000
003F7000
003F7000
003F7000
003F7000
003F7000
003F7000
003F7000
003F7000
ENDCHAR
STARTCHAR uni012D
ENCODING 301
SWIDTH 246 0
DWIDTH 5 0
BBX 7 14 -1 0
BITMAP
78000870
3E415E30
05CEC500
00000000
005F4000
005F4000
005F4000
005F4000
005F4000
005F4000
005F4000
005F4000
005F4000
005F4000
ENDCHAR
STARTCHAR Iogonek
ENCODING 302
SWIDTH 263 0
DWIDTH 5 0
BBX 5 17 0 -4
BITMAP
03F700
03F700
03F700
03F700
03F700
03F700
03F700
03F700
03F700
03F700
03F700
03F700
03F700
04C100
0E4000
1F5200
09ED20
ENDCHAR
STARTCHAR iogonek
ENCODING 303
SWIDTH 246 0
DWIDTH 5 0
BBX 4 18 0 -4
BITMAP
07E5
07E5
0000
0000
05F4
05F4
05F4
05F4
05F4
05F4
05F4
05F4
05F4
05F4
06B1
1F20
3F31
0AEC
ENDCHAR
STARTCHAR Idotaccent
ENCODING 304
SWIDTH 263 0
DWIDTH 5 0
BBX 3 16 1 0
BITMAP
4E80
4E80
0000
3F70
3F70
3F70
3F70
3F70
3F70
3F70
3F70
3F70
3F70
3F70
3F70
3F70
ENDCHAR
STARTCHAR dotlessi
ENCODING 305
SWIDTH 246 0
DWIDTH 5 0
BBX 3 10 1 0
BITMAP
5F40
5F40
5F40
5F40
5F40
5F40
5F40
5F40
5F40
5F40
ENDCHAR
STARTCHAR uni0132
ENCODING 306
SWIDTH 526 0
DWIDTH 11 0
BBX 8 16 1 -3
BITMAP
3F7000EB
3F7000EB
3F7000EB
3F7000EB
3F7000EB
3F7000EB
3F7000EB
3F7000EB
3F7000EB
3F7000EB
3F7000EB
3F7000EB
3F7000EB
000000FA
000014F6
0004FE90
ENDCHAR
STARTCHAR uni0133
ENCODING 307
SWIDTH 493 0
DWIDTH 10 0
BBX 8 19 1 -4
BITMAP
01000010
7F7008F6
6E6007E5
00000000
00000000
5F4006F3
5F4006F3
5F4006F3
5F4006F3
5F4006F3
5F4006F3
5F4006F3
5F4006F3
5F4006F3
5F4006F3
000006F3
000007F2
00011BD0
000AFC30
ENDCHAR
STARTCHAR Jcircumflex
ENCODING 308
SWIDTH 480 0
DWIDTH 10 0
BBX 10 17 0 0
BITMAP
000005FF40
00003E67E2
0000A50069
0000000000
000000CD00
000000CD00
000000CD00
000000CD00
000000CD00
000000CD00
000000CD00
000000CD00
000000CD00
000000DC00
030001E900
2FA119F300
03BEFC4000
ENDCHAR
STARTCHAR jcircumflex
ENCODING 309
SWIDTH 247 0
DWIDTH 5 0
BBX 7 18 -1 -4
BITMAP
01CFB000
0BB3CA00
59001A40
00000000
005F4000
005F4000
005F4000
005F4000
005F4000
005F4000
005F4000
005F4000
005F4000
005F4000
005F4000
006F3000
11AE1000
9FD40000
ENDCHAR
STARTCHAR uni0136
ENCODING 310
SWIDTH 579 0
DWIDTH 12 0
BBX 11 18 1 -5
BITMAP
3F700007F700
3F70004F9000
3F7003EC0000
3F701DD10000
3F70CE300000
3F79FE200000
3FDF9FA00000
3FFA08F40000
3FB001EC0000
3F70006F7000
3F70000CE100
3F700004F900
3F700000AF30
000000000000
00007C500000
000007F00000
000029D00000
0005EA200000
ENDCHAR
STARTCHAR uni0137
ENCODING 311
SWIDTH 495 0
DWIDTH 10 0
BBX 9 19 1 -5
BITMAP
5F40000000
5F40000000
5F40000000
5F40000000
5F4001DC10
5F400AE200
5F407F4000
5F43F70000
5F5DF50000
5FDDDD1000
5FE34F8000
5F6009F300
5F4001EC00
5F40006F60
0000000000
0008C40000
00018E0000
0002AC0000
006DA20000
ENDCHAR
STARTCHAR kgreenlandic
ENCODING 312
SWIDTH 495 0
DWIDTH 10 0
BBX 9 10 1 0
BITMAP
5F4001DC10
5F400BE200
5F407F4000
5F44F70000
5F6EF50000
5FECCE1000
5FE23F9000
5F5009F300
5F4001EC00
5F40006F60
ENDCHAR
STARTCHAR Lacute
ENCODING 313
SWIDTH 486 0
DWIDTH 10 0
BBX 9 17 1 0
BITMAP
004B100000
07F8100000
2C40000000
0000000000
3F70000000
3F70000000
3F70000000
3F70000000
3F70000000
3F70000000
3F70000000
3F70000000
3F70000000
3F70000000
3F70000000
3F70000000
3FFFFFFF30
ENDCHAR
STARTCHAR lacute
ENCODING 314
SWIDTH 255 0
DWIDTH 5 0
BBX 4 18 1 0
BITMAP
0079
1AE5
6A10
0000
5F40
5F40
5F40
5F40
5F40
5F40
5F40
5F40
5F40
5F40
5F40
5F40
4F60
0BF3
ENDCHAR
STARTCHAR uni013B
ENCODING 315
SWIDTH 486 0
DWIDTH 10 0
BBX 9 18 1 -5
BITMAP
3F70000000
3F70000000
3F70000000
3F70000000
3F70000000
3F70000000
3F70000000
3F70000000
3F70000000
3F70000000
3F70000000
3F70000000
3FFFFFFF30
0000000000
0003D80000
00004F4000
00016F2000
001EB50000
ENDCHAR
STARTCHAR uni013C
ENCODING 316
SWIDTH 255 0
DWIDTH 5 0
BBX 4 19 1 -5
BITMAP
5F40
5F40
5F40
5F40
5F40
5F40
5F40
5F40
5F40
5F40
5F40
5F40
4F60
0BF3
0000
0CB2
01C9
13D8
AD80
ENDCHAR
STARTCHAR Lcaron
ENCODING 317
SWIDTH 486 0
DWIDTH 10 0
BBX 9 14 1 0
BITMAP
000006C000
3F7005B000
3F70059000
3F70058000
3F70000000
3F70000000
3F70000000
3F70000000
3F70000000
3F70000000
3F70000000
3F70000000
3F70000000
3FFFFFFF30
ENDCHAR
STARTCHAR lcaron
ENCODING 318
SWIDTH 270 0
DWIDTH 5 0
BBX 5 15 1 0
BITMAP
000A80
5F4970
5F4950
5F4940
5F4000
5F4000
5F4000
5F4000
5F4000
5F4000
5F4000
5F4000
5F4000
4F6000
0BF300
ENDCHAR
STARTCHAR Ldot
ENCODING 319
SWIDTH 486 0
DWIDTH 10 0
BBX 9 13 1 0
BITMAP
3F70000000
3F70000000
3F70000000
3F70000000
3F7005E500
3F7009FA00
3F7005E600
3F70000000
3F70000000
3F70000000
3F70000000
3F70000000
3FFFFFFF30
ENDCHAR
STARTCHAR ldot
ENCODING 320
SWIDTH 362 0
DWIDTH 7 0
BBX 7 14 1 0
BITMAP
5F400000
5F400000
5F400000
5F400000
5F400000
5F40BC10
5F41FF30
5F40BD10
5F400000
5F400000
5F400000
5F400000
4F600000
0BF30000
ENDCHAR
STARTCHAR Lslash
ENCODING 321
SWIDTH 489 0
DWIDTH 10 0
BBX 10 13 0 0
BITMAP
01F8000000
01F8000000
01F8000000
01F8000000
01F8005200
01F84CE500
01FED61000
7DFA000000
85F8000000
01F8000000
01F8000000
01F8000000
01FFFFFFF4
ENDCHAR
STARTCHAR lslash
ENCODING 322
SWIDTH 262 0
DWIDTH 5 0
BBX 5 14 0 0
BITMAP
04F500
04F500
04F500
04F500
04F640
04FE90
7DF600
67F500
04F500
04F500
04F500
04F500
03F700
00AF40
ENDCHAR
STARTCHAR Nacute
ENCODING 323
SWIDTH 647 0
DWIDTH 13 0
BBX 11 17 1 0
BITMAP
0000005B1000
000008F70000
00004C200000
000000000000
3FC000007F20
3FF600007F20
3FBE10007F20
3F5E80007F20
3F58F2007F20
3F51EB007F20
3F605F407F20
3F600CD06F20
3F6003F76F20
3F60009E6F20
3F60001EBF20
3F600007FF20
3F600000DF20
ENDCHAR
STARTCHAR nacute
ENCODING 324
SWIDTH 547 0
DWIDTH 11 0
BBX 9 15 1 0
BITMAP
000001B300
00000BE400
0000AE3000
0001B30000
0000000000
5F17DEC300
5FC712CE00
5F60005F40
5F40004F60
5F40003F60
5F40003F60
5F40003F60
5F40003F60
5F40003F60
5F40003F60
ENDCHAR
STARTCHAR uni0145
ENCODING 325
SWIDTH 647 0
DWIDTH 13 0
BBX 11 18 1 -5
BITMAP
3FC000007F20
3FF600007F20
3FBE10007F20
3F5E80007F20
3F58F2007F20
3F51EB007F20
3F605F407F20
3F600CD06F20
3F6003F76F20
3F60009E6F20
3F60001EBF20
3F600007FF20
3F600000DF20
000000000000
00006D600000
000006F10000
000028E00000
0004EA300000
ENDCHAR
STARTCHAR uni0146
ENCODING 326
SWIDTH 547 0
DWIDTH 11 0
BBX 9 15 1 -5
BITMAP
5F17DEC300
5FC712CE00
5F60005F40
5F40004F60
5F40003F60
5F40003F60
5F40003F60
5F40003F60
5F40003F60
5F40003F60
0000000000
0006D60000
00006F1000
00028E0000
004EA30000
ENDCHAR
STARTCHAR Ncaron
ENCODING 327
SWIDTH 647 0
DWIDTH 13 0
BBX 11 17 1 0
BITMAP
003B101B3000
0009C3CA0000
0000BFC00000
000000000000
3FC000007F20
3FF600007F20
3FBE10007F20
3F5E80007F20
3F58F2007F20
3F51EB007F20
3F605F407F20
3F600CD06F20
3F6003F76F20
3F60009E6F20
3F60001EBF20
3F600007FF20
3F600000DF20
ENDCHAR
STARTCHAR ncaron
ENCODING 328
SWIDTH 547 0
DWIDTH 11 0
BBX 9 14 1 0
BITMAP
01C2006900
006E48E200
0007FE3000
0000000000
5F17DEC300
5FC712CE00
5F60005F40
5F40004F60
5F40003F60
5F40003F60
5F40003F60
5F40003F60
5F40003F60
5F40003F60
ENDCHAR
STARTCHAR napostrophe
ENCODING 329
SWIDTH 775 0
DWIDTH 16 0
BBX 13 14 1 0
BITMAP
4E700000000000
4EC00000000000
05B00000000000
0B600000000000
8A000E73BED800
10000EDB317F60
00000EC0000EB0
00000EB0000CC0
00000EB0000CD0
00000EB0000CD0
00000EB0000CD0
00000EB0000CD0
00000EB0000CD0
00000EB0000CD0
ENDCHAR
STARTCHAR uni014A
ENCODING 330
SWIDTH 635 0
DWIDTH 13 0
BBX 11 13 1 0
BITMAP
3F62AEEC5000
3FBC4129F600
3FB00000CE10
3F7000006F50
3F7000003F80
3F7000002F90
3F7000001FA0
3F7000001F90
3F7000002F80
3F7000004F60
3F7000008F20
3F700013EA00
2B5004EE9100
ENDCHAR
STARTCHAR uni014B
ENCODING 331
SWIDTH 547 0
DWIDTH 11 0
BBX 9 13 1 -3
BITMAP
5F16DEC400
5FA812CE10
5F70005F40
5F40004F60
5F40003F60
5F40003F60
5F40003F60
5F40003F60
5F40003F60
5F40003F60
0000004F50
0000109F20
00007FD600
ENDCHAR
STARTCHAR Omacron
ENCODING 332
SWIDTH 664 0
DWIDTH 13 0
BBX 12 15 1 0
BITMAP
001FFFFF5000
000000000000
0029DFEA3000
03EC3029F600
1DC100009F30
6F4000001EB0
BE0000000BF1
DC00000008F3
EC00000008F4
DC00000008F3
BF0000000BF0
6F5000001FA0
1DD100009F30
03EC3029F600
0019DFEA3000
ENDCHAR
STARTCHAR omacron
ENCODING 333
SWIDTH 542 0
DWIDTH 11 0
BBX 10 13 0 0
BITMAP
004FFFFF10
0000000000
0000000000
0018DFD700
01CD305EA0
08F30006F5
0DC00000FB
1FA00000DD
1FA00000DD
0DC00000EB
08F30006F5
01CD305EA0
0018DFD700
ENDCHAR
STARTCHAR uni014E
ENCODING 334
SWIDTH 664 0
DWIDTH 13 0
BBX 12 17 1 0
BITMAP
002C00086000
000D714E2000
0002BED50000
000000000000
0029DFEA3000
03EC3029F600
1DC100009F30
6F4000001EB0
BE0000000BF1
DC00000008F3
EC00000008F4
DC00000008F3
BF0000000BF0
6F5000001FA0
1DD100009F30
03EC3029F600
0019DFEA3000
ENDCHAR
STARTCHAR uni014F
ENCODING 335
SWIDTH 542 0
DWIDTH 11 0
BBX 10 14 0 0
BITMAP
0087000960
004E415E20
0006DEC400
0000000000
0018DFD700
01CD305EA0
08F30006F5
0DC00000FB
1FA00000DD
1FA00000DD
0DC00000EB
08F30006F5
01CD305EA0
0018DFD700
ENDCHAR
STARTCHAR Ohungarumlaut
ENCODING 336
SWIDTH 664 0
DWIDTH 13 0
BBX 12 17 1 0
BITMAP
00001C40A600
00009B06D100
0002C11C2000
000000000000
0029DFEA3000
03EC3029F600
1DC100009F30
6F4000001EB0
BE0000000BF1
DC00000008F3
EC00000008F4
DC00000008F3
BF0000000BF0
6F5000001FA0
1DD100009F30
03EC3029F600
0019DFEA3000
ENDCHAR
STARTCHAR ohungarumlaut
ENCODING 337
SWIDTH 542 0
DWIDTH 11 0
BBX 10 16 0 0
BITMAP
0000000010
00001C22E3
00008D0AB0
0001E42E20
0004A02500
0000000000
0018DFD700
01CD305EA0
08F30006F5
0DC00000FB
1FA00000DD
1FA00000DD
0DC00000EB
08F30006F5
01CD305EA0
0018DFD700
ENDCHAR
STARTCHAR OE
ENCODING 338
SWIDTH 847 0
DWIDTH 17 0
BBX 15 13 1 0
BITMAP
0017CEFFFFFFFFC0
02DD6207F4111110
1DD10007F3000000
7F500007F3000000
BF000007F3000000
DC000007F3000000
EC000007FFFFFD00
DD000007F3000000
BF000007F3000000
6F500007F3000000
0CD10007F3000000
02DD6207F4111110
0017CEFFFFFFFFE0
ENDCHAR
STARTCHAR oe
ENCODING 339
SWIDTH 839 0
DWIDTH 17 0
BBX 16 10 0 0
BITMAP
0018DEB4006DEC40
01DD316F48C207F3
08F30008DF2000BA
0DC00002FB00008D
1FA00000FD9999CF
1FA00000FC666666
0EC00002FC000000
08F30008EF300000
01DD316F48D41283
0019EEC4006DFDA3
ENDCHAR
STARTCHAR Racute
ENCODING 340
SWIDTH 569 0
DWIDTH 11 0
BBX 10 17 1 0
BITMAP
000003C200
00006F9100
0001C40000
0000000000
3FFFFEC710
3F70015EC0
3F700005F5
3F700003F7
3F700006F6
3F70016EE1
3FFFFFFD30
3F700DC000
3F7006F400
3F7000CC00
3F70005F60
3F70000CE1
3F700004F9
ENDCHAR
STARTCHAR racute
ENCODING 341
SWIDTH 347 0
DWIDTH 7 0
BBX 6 15 1 0
BITMAP
000069
0004FB
003EA0
007900
000000
5F18EC
5FA611
5F7000
5F4000
5F4000
5F4000
5F4000
5F4000
5F4000
5F4000
ENDCHAR
STARTCHAR uni0156
ENCODING 342
SWIDTH 569 0
DWIDTH 11 0
BBX 10 18 1 -5
BITMAP
3FFFFEC710
3F70015EC0
3F700005F5
3F700003F7
3F700006F6
3F70016EE1
3FFFFFFD30
3F700DC000
3F7006F400
3F7000CC00
3F70005F60
3F70000CE1
3F700004F9
0000000000
0000CA1000
00002C8000
00014D7000
000BC70000
ENDCHAR
STARTCHAR uni0157
ENCODING 343
SWIDTH 347 0
DWIDTH 7 0
BBX 7 15 0 -5
BITMAP
05F18EC0
05FA6110
05F70000
05F40000
05F40000
05F40000
05F40000
05F40000
05F40000
05F40000
00000000
08C40000
018E0000
02AC0000
6DA20000
ENDCHAR
STARTCHAR Rcaron
ENCODING 344
SWIDTH 569 0
DWIDTH 11 0
BBX 10 17 1 0
BITMAP
00C3008700
006E4AD100
0008FE2000
0000000000
3FFFFEC710
3F70015EC0
3F700005F5
3F700003F7
3F700006F6
3F70016EE1
3FFFFFFD30
3F700DC000
3F7006F400
3F7000CC00
3F70005F60
3F70000CE1
3F700004F9
ENDCHAR
STARTCHAR rcaron
ENCODING 345
SWIDTH 347 0
DWIDTH 7 0
BBX 7 14 1 0
BITMAP
78001B30
1CA3D800
01DF9000
00000000
5F18EC00
5FA61100
5F700000
5F400000
5F400000
5F400000
5F400000
5F400000
5F400000
5F400000
ENDCHAR
STARTCHAR Sacute
ENCODING 346
SWIDTH 534 0
DWIDTH 11 0
BBX 9 17 1 0
BITMAP
000005B100
00008F7000
0003C30000
0000000000
018CFEB600
0CD3028E30
6F40000100
7F40000000
4FC2000000
08FF930000
004BFFC300
000029FF40
0000004FB0
0000000DD0
4200000EB0
DE7202AE30
17CEFE9200
ENDCHAR
STARTCHAR sacute
ENCODING 347
SWIDTH 419 0
DWIDTH 8 0
BBX 8 15 0 0
BITMAP
00000590
00004FB1
0003EA00
00069000
00000000
018DED81
09E314A1
0DA00000
0BE50000
02CFC610
0004BFD2
000004F9
000000EA
2E7116F5
06CEEC50
ENDCHAR
STARTCHAR Scircumflex
ENCODING 348
SWIDTH 534 0
DWIDTH 11 0
BBX 9 17 1 0
BITMAP
000AFC1000
009D3BB000
02B101A400
0000000000
018CFEB600
0CD3028E30
6F40000100
7F40000000
4FC2000000
08FF930000
004BFFC300
000029FF40
0000004FB0
0000000DD0
4200000EB0
DE7202AE30
17CEFE9200
ENDCHAR
STARTCHAR scircumflex
ENCODING 349
SWIDTH 419 0
DWIDTH 8 0
BBX 8 14 0 0
BITMAP
001CFA00
01CB3D90
078001B3
00000000
018DED81
09E314A1
0DA00000
0BE50000
02CFC610
0004BFD2
000004F9
000000EA
2E7116F5
06CEEC50
ENDCHAR
STARTCHAR uni015E
ENCODING 350
SWIDTH 534 0
DWIDTH 11 0
BBX 9 18 1 -5
BITMAP
018CFEB600
0CD3028E30
6F40000100
7F40000000
4FC2000000
08FF930000
004BFFC300
000029FF40
0000004FB0
0000000DD0
4200000EB0
DE7202AE30
17CEFE9200
0004C00000
0009E70000
00019E0000
00029C0000
005DA20000
ENDCHAR
STARTCHAR uni015F
ENCODING 351
SWIDTH 419 0
DWIDTH 8 0
BBX 8 15 0 -5
BITMAP
018DED81
09E314A1
0DA00000
0BE50000
02CFC610
0004BFD2
000004F9
000000EA
2E7116F5
06CEFC50
0004B000
000AE600
00019E00
00029C00
006DA200
ENDCHAR
STARTCHAR Scaron
ENCODING 352
SWIDTH 534 0
DWIDTH 11 0
BBX 9 17 1 0
BITMAP
02B101A400
009D3CB000
000BFC1000
0000000000
018CFEB600
0CD3028E30
6F40000100
7F40000000
4FC2000000
08FF930000
004BFFC300
000029FF40
0000004FB0
0000000DD0
4200000EB0
DE7202AE30
17CEFE9200
ENDCHAR
STARTCHAR scaron
ENCODING 353
SWIDTH 419 0
DWIDTH 8 0
BBX 8 14 0 0
BITMAP
078001B3
01CB3D90
001CFA00
00000000
018DED81
09E314A1
0DA00000
0BE50000
02CFC610
0004BFD2
000004F9
000000EA
2E7116F5
06CEEC50
ENDCHAR
STARTCHAR uni0162
ENCODING 354
SWIDTH 536 0
DWIDTH 11 0
BBX 11 18 0 -5
BITMAP
7FFFFFFFFF20
00007F300000
00007F300000
00007F300000
00007F300000
00007F300000
00007F300000
00007F300000
00007F300000
00007F300000
00007F300000
00007F300000
00008F300000
000069000000
0000CE500000
00002BC00000
00003BA00000
0008D9100000
ENDCHAR
STARTCHAR uni0163
ENCODING 355
SWIDTH 338 0
DWIDTH 7 0
BBX 7 18 0 -5
BITMAP
00D90000
00E90000
00F90000
7FFFFF30
01F90000
01F90000
01F90000
01F90000
01F90000
01F90000
00FA0000
00BE2110
002CFE50
00069000
000BE500
0001AC00
0003BA00
007D9100
ENDCHAR
STARTCHAR Tcaron
ENCODING 356
SWIDTH 536 0
DWIDTH 11 0
BBX 11 17 0 0
BITMAP
005A002C1000
000CB3D70000
0001DF900000
000000000000
7FFFFFFFFF20
00007F300000
00007F300000
00007F300000
00007F300000
00007F300000
00007F300000
00007F300000
00007F300000
00007F300000
00007F300000
00007F300000
00007F300000
ENDCHAR
STARTCHAR tcaron
ENCODING 357
SWIDTH 338 0
DWIDTH 7 0
BBX 7 15 0 0
BITMAP
00000E30
00000E30
00D90D10
00E90D00
00F90000
7FFFFF30
01F90000
01F90000
01F90000
01F90000
01F90000
01F90000
00FA0000
00BE2110
002BEE50
ENDCHAR
STARTCHAR uni0166
ENCODING 358
SWIDTH 536 0
DWIDTH 11 0
BBX 11 13 0 0
BITMAP
7FFFFFFFFF20
3666BF300000
00007F300000
00007F300000
00007F300000
00007F300000
00DFFFFFA000
00007F300000
00007F300000
00007F300000
00007F300000
00007F300000
00007F300000
ENDCHAR
STARTCHAR uni0167
ENCODING 359
SWIDTH 338 0
DWIDTH 7 0
BBX 7 13 0 0
BITMAP
00D90000
00E90000
00F90000
7FFFFF30
01F90000
01F90000
01F90000
7FFFFF30
01F90000
01F90000
00FA0000
00BE2110
002BEE50
ENDCHAR
STARTCHAR Utilde
ENCODING 360
SWIDTH 645 0
DWIDTH 13 0
BBX 11 17 1 0
BITMAP
000210001000
008EEA26D000
00D318ED4000
000000000000
4F6000007F20
4F6000007F20
4F6000007F20
4F6000007F20
4F6000007F20
4F6000007F20
4F6000007F20
4F6000007F20
3F7000007F10
1F9000009E00
0BD10001E900
03EB313BE200
002AEFD92000
ENDCHAR
STARTCHAR utilde
ENCODING 361
SWIDTH 544 0
DWIDTH 11 0
BBX 9 14 1 0
BITMAP
0065001500
0ACBC28B00
0D307ED300
0000000000
8F20006F40
8F20006F40
8F20006F40
8F20006F40
8F20006F40
8F20006F40
7F30006F40
5F4000AF40
1EB119AF40
04CEC52F40
ENDCHAR
STARTCHAR Umacron
ENCODING 362
SWIDTH 645 0
DWIDTH 13 0
BBX 11 15 1 0
BITMAP
004FFFFF2000
000000000000
4F6000007F20
4F6000007F20
4F6000007F20
4F6000007F20
4F6000007F20
4F6000007F20
4F6000007F20
4F6000007F20
3F7000007F10
1F9000009E00
0BD10001E900
03EB313BE200
002AEFD92000
ENDCHAR
STARTCHAR umacron
ENCODING 363
SWIDTH 544 0
DWIDTH 11 0
BBX 9 13 1 0
BITMAP
04FFFFF000
0000000000
0000000000
8F20006F40
8F20006F40
8F20006F40
8F20006F40
8F20006F40
8F20006F40
7F30006F40
5F4000AF40
1EB119AF40
04CEC52F40
ENDCHAR
STARTCHAR Ubreve
ENCODING 364
SWIDTH 645 0
DWIDTH 13 0
BBX 11 17 1 0
BITMAP
005A000B3000
002E516D1000
0004CEC30000
000000000000
4F6000007F20
4F6000007F20
4F6000007F20
4F6000007F20
4F6000007F20
4F6000007F20
4F6000007F20
4F6000007F20
3F7000007F10
1F9000009E00
0BD10001E900
03EB313BE200
002AEFD92000
ENDCHAR
STARTCHAR ubreve
ENCODING 365
SWIDTH 544 0
DWIDTH 11 0
BBX 9 14 1 0
BITMAP
0870009600
04E415E200
006DEC4000
0000000000
8F20006F40
8F20006F40
8F20006F40
8F20006F40
8F20006F40
8F20006F40
7F30006F40
5F4000AF40
1EB119AF40
04CEC52F40
ENDCHAR
STARTCHAR Uring
ENCODING 366
SWIDTH 645 0
DWIDTH 13 0
BBX 11 18 1 0
BITMAP
0001BEA00000
000691B40000
000691B40000
0001BEA00000
000000000000
4F6000007F20
4F6000007F20
4F6000007F20
4F6000007F20
4F6000007F20
4F6000007F20
4F6000007F20
4F6000007F20
3F7000007F10
1F9000009E00
0BD10001E900
03EB313BE200
002AEFD92000
ENDCHAR
STARTCHAR uring
ENCODING 367
SWIDTH 544 0
DWIDTH 11 0
BBX 9 15 1 0
BITMAP
002CEB1000
00A81A8000
00A81A8000
002CEB1000
0000000000
8F20006F40
8F20006F40
8F20006F40
8F20006F40
8F20006F40
8F20006F40
7F30006F40
5F4000AF40
1EB119AF40
04CEC52F40
ENDCHAR
STARTCHAR Uhungarumlaut
ENCODING 368
SWIDTH 645 0
DWIDTH 13 0
BBX 11 17 1 0
BITMAP
00002C21C400
0000C809B000
0005A02C1000
000000000000
4F6000007F20
4F6000007F20
4F6000007F20
4F6000007F20
4F6000007F20
4F6000007F20
4F6000007F20
4F6000007F20
3F7000007F10
1F9000009E00
0BD10001E900
03EB313BE200
002AEFD92000
ENDCHAR
STARTCHAR uhungarumlaut
ENCODING 369
SWIDTH 544 0
DWIDTH 11 0
BBX 9 16 1 0
BITMAP
0000000100
0001C32E30
0007D09B00
001E42E200
004A025000
0000000000
8F20006F40
8F20006F40
8F20006F40
8F20006F40
8F20006F40
8F20006F40
7F30006F40
5F4000AF40
1EB119AF40
04CEC52F40
ENDCHAR
STARTCHAR Uogonek
ENCODING 370
SWIDTH 645 0
DWIDTH 13 0
BBX 11 17 1 -4
BITMAP
4F6000007F20
4F6000007F20
4F6000007F20
4F6000007F20
4F6000007F20
4F6000007F20
4F6000007F20
4F6000007F20
3F7000007F10
1F9000009E00
0BD10001E900
02EB313BD100
002AEFF91000
00003D400000
0000B8000000
0000D9110000
00005EE50000
ENDCHAR
STARTCHAR uogonek
ENCODING 371
SWIDTH 544 0
DWIDTH 11 0
BBX 9 14 1 -4
BITMAP
8F20006F40
8F20006F40
8F20006F40
8F20006F40
8F20006F40
8F20006F40
7F30006F40
5F4000AF40
1EB119AF40
04CEC53F40
000001D700
000008A000
00000AA110
000003DE50
ENDCHAR
STARTCHAR Wcircumflex
ENCODING 372
SWIDTH 786 0
DWIDTH 16 0
BBX 16 17 0 0
BITMAP
0000006FE3000000
000004E58D200000
00000B4007800000
0000000000000000
7F40000EC00007F2
3F70004FF1000AE0
0FA0008CF5000DB0
0CD000C8D8001F80
09F101F59C004F40
06F404F16F106F10
02F708C02F509D00
00EA0C900D90CA00
00BC0F5009C0F700
008F3F1006F3F400
005F9D0002F9F100
001FE90000DEC000
000DF500009F9000
ENDCHAR
STARTCHAR wcircumflex
ENCODING 373
SWIDTH 718 0
DWIDTH 14 0
BBX 14 14 0 0
BITMAP
000002EF700000
00002D94E60000
000096002C1000
00000000000000
6F4000BF2000CB
2F8000EF6001F7
0DC003E9A004F3
09F107B6E008E0
05F40B72F30CB0
01F80F40D71F70
00BB4E00AB4F30
007E8B006E7E00
003FD7002FDA00
000EF3000DF600
ENDCHAR
STARTCHAR Ycircumflex
ENCODING 374
SWIDTH 476 0
DWIDTH 10 0
BBX 10 17 0 0
BITMAP
0008FE2000
006E49D100
00C3008700
0000000000
CE100006F4
4F70000DC0
0CD0005F50
04F600CC00
00CC04F500
005F4BC000
000CDF5000
0005FC0000
0001F90000
0001F90000
0001F90000
0001F90000
0001F90000
ENDCHAR
STARTCHAR ycircumflex
ENCODING 375
SWIDTH 467 0
DWIDTH 9 0
BBX 9 18 0 -4
BITMAP
0007FE3000
006E58E200
01C3006900
0000000000
9F20000AE0
3F70000E90
0CD0005F30
06F3009D00
01E900E800
009E04F300
003F48D000
000C9D8000
0006FF2000
0001EC0000
0001F70000
0006F10000
014E700000
3FE7000000
ENDCHAR
STARTCHAR Ydieresis
ENCODING 376
SWIDTH 476 0
DWIDTH 10 0
BBX 10 16 0 0
BITMAP
02E701D900
02E701D900
0000000000
CE100006F4
4F70000DC0
0CD0005F50
04F600CC00
00CC04F500
005F4BC000
000CDF5000
0005FC0000
0001F90000
0001F90000
0001F90000
0001F90000
0001F90000
ENDCHAR
STARTCHAR Zacute
ENCODING 377
SWIDTH 539 0
DWIDTH 11 0
BBX 10 17 0 0
BITMAP
0000005B10
000008F800
00003C3000
0000000000
07FFFFFFFD
00000008F8
0000002FD1
000000BF40
000006FA00
00001EE100
0000AF6000
0004FC0000
001DF30000
008F800000
03FD100000
0CF4000000
1FFFFFFFFE
ENDCHAR
STARTCHAR zacute
ENCODING 378
SWIDTH 425 0
DWIDTH 9 0
BBX 8 15 0 0
BITMAP
000003B1
00002ED2
0001DC10
0004B100
00000000
0CFFFFFC
000009F7
00003FC0
0000DF30
0008F900
002FD100
00CF4000
06FA0000
2EE10000
6FFFFFFF
ENDCHAR
STARTCHAR Zdotaccent
ENCODING 379
SWIDTH 539 0
DWIDTH 11 0
BBX 10 16 0 0
BITMAP
00005E7000
00005E7000
0000000000
07FFFFFFFD
00000008F8
0000002FD1
000000BF40
000006FA00
00001EE100
0000AF6000
0004FC0000
001DF30000
008F800000
03FD100000
0CF4000000
1FFFFFFFFE
ENDCHAR
STARTCHAR zdotaccent
ENCODING 380
SWIDTH 425 0
DWIDTH 9 0
BBX 8 14 0 0
BITMAP
0004E600
0005E600
00000000
00000000
0CFFFFFC
000009F7
00003FC0
0000DF30
0008F900
002FD100
00CF4000
06FA0000
2EE10000
6FFFFFFF
ENDCHAR
STARTCHAR Zcaron
ENCODING 381
SWIDTH 539 0
DWIDTH 11 0
BBX 10 17 0 0
BITMAP
002B100A40
0008D3BB00
0000AFC100
0000000000
07FFFFFFFD
00000008F8
0000002FD1
000000BF40
000006FA00
00001EE100
0000AF6000
0004FC0000
001DF30000
008F800000
03FD100000
0CF4000000
1FFFFFFFFE
ENDCHAR
STARTCHAR zcaron
ENCODING 382
SWIDTH 425 0
DWIDTH 9 0
BBX 8 14 0 0
BITMAP
04A10096
00AC3BB0
000BFC10
00000000
0CFFFFFC
000009F7
00003FC0
0000DF30
0008F900
002FD100
00CF4000
06FA0000
2EE10000
6FFFFFFF
ENDCHAR
STARTCHAR uni0180
ENCODING 384
SWIDTH 544 0
DWIDTH 11 0
BBX 11 14 0 0
BITMAP
05F400000000
05F400000000
CFFFFFE00000
05F400000000
05F400000000
05F47DFC5000
05FD612AF400
05F50000EC00
05F40000AF00
05F400009F20
05F40000BF00
05F50002FA00
05FD513CE200
05F2AEEA2000
ENDCHAR
STARTCHAR uni018F
ENCODING 399
SWIDTH 658 0
DWIDTH 13 0
BBX 12 13 1 0
BITMAP
006BEFEB4000
04F82028F700
001000008F30
000000001EA0
000000000BE0
0000000009F1
CFFFFFFFFFF2
CE00000009F1
9F1000000CE0
5F5000001F90
0DC000009F30
03EB3029F600
0029DFEA3000
ENDCHAR
STARTCHAR uni0192
ENCODING 402
SWIDTH 497 0
DWIDTH 10 0
BBX 10 15 0 -2
BITMAP
000003BED1
00001EB120
00006F3000
00009E0000
0000BD0000
00AFFFFF40
0000F90000
0001F70000
0003F60000
0005F40000
0006F20000
0008F00000
000CC00000
115F500000
7FE7000000
ENDCHAR
STARTCHAR uni0193
ENCODING 403
SWIDTH 617 0
DWIDTH 12 0
BBX 12 16 1 0
BITMAP
000000006EE2
00000001F710
00000003F400
0017CEEDF900
02DD5103A400
0CD100000000
6F5000000000
BF0000000000
DC0000000000
EC0000000000
DD0004FFFF00
BF0000008F00
6F5000008F00
0DD100008F00
02DD5114CE00
0018CEED8200
ENDCHAR
STARTCHAR Ohorn
ENCODING 416
SWIDTH 664 0
DWIDTH 13 0
BBX 12 16 1 0
BITMAP
0000000003E3
0000000002F5
0000000007F2
0018DFEDDC40
03EC4028FB00
0DD100008F70
6F5000000ED0
AF1000000AF2
DD00000007F4
DC00000007F4
CD00000007F3
AF1000000AF1
5F6000001EB0
0CD100008F30
02DC4028F600
0018DFEA3000
ENDCHAR
STARTCHAR ohorn
ENCODING 417
SWIDTH 542 0
DWIDTH 11 0
BBX 11 13 0 0
BITMAP
000000002E40
000000000F70
000000004F30
0018DFDBC500
01CD305ED100
08F30006F700
0DC00000FC00
1FA00000DD00
1FA00000DD00
0DC00000EA00
08F30006F500
01CD305EA000
0018DFD70000
ENDCHAR
STARTCHAR Uhorn
ENCODING 431
SWIDTH 659 0
DWIDTH 13 0
BBX 13 17 1 0
BITMAP
00000000000210
00000000002F50
00000000000F60
00000000018F20
4F6000007FD400
4F6000007F2000
4F6000007F2000
4F6000007F2000
4F6000007F2000
4F6000007F2000
4F6000007F2000
4F6000007F2000
3F7000007F1000
1F9000009E0000
0BD10001EA0000
03EB313BE20000
002AEFEA200000
ENDCHAR
STARTCHAR uhorn
ENCODING 432
SWIDTH 544 0
DWIDTH 11 0
BBX 11 14 1 0
BITMAP
000000001600
000000006F10
000000006F10
00000002CB00
8F20006FC100
8F20006F4000
8F20006F4000
8F20006F4000
8F20006F4000
8F20006F4000
7F30006F4000
5F4000AF4000
1EB119CF4000
04CFD73F4000
ENDCHAR
STARTCHAR uni01C2
ENCODING 450
SWIDTH 288 0
DWIDTH 6 0
BBX 6 22 0 -6
BITMAP
004400
009800
009800
009800
009800
009800
009800
009800
CFFFF9
009800
009800
009800
CFFFF9
009800
009800
009800
009800
009800
009800
009800
009800
002200
ENDCHAR
STARTCHAR uni01CD
ENCODING 461
SWIDTH 544 0
DWIDTH 11 0
BBX 11 17 0 0
BITMAP
004A101B2000
000BC3D90000
0001CFA00000
000000000000
0000AF800000
0001ECD00000
0005F5F30000
000AC0E90000
001F70AE0000
006F305F4000
00BD001F9000
01F9000CE000
06FFFFFFF400
0BD00001F900
1F800000BE00
6F4000006F40
CE0000002FA0
ENDCHAR
STARTCHAR uni01CE
ENCODING 462
SWIDTH 504 0
DWIDTH 10 0
BBX 8 14 1 0
BITMAP
087002C1
02D94E70
002EF800
00000000
27CEFC40
3C511CE1
000003F7
000001F9
0059CEFA
2DE841FA
CE1000FA
EA0001FA
AE304CEA
1AEE91BA
ENDCHAR
STARTCHAR uni01CF
ENCODING 463
SWIDTH 263 0
DWIDTH 5 0
BBX 7 17 -1 0
BITMAP
2C200A40
08D3BB00
00AFD100
00000000
003F7000
003F7000
003F7000
003F7000
003F7000
003F7000
003F7000
003F7000
003F7000
003F7000
003F7000
003F7000
003F7000
ENDCHAR
STARTCHAR uni01D0
ENCODING 464
SWIDTH 246 0
DWIDTH 5 0
BBX 7 14 -1 0
BITMAP
59001A40
0BB3CA00
01CFB000
00000000
005F4000
005F4000
005F4000
005F4000
005F4000
005F4000
005F4000
005F4000
005F4000
005F4000
ENDCHAR
STARTCHAR uni01D1
ENCODING 465
SWIDTH 664 0
DWIDTH 13 0
BBX 12 17 1 0
BITMAP
001C200A5000
0008D3BB0000
0000AFD10000
000000000000
0029DFEA3000
03EC3029F600
1DC100009F30
6F4000001EB0
BE0000000BF1
DC00000008F3
EC00000008F4
DC00000008F3
BF0000000BF0
6F5000001FA0
1DD100009F30
03EC3029F600
0019DFEA3000
ENDCHAR
STARTCHAR uni01D2
ENCODING 466
SWIDTH 542 0
DWIDTH 11 0
BBX 10 14 0 0
BITMAP
0069001B40
001BB3D900
0001CFA000
0000000000
0018DFD700
01CD305EA0
08F30006F5
0DC00000FB
1FA00000DD
1FA00000DD
0DC00000EB
08F30006F5
01CD305EA0
0018DFD700
ENDCHAR
STARTCHAR uni01D3
ENCODING 467
SWIDTH 645 0
DWIDTH 13 0
BBX 11 17 1 0
BITMAP
004A101B2000
000BC3D90000
0001CFB00000
000000000000
4F6000007F20
4F6000007F20
4F6000007F20
4F6000007F20
4F6000007F20
4F6000007F20
4F6000007F20
4F6000007F20
3F7000007F10
1F9000009E00
0BD10001E900
03EB313BE200
002AEFD92000
ENDCHAR
STARTCHAR uni01D4
ENCODING 468
SWIDTH 544 0
DWIDTH 11 0
BBX 9 14 1 0
BITMAP
069001A400
00BB3CA000
001CFB0000
0000000000
8F20006F40
8F20006F40
8F20006F40
8F20006F40
8F20006F40
8F20006F40
7F30006F40
5F4000AF40
1EB119AF40
04CEC52F40
ENDCHAR
STARTCHAR uni01D5
ENCODING 469
SWIDTH 645 0
DWIDTH 13 0
BBX 11 18 1 0
BITMAP
004FFFFF2000
000000000000
005E203E3000
005E203E3000
000000000000
4F6000007F20
4F6000007F20
4F6000007F20
4F6000007F20
4F6000007F20
4F6000007F20
4F6000007F20
4F6000007F20
3F7000007F10
1F9000009E00
0BD10001E900
03EB313BE200
002AEFD92000
ENDCHAR
STARTCHAR uni01D6
ENCODING 470
SWIDTH 544 0
DWIDTH 11 0
BBX 9 16 1 0
BITMAP
04FFFFF100
0000000000
03E305E200
03E305E200
0000000000
0000000000
8F20006F40
8F20006F40
8F20006F40
8F20006F40
8F20006F40
8F20006F40
7F30006F40
5F4000AF40
1EB119AF40
04CEC52F40
ENDCHAR
STARTCHAR uni01D7
ENCODING 471
SWIDTH 645 0
DWIDTH 13 0
BBX 11 19 1 0
BITMAP
000000B40000
000009C10000
00002C100000
005E203E3000
005E203E3000
000000000000
4F6000007F20
4F6000007F20
4F6000007F20
4F6000007F20
4F6000007F20
4F6000007F20
4F6000007F20
4F6000007F20
3F7000007F10
1F9000009E00
0BD10001E900
03EB313BE200
002AEFD92000
ENDCHAR
STARTCHAR uni01D8
ENCODING 472
SWIDTH 544 0
DWIDTH 11 0
BBX 9 17 1 0
BITMAP
00002B1000
0000B90000
0003A00000
03E305E200
03E305E200
0000000000
0000000000
8F20006F40
8F20006F40
8F20006F40
8F20006F40
8F20006F40
8F20006F40
7F30006F40
5F4000AF40
1EB119AF40
04CEC52F40
ENDCHAR
STARTCHAR uni01D9
ENCODING 473
SWIDTH 645 0
DWIDTH 13 0
BBX 11 19 1 0
BITMAP
001B506B0000
0002CEB10000
000000000000
005E203E3000
005E203E3000
000000000000
4F6000007F20
4F6000007F20
4F6000007F20
4F6000007F20
4F6000007F20
4F6000007F20
4F6000007F20
4F6000007F20
3F7000007F10
1F9000009E00
0BD10001E900
03EB313BE200
002AEFD92000
ENDCHAR
STARTCHAR uni01DA
ENCODING 474
SWIDTH 544 0
DWIDTH 11 0
BBX 9 17 1 0
BITMAP
00B506A000
001CEA1000
0000000000
03E305E200
03E305E200
0000000000
0000000000
8F20006F40
8F20006F40
8F20006F40
8F20006F40
8F20006F40
8F20006F40
7F30006F40
5F4000AF40
1EB119AF40
04CEC52F40
ENDCHAR
STARTCHAR uni01DB
ENCODING 475
SWIDTH 645 0
DWIDTH 13 0
BBX 11 19 1 0
BITMAP
0005A0000000
0002D7000000
00002C100000
005E203E3000
005E203E3000
000000000000
4F6000007F20
4F6000007F20
4F6000007F20
4F6000007F20
4F6000007F20
4F6000007F20
4F6000007F20
4F6000007F20
3F7000007F10
1F9000009E00
0BD10001E900
03EB313BE200
002AEFD92000
ENDCHAR
STARTCHAR uni01DC
ENCODING 476
SWIDTH 544 0
DWIDTH 11 0
BBX 9 17 1 0
BITMAP
002B100000
000A900000
0001B10000
03E305E200
03E305E200
0000000000
0000000000
8F20006F40
8F20006F40
8F20006F40
8F20006F40
8F20006F40
8F20006F40
7F30006F40
5F4000AF40
1EB119AF40
04CEC52F40
ENDCHAR
STARTCHAR uni01E2
ENCODING 482
SWIDTH 822 0
DWIDTH 16 0
BBX 16 15 0 0
BITMAP
000000006FFFFF00
0000000000000000
0000003FFFFFFFF4
000000BDFB000000
000004F5FB000000
00000CD0FB000000
00005F50FB000000
0000DD00FB000000
0006F500FFFFFF50
001DC000FB000000
007FFFFFFB000000
01EA0000FB000000
08F30000FB000000
1EA00000FB000000
9F300000FFFFFFF7
ENDCHAR
STARTCHAR uni01E3
ENCODING 483
SWIDTH 785 0
DWIDTH 16 0
BBX 14 13 1 0
BITMAP
00006FFFFD0000
00000000000000
00000000000000
17BEEB207DEC40
2C612AC8C207F3
000002FF2000C9
000013FB00009C
018DFCFD9999CE
3ED510EC666665
BE1000CC000000
CC0001CF300000
8F414C9AE51392
19EEB4007DFDA3
ENDCHAR
STARTCHAR Gcaron
ENCODING 486
SWIDTH 617 0
DWIDTH 12 0
BBX 10 17 1 0
BITMAP
00096004A0
0002E76E40
00004FF500
0000000000
0017CEFD92
02DD5114D8
0CD1000010
6F50000000
BF00000000
DC00000000
EC00000000
DD0004FFFF
BF0000008F
6F5000008F
0DD100008F
02DD5114CE
0018CEED82
ENDCHAR
STARTCHAR gcaron
ENCODING 487
SWIDTH 504 0
DWIDTH 10 0
BBX 10 18 0 -4
BITMAP
0078001B30
001CA3D800
0001DF9000
0000000000
002AEFFFFA
02EA12CE10
09F1003F50
0BD0001F70
09F1003F40
02EA12CB00
01CCEE9100
07E2000000
01DEFFFD91
07C00004F9
0E600000CC
1F700002F9
0AE6114DD1
007CEFC710
ENDCHAR
STARTCHAR uni01EA
ENCODING 490
SWIDTH 664 0
DWIDTH 13 0
BBX 12 17 1 -4
BITMAP
0029DFEA3000
03EC3029F600
1DC100009F30
6F4000001EB0
BE0000000BF1
DC00000008F3
EC00000008F4
DC00000008F3
BF0000000BF1
6F5000001FB0
1DD100009F30
03EC3029F500
0029DFFB2000
00001C600000
00008B000000
0000AB110000
00003DE70000
ENDCHAR
STARTCHAR uni01EB
ENCODING 491
SWIDTH 542 0
DWIDTH 11 0
BBX 10 14 0 -4
BITMAP
0018DFD700
01CD305EA0
08F30006F5
0DC00000FB
1FA00000DD
1FA00000DD
0DC00000EB
07F30006F5
00CD305EA0
0018DFE600
00004D1000
0000B60000
0000D81000
00006ED300
ENDCHAR
STARTCHAR uni01F4
ENCODING 500
SWIDTH 617 0
DWIDTH 12 0
BBX 10 17 1 0
BITMAP
0000001B50
000003DC30
00000A7000
0000000000
0017CEFD92
02DD5114D8
0CD1000010
6F50000000
BF00000000
DC00000000
EC00000000
DD0004FFFF
BF0000008F
6F5000008F
0DD100008F
02DD5114CE
0018CEED82
ENDCHAR
STARTCHAR uni01F5
ENCODING 501
SWIDTH 504 0
DWIDTH 10 0
BBX 10 19 0 -4
BITMAP
0000006900
000004FB00
00003EA000
0000790000
0000000000
002AEFFFFA
02EA12CE10
09F1003F50
0BD0001F70
09F1003F40
02EA12CB00
01CCEE9100
07E2000000
01DEFFFD91
07C00004F9
0E600000CC
1F700002F9
0AE6114DD1
007CEFC710
ENDCHAR
STARTCHAR uni01F8
ENCODING 504
SWIDTH 647 0
DWIDTH 13 0
BBX 11 17 1 0
BITMAP
000A60000000
0006E9000000
00002B500000
000000000000
3FC000007F20
3FF600007F20
3FBE10007F20
3F5E80007F20
3F58F2007F20
3F51EB007F20
3F605F407F20
3F600CD06F20
3F6003F76F20
3F60009E6F20
3F60001EBF20
3F600007FF20
3F600000DF20
ENDCHAR
STARTCHAR uni01F9
ENCODING 505
SWIDTH 547 0
DWIDTH 11 0
BBX 9 15 1 0
BITMAP
0078000000
009F600000
0008F50000
0000790000
0000000000
5F17DEC300
5FC712CE00
5F60005F40
5F40004F60
5F40003F60
5F40003F60
5F40003F60
5F40003F60
5F40003F60
5F40003F60
ENDCHAR
STARTCHAR uni01FC
ENCODING 508
SWIDTH 822 0
DWIDTH 16 0
BBX 16 17 0 0
BITMAP
0000000000008800
00000000001BD400
0000000000791000
0000000000000000
0000003FFFFFFFF4
000000BDFB000000
000004F5FB000000
00000CD0FB000000
00005F50FB000000
0000DD00FB000000
0006F500FFFFFF50
001DC000FB000000
007FFFFFFB000000
01EA0000FB000000
08F30000FB000000
1EA00000FB000000
9F300000FFFFFFF7
ENDCHAR
STARTCHAR uni01FD
ENCODING 509
SWIDTH 785 0
DWIDTH 16 0
BBX 14 15 1 0
BITMAP
00000000870000
00000006F90000
0000004F800000
00000087000000
00000000000000
17BEEB207DEC40
2C612AC8C207F3
000002FF2000C9
000013FB00009C
018DFCFD9999CE
3ED510EC666665
BE1000CC000000
CC0001CF300000
8F414C9AE51392
19EEB4007DFDA3
ENDCHAR
STARTCHAR uni0218
ENCODING 536
SWIDTH 534 0
DWIDTH 11 0
BBX 9 18 1 -5
BITMAP
018CFEB600
0CD3028E30
6F40000100
7F40000000
4FC2000000
08FF930000
004BFFC300
000029FF40
0000004FB0
0000000DD0
4200000EB0
DE7202AE30
17CEFE9200
0000000000
0007C50000
00018E0000
00029C0000
005DA20000
ENDCHAR
STARTCHAR uni0219
ENCODING 537
SWIDTH 419 0
DWIDTH 8 0
BBX 8 15 0 -5
BITMAP
018DED81
09E314A1
0DA00000
0BE50000
02CFC610
0004BFD2
000004F9
000000EA
2E7116F5
06CEEC50
00000000
0008C400
00018E00
0002AC00
006DA200
ENDCHAR
STARTCHAR uni021A
ENCODING 538
SWIDTH 536 0
DWIDTH 11 0
BBX 11 18 0 -5
BITMAP
7FFFFFFFFF20
00007F300000
00007F300000
00007F300000
00007F300000
00007F300000
00007F300000
00007F300000
00007F300000
00007F300000
00007F300000
00007F300000
00007F300000
000000000000
00009C400000
000019D00000
00002AB00000
0007D9200000
ENDCHAR
STARTCHAR uni021B
ENCODING 539
SWIDTH 338 0
DWIDTH 7 0
BBX 7 18 0 -5
BITMAP
00D90000
00E90000
00F90000
7FFFFF30
01F90000
01F90000
01F90000
01F90000
01F90000
01F90000
00FA0000
00BE2110
002BEE50
00000000
000AB300
0001AB00
0003BA00
008D9100
ENDCHAR
STARTCHAR uni0237
ENCODING 567
SWIDTH 247 0
DWIDTH 5 0
BBX 5 14 -1 -4
BITMAP
005F40
005F40
005F40
005F40
005F40
005F40
005F40
005F40
005F40
005F40
005F40
006F30
11AE10
9FD400
ENDCHAR
STARTCHAR uni0243
ENCODING 579
SWIDTH 603 0
DWIDTH 12 0
BBX 12 13 0 0
BITMAP
00DFFFED8200
00DC0014DE10
00DC00003F70
00DC00002F70
00DC00007F40
00DD5569E600
00DECCCEC700
00DC00004EB0
13DD333007F3
4BEEBB9006F4
00DC00000AF1
00DC00139F70
00DFFFFDB400
ENDCHAR
STARTCHAR uni0250
ENCODING 592
SWIDTH 512 0
DWIDTH 10 0
BBX 9 10 1 0
BITMAP
8E07DFC300
8FB712DD00
8F50008F10
8F2000CE00
8F204BF500
7FCED92000
6F51000000
4F60000000
0CE4128A00
019EFEA400
ENDCHAR
STARTCHAR uni0251
ENCODING 593
SWIDTH 555 0
DWIDTH 11 0
BBX 10 10 0 0
BITMAP
0019EFB3E7
01CE404CF7
08F40003F7
0DD00003F7
0FB00003F7
1FA00003F7
0EC00003F7
0AF20004F7
02EC205CF7
003BEE91E7
ENDCHAR
STARTCHAR uni0252
ENCODING 594
SWIDTH 555 0
DWIDTH 11 0
BBX 10 10 1 0
BITMAP
5F17DFC400
5FD712BF40
5F50001EB0
5F40000AF0
5F400009F1
5F40000AF1
5F40000CE0
5F40003F90
5FD513DD10
5F3AEEA200
ENDCHAR
STARTCHAR uni0253
ENCODING 595
SWIDTH 555 0
DWIDTH 11 0
BBX 10 14 1 0
BITMAP
01AEE70000
0CD2110000
3F60000000
5F40000000
5F47DFC400
5FD711AF40
5F50001EB0
5F40000BF0
5F400009F1
5F40000AF1
5F40000CE0
5F40003F90
5FC413DD10
5F3AEEA100
ENDCHAR
STARTCHAR uni0254
ENCODING 596
SWIDTH 456 0
DWIDTH 9 0
BBX 9 10 0 0
BITMAP
18DFE92000
09413DD200
000002FA00
000000BF10
0000009F20
0000008F20
000000BF10
000002FA00
2B304DE200
28DFE92000
ENDCHAR
STARTCHAR uni0255
ENCODING 597
SWIDTH 456 0
DWIDTH 9 0
BBX 9 12 0 -2
BITMAP
0017DFE910
00CE513A10
07F4000000
0DC0000000
0F90000000
1F90000000
0EB07DFC20
09FCC31D90
01EF612D70
05F9DFD800
09B0000000
0010000000
ENDCHAR
STARTCHAR uni0256
ENCODING 598
SWIDTH 555 0
DWIDTH 11 0
BBX 12 17 0 -3
BITMAP
00000003F700
00000003F700
00000003F700
00000003F700
0019EEB5F700
01CE414CF700
08F40003F700
0DD00003F700
0FB00003F700
1FA00003F700
0EC00003F700
0AF20004F700
02EC205CF700
003BEE93F700
00000002F700
00000000EA10
000000005DF5
ENDCHAR
STARTCHAR uni0257
ENCODING 599
SWIDTH 555 0
DWIDTH 11 0
BBX 12 14 0 0
BITMAP
000000004CF6
00000000DC10
00000002F700
00000002F700
0019EEB4F700
01CE414CF700
08F40003F700
0DD00003F700
0FB00003F700
1FA00003F700
0EC00003F700
0AF20004F700
02EC205CF700
003BEE91E700
ENDCHAR
STARTCHAR uni0258
ENCODING 600
SWIDTH 496 0
DWIDTH 10 0
BBX 9 10 0 0
BITMAP
005CFE9100
06E612BC10
0E80001E70
3F40000BC0
4FFFFFFFE0
0000000BE0
0000000DC0
0000005F70
056205EC00
05BDFD8100
ENDCHAR
STARTCHAR uni0259
ENCODING 601
SWIDTH 496 0
DWIDTH 10 0
BBX 9 10 0 0
BITMAP
03ADFE9100
048313CD10
0000002E70
0000000BC0
4FFFFFFFE0
4F30000BE0
2F50000DC0
0C90004F70
04F713DC10
004CFE9100
ENDCHAR
STARTCHAR uni025A
ENCODING 602
SWIDTH 648 0
DWIDTH 13 0
BBX 14 10 0 0
BITMAP
03ADFD81000000
039315EB000000
0000005F658100
0000000EFCE520
000016BFF05EE2
005AEB59F00000
2ED7200AD00000
0E70001E700000
05E612AD100000
004CEEA1000000
ENDCHAR
STARTCHAR uni025B
ENCODING 603
SWIDTH 440 0
DWIDTH 9 0
BBX 8 10 1 0
BITMAP
04BEEC70
4FA11560
7F300000
2EA20000
05FFF800
7F610000
EB000000
EC000000
7F8114A1
05CEED81
ENDCHAR
STARTCHAR uni025C
ENCODING 604
SWIDTH 456 0
DWIDTH 9 0
BBX 9 10 0 0
BITMAP
05BEEC6000
056218F500
000001F800
000019E300
006FFF7000
000015F900
0000009F10
000000AF10
0A5116F800
18CEEC6000
ENDCHAR
STARTCHAR uni025E
ENCODING 606
SWIDTH 546 0
DWIDTH 11 0
BBX 9 10 1 0
BITMAP
04BEFC7000
4FA115EB00
7F30005F70
2EA2000DC0
05FFD00BF0
7F61000BF0
EB00000DC0
EB00004F70
7F8104EC00
05BEFD7000
ENDCHAR
STARTCHAR uni025F
ENCODING 607
SWIDTH 270 0
DWIDTH 5 0
BBX 7 14 -1 -4
BITMAP
002F8000
002F8000
002F8000
003F8000
0DFFFF30
002F8000
002F8000
002F8000
002F8000
002F8000
002F8000
002F6000
007F3000
6FD70000
ENDCHAR
STARTCHAR uni0260
ENCODING 608
SWIDTH 559 0
DWIDTH 11 0
BBX 11 16 1 -4
BITMAP
00000004CF70
0000000EC100
018EFB4F8000
0CE403CF8000
7F50002F8000
CE00002F8000
EB00002F8000
FB00002F8000
DD00002F8000
8F30003F8000
1EC304CF8000
02AEE93F8000
0000002F7000
0000006F5000
0A5114EC0000
17CEEC810000
ENDCHAR
STARTCHAR uni0261
ENCODING 609
SWIDTH 559 0
DWIDTH 11 0
BBX 9 14 1 -4
BITMAP
018EFB3E80
0CE403CF80
7F50002F80
CE00002F80
EB00002F80
FB00002F80
DD00002F80
8F30003F80
1EC304CF80
02AEE93F80
0000002F70
0000006F40
0A5114EC00
17CEEC7100
ENDCHAR
STARTCHAR uni0262
ENCODING 610
SWIDTH 497 0
DWIDTH 10 0
BBX 9 10 0 0
BITMAP
0007DFEB30
00CE512950
08F4000000
0DC0000000
1FA0000000
1FA00AFFE0
0DC00008E0
08F30008E0
01CD402BE0
0018DFEA30
ENDCHAR
STARTCHAR uni0263
ENCODING 611
SWIDTH 467 0
DWIDTH 9 0
BBX 9 14 0 -4
BITMAP
9F20000AD0
3F70001F80
0CD0006F20
06F300CB00
01E802F600
009E07E100
003F4D9000
000CDF4000
0007FD0000
000CCF3000
004F3C9000
007F09D000
005F2AC000
000AED3000
ENDCHAR
STARTCHAR uni0264
ENCODING 612
SWIDTH 511 0
DWIDTH 10 0
BBX 10 10 0 0
BITMAP
6EE8107DF9
113DCAE511
0004FF7000
001CECE200
009F32EC00
02F9005F50
05F4001F80
04F5002F70
00DC21AE20
002AEEB400
ENDCHAR
STARTCHAR uni0265
ENCODING 613
SWIDTH 547 0
DWIDTH 11 0
BBX 9 14 1 -4
BITMAP
8F20005F40
8F20005F40
8F20005F40
8F20005F40
8F20005F40
8F20005F40
7F30005F40
5F40008F40
1EB118CF40
04CFD65F40
0000005F40
0000005F40
0000005F40
0000005F40
ENDCHAR
STARTCHAR uni0266
ENCODING 614
SWIDTH 544 0
DWIDTH 11 0
BBX 9 14 1 0
BITMAP
01AEE70000
0CD3110000
3F70000000
5F40000000
5F43CEC300
5F7912CE00
5FB0005F40
5F40004F60
5F40003F60
5F40003F60
5F40003F60
5F40003F60
5F40003F60
5F40003F60
ENDCHAR
STARTCHAR uni0267
ENCODING 615
SWIDTH 544 0
DWIDTH 11 0
BBX 9 17 1 -3
BITMAP
01AEE70000
0CD3110000
3F70000000
5F40000000
5F43CEC300
5F7912CE10
5FB0005F40
5F40004F60
5F40003F60
5F40003F60
5F40003F60
5F40003F60
5F40003F60
5F40003F60
0000004F50
0000109F20
00007FD600
ENDCHAR
STARTCHAR uni0268
ENCODING 616
SWIDTH 270 0
DWIDTH 5 0
BBX 6 14 0 0
BITMAP
03E900
03E900
000000
000000
02F800
02F800
02F800
02F800
CFFFF3
02F800
02F800
02F800
02F800
02F800
ENDCHAR
STARTCHAR uni026A
ENCODING 618
SWIDTH 341 0
DWIDTH 7 0
BBX 6 10 0 0
BITMAP
1FFFFE
006F40
006F40
006F40
006F40
006F40
006F40
006F40
006F40
1FFFFE
ENDCHAR
STARTCHAR uni026C
ENCODING 620
SWIDTH 302 0
DWIDTH 6 0
BBX 7 14 -1 0
BITMAP
0006F400
0006F400
0006F400
0006F400
0268F400
0EAEF400
1F27F400
06DFFFE0
0006F400
0006F400
0006F400
0006F400
0005F500
0001CF30
ENDCHAR
STARTCHAR uni026D
ENCODING 621
SWIDTH 255 0
DWIDTH 5 0
BBX 5 17 1 -3
BITMAP
5F4000
5F4000
5F4000
5F4000
5F4000
5F4000
5F4000
5F4000
5F4000
5F4000
5F4000
5F4000
5F4000
5F4000
5F4000
2F8100
07EE30
ENDCHAR
STARTCHAR uni026E
ENCODING 622
SWIDTH 577 0
DWIDTH 12 0
BBX 11 18 1 -4
BITMAP
5F4000000000
5F4000000000
5F4000000000
5F4000000000
5FFFFFFFFB00
5F400009F400
5F40005F8000
5F4002EC0000
5F400CE20000
5F408F600000
5F40DEFE8000
5F401017F800
5F400000BE00
5F4000008F20
000000009F10
00100001DC00
009C412AF300
0029DFEB2000
ENDCHAR
STARTCHAR uni026F
ENCODING 623
SWIDTH 829 0
DWIDTH 17 0
BBX 14 10 1 0
BITMAP
7F30009F1000AE
7F30009F1000AE
7F30009F1000AE
7F30009F1000AE
7F30009F1000AE
7F30009F1000AE
6F30009F1000AE
5F5001DF3001DE
1EC22B7FA12BCE
04CEC405DFB37E
ENDCHAR
STARTCHAR uni0270
ENCODING 624
SWIDTH 829 0
DWIDTH 17 0
BBX 14 14 1 -4
BITMAP
7F30009F1000AE
7F30009F1000AE
7F30009F1000AE
7F30009F1000AE
7F30009F1000AE
7F30009F1000AE
6F30009F1000AE
5F5001DF3001DE
1EC22B7FA13BCE
04CEC405DEB3AE
000000000000AE
000000000000AE
000000000000AE
000000000000AE
ENDCHAR
STARTCHAR uni0271
ENCODING 625
SWIDTH 829 0
DWIDTH 17 0
BBX 15 13 1 -3
BITMAP
5F16DEB107EEA100
5FA713EBA714F900
5F70009F7000BE00
5F40007F30009F10
5F40007F30009F10
5F40007F30009F10
5F40007F30009F10
5F40007F30009F10
5F40007F30009F10
5F40007F30009F10
0000000000009F00
000000000011DB00
0000000000AFC200
ENDCHAR
STARTCHAR uni0272
ENCODING 626
SWIDTH 547 0
DWIDTH 11 0
BBX 11 13 -1 -3
BITMAP
005F16DEC300
005FA812CE00
005F70005F40
005F40004F60
005F40003F60
005F40003F60
005F40003F60
005F40003F60
005F40003F60
005F40003F60
006F30000000
019E10000000
4FD600000000
ENDCHAR
STARTCHAR uni0273
ENCODING 627
SWIDTH 547 0
DWIDTH 11 0
BBX 11 13 1 -3
BITMAP
5F16DEC30000
5FA812CE1000
5F70005F4000
5F40003F6000
5F40003F6000
5F40003F6000
5F40003F6000
5F40003F6000
5F40003F6000
5F40003F6000
0000002F7000
0000000EA100
00000005DF40
ENDCHAR
STARTCHAR uni0274
ENCODING 628
SWIDTH 543 0
DWIDTH 11 0
BBX 9 10 1 0
BITMAP
5F80005F30
5FF2005F30
5FCA005F30
5F5F405F30
5F2AD05F30
5F31E75F30
5F306E5F30
5F300CCF30
5F3003FF30
5F30009F30
ENDCHAR
STARTCHAR uni0275
ENCODING 629
SWIDTH 542 0
DWIDTH 11 0
BBX 10 10 0 0
BITMAP
0019DFD700
01DC314DB0
08E10003F6
0DA00000CB
1FFFFFFFFD
1F900000BD
0EB00000DB
08F30005F6
01DD304EB0
0019DFD700
ENDCHAR
STARTCHAR uni0276
ENCODING 630
SWIDTH 699 0
DWIDTH 14 0
BBX 14 10 0 0
BITMAP
0017DFFDDDDDD5
01CE511DC00000
08F4000DC00000
0DD0000DC00000
1FA0000DFFFFA0
1FA0000DC00000
0DD0000DC00000
08F4000DC00000
01CE511DC00000
0018DFFDDDDDD7
ENDCHAR
STARTCHAR uni0278
ENCODING 632
SWIDTH 680 0
DWIDTH 14 0
BBX 12 18 1 -4
BITMAP
00000E800000
00000E800000
00000E800000
00000E800000
005BEFFD9200
09F72E93BE40
6F600E800BE1
DD000E8004F7
FA000E8001FA
FA000E8001FA
DD000E8004F7
6F600E800CE1
09F71E93BE40
005BEFFD9200
00000E800000
00000E800000
00000E800000
00000E800000
ENDCHAR
STARTCHAR uni0279
ENCODING 633
SWIDTH 347 0
DWIDTH 7 0
BBX 6 10 0 0
BITMAP
0005F4
0005F4
0005F4
0005F4
0005F4
0005F4
0005F4
000AF4
1188F4
DE61F4
ENDCHAR
STARTCHAR uni027A
ENCODING 634
SWIDTH 347 0
DWIDTH 7 0
BBX 6 14 0 0
BITMAP
0005F4
0005F4
0005F4
0005F4
0005F4
0005F4
0005F4
0005F4
0005F4
0005F4
0005F4
0009F4
1189F4
DE71F4
ENDCHAR
STARTCHAR uni027B
ENCODING 635
SWIDTH 347 0
DWIDTH 7 0
BBX 8 13 0 -3
BITMAP
0005F400
0005F400
0005F400
0005F400
0005F400
0005F400
0005F400
000AF400
1189F400
DE63F400
0003F500
0001E810
00006DE3
ENDCHAR
STARTCHAR uni027D
ENCODING 637
SWIDTH 347 0
DWIDTH 7 0
BBX 6 13 1 -3
BITMAP
5F17EC
5F9711
5F8000
5F4000
5F4000
5F4000
5F4000
5F4000
5F4000
5F4000
5F5000
2F8100
07EE30
ENDCHAR
STARTCHAR uni027E
ENCODING 638
SWIDTH 334 0
DWIDTH 7 0
BBX 6 10 1 0
BITMAP
01AEF8
0BE301
3F7000
5F5000
5F4000
5F4000
5F4000
5F4000
5F4000
5F4000
ENDCHAR
STARTCHAR uni0280
ENCODING 640
SWIDTH 495 0
DWIDTH 10 0
BBX 9 10 1 0
BITMAP
5FFFEC6000
5F4018F600
5F4000EB00
5F4000EA00
5F4029F500
5FFFFE6000
5F409E2000
5F401EA000
5F4007F500
5F4000DD10
ENDCHAR
STARTCHAR uni0281
ENCODING 641
SWIDTH 495 0
DWIDTH 10 0
BBX 9 10 0 0
BITMAP
2EC0006F40
06F5006F40
00CD106F40
003F806F40
006EFFFF40
06F8106F40
0CE0006F40
0CD0006F40
07F7106F40
007DFFFF40
ENDCHAR
STARTCHAR uni0282
ENCODING 642
SWIDTH 419 0
DWIDTH 8 0
BBX 8 14 0 -4
BITMAP
018DED81
09E314A1
0DA00000
0BE50000
02CFC610
0004BFD2
000004F9
000000EA
1C6116F5
7FBEEC50
6F100000
5F200000
1F710000
06DF5000
ENDCHAR
STARTCHAR uni0283
ENCODING 643
SWIDTH 247 0
DWIDTH 5 0
BBX 7 18 -1 -4
BITMAP
0004CF80
001EA110
004F5000
005F4000
005F4000
005F4000
005F4000
005F4000
005F4000
005F4000
005F4000
005F4000
005F4000
005F4000
005F4000
006F3000
11AE1000
9FD40000
ENDCHAR
STARTCHAR uni0284
ENCODING 644
SWIDTH 270 0
DWIDTH 5 0
BBX 7 18 -1 -4
BITMAP
0003CEC0
000DC110
001F8000
002F8000
002F8000
002F8000
002F8000
003F8000
0DFFFF30
002F8000
002F8000
002F8000
002F8000
002F8000
002F8000
002F6000
007F3000
6FD70000
ENDCHAR
STARTCHAR uni0288
ENCODING 648
SWIDTH 338 0
DWIDTH 7 0
BBX 7 17 0 -4
BITMAP
00960000
00D90000
00E90000
7FFFFF30
01F90000
01F90000
01F90000
01F90000
01F90000
01F90000
01F90000
01F90000
01F90000
01F90000
00FA0000
00BE2110
002BEE50
ENDCHAR
STARTCHAR uni0289
ENCODING 649
SWIDTH 575 0
DWIDTH 12 0
BBX 12 10 0 0
BITMAP
02F80000F900
02F80000F900
02F80000F900
02F80000F900
CFFFFFFFFFF4
02F80000F900
02F80000F900
00FA0004F900
00BE415BD900
002BEE80C900
ENDCHAR
STARTCHAR uni028A
ENCODING 650
SWIDTH 541 0
DWIDTH 11 0
BBX 11 10 0 0
BITMAP
4FFF709FFF10
00AD203E7000
05F50007F200
0BE00001F800
0EB00000DB00
0FA00000DD00
0DC00000EB00
08F20005F600
01CD304EB000
0018DFD70000
ENDCHAR
STARTCHAR uni028B
ENCODING 651
SWIDTH 530 0
DWIDTH 11 0
BBX 9 10 1 0
BITMAP
8F205FD400
8F2001BE20
8F20005F60
8F20002F80
8F20002F90
7F20003F70
7F40006F40
4F7000BE00
0BE317F500
019DEC4000
ENDCHAR
STARTCHAR uni028C
ENCODING 652
SWIDTH 467 0
DWIDTH 9 0
BBX 9 10 0 0
BITMAP
0007FC0000
000CCF2000
003F4E7000
008E0AC000
00D906F200
03F501F800
08E000BD00
0DA0006F30
4F50001F90
9F10000BE0
ENDCHAR
STARTCHAR uni028D
ENCODING 653
SWIDTH 718 0
DWIDTH 14 0
BBX 14 10 0 0
BITMAP
001FF3000DF500
005FD7002FD900
009D9B006D9D00
00D96F10996F20
01F62F40D52F60
05F20D82F20EA0
09D009B6D00AE0
0DA005E99006F3
2F6001FF5003F7
6F3000CF1000EB
ENDCHAR
STARTCHAR uni028E
ENCODING 654
SWIDTH 467 0
DWIDTH 9 0
BBX 9 14 0 0
BITMAP
000002BEB0
00001DA110
00008E1000
0000E80000
0005F40000
000AF90000
001FAE1000
006E2F6000
00CA0AC000
02F505F400
07F100EA00
0DA0008F10
3F50002F70
9F10000CD0
ENDCHAR
STARTCHAR uni028F
ENCODING 655
SWIDTH 415 0
DWIDTH 8 0
BBX 9 10 0 0
BITMAP
BE1000AE10
4F7002F800
0BD009E100
04F51E8000
00BC7E1000
003FF80000
000BF10000
000AF00000
000AF00000
000AF00000
ENDCHAR
STARTCHAR uni0290
ENCODING 656
SWIDTH 425 0
DWIDTH 9 0
BBX 10 13 0 -3
BITMAP
0CFFFFFB00
000009F400
00003F9000
0000CE1000
0006F60000
001EC00000
009F300000
03F9000000
0CE1000000
5FFFFFFC00
000000DC00
000000AE11
0000002CFA
ENDCHAR
STARTCHAR uni0291
ENCODING 657
SWIDTH 449 0
DWIDTH 9 0
BBX 10 12 0 -2
BITMAP
0CFFFFFB00
000009F500
00003FB000
0000DE2000
0008F70000
002FC00000
00CF31AEA0
06F90A81D3
2ED13C03E1
6FFEFFEC40
0000E10000
0001700000
ENDCHAR
STARTCHAR uni0292
ENCODING 658
SWIDTH 425 0
DWIDTH 9 0
BBX 9 14 0 -4
BITMAP
2FFFFFFA00
00000AF400
00005F8000
0002EC0000
000BE20000
007F500000
00EFED6000
00312AF700
000000DE00
0000009F10
000000AF10
100001EB00
AC312BE200
29DFEB3000
ENDCHAR
STARTCHAR uni0294
ENCODING 660
SWIDTH 417 0
DWIDTH 8 0
BBX 8 14 0 0
BITMAP
28DEEB30
CD412AF3
210000EB
000000BE
000000EC
000007F8
00007FC1
000CFC10
001FA000
001F8000
001F8000
001F8000
001F8000
001F8000
ENDCHAR
STARTCHAR uni0295
ENCODING 661
SWIDTH 443 0
DWIDTH 9 0
BBX 9 14 0 0
BITMAP
006CEEC600
09E6117F50
3F80000300
5F50000000
4F70000000
1EE1000000
05FD300000
005EF60000
0002FA0000
0000FA0000
0000FA0000
0000FA0000
0000FA0000
0000FA0000
ENDCHAR
STARTCHAR uni0298
ENCODING 664
SWIDTH 525 0
DWIDTH 11 0
BBX 9 14 1 0
BITMAP
007DEB2000
08E41AE100
1F7001E800
6F20009E00
9E00006F20
BC00004F40
CB07D14F40
CB00004F40
BC00004F40
9D00006F20
6F10009E00
2F6000E900
08E319E200
007DEB3000
ENDCHAR
STARTCHAR uni0299
ENCODING 665
SWIDTH 508 0
DWIDTH 10 0
BBX 9 10 1 0
BITMAP
5FFFFD9100
5F4004EB00
5F4000AE00
5F4014E900
5FFFFFC100
5F4003DD10
5F40005F40
5F40006F50
5F4003DD10
5FFFFDA200
ENDCHAR
STARTCHAR uni029C
ENCODING 668
SWIDTH 562 0
DWIDTH 11 0
BBX 9 10 1 0
BITMAP
5F40000F90
5F40000F90
5F40000F90
5F40000F90
5FFFFFFF90
5F40000F90
5F40000F90
5F40000F90
5F40000F90
5F40000F90
ENDCHAR
STARTCHAR uni029D
ENCODING 669
SWIDTH 284 0
DWIDTH 6 0
BBX 8 20 -2 -6
BITMAP
0000AE30
0000AE30
00000000
00000000
00009F10
00009F10
00009F10
00009F10
00009F10
00009F10
00009F10
00009F10
00009F10
00009F10
2BEDDF00
9C14EF10
8D14FFB0
1AEE83F7
0000009D
00000010
ENDCHAR
STARTCHAR uni029F
ENCODING 671
SWIDTH 411 0
DWIDTH 8 0
BBX 7 10 1 0
BITMAP
5F400000
5F400000
5F400000
5F400000
5F400000
5F400000
5F400000
5F400000
5F400000
5FFFFFB0
ENDCHAR
STARTCHAR uni02A1
ENCODING 673
SWIDTH 441 0
DWIDTH 9 0
BBX 9 14 0 0
BITMAP
07CEEC5000
7E6117F600
130000AE10
0000007F30
0000009F20
000001EC00
00000BE300
0002CE4000
CFFFFFFF70
000DC00000
000DC00000
000DC00000
000DC00000
000DC00000
ENDCHAR
STARTCHAR uni02A2
ENCODING 674
SWIDTH 441 0
DWIDTH 9 0
BBX 9 14 0 0
BITMAP
006CEEB600
09E6117F50
3F70000300
6F40000000
5F60000000
1EC0000000
05F9000000
005FA10000
9FFFFFFFA0
0000FA0000
0000FA0000
0000FA0000
0000FA0000
0000FA0000
ENDCHAR
STARTCHAR h.sups
ENCODING 688
SWIDTH 366 0
DWIDTH 7 0
BBX 6 9 1 8
BITMAP
E40000
E40000
E40000
E6CEA0
EB22E4
E400C6
E400C6
E400C6
E400C6
ENDCHAR
STARTCHAR j.sups
ENCODING 690
SWIDTH 169 0
DWIDTH 3 0
BBX 4 12 -1 5
BITMAP
00D5
00D5
0000
00E5
00E5
00E5
00E5
00E5
00E5
00E5
01F3
6FA0
ENDCHAR
STARTCHAR r.sups
ENCODING 691
SWIDTH 240 0
DWIDTH 5 0
BBX 4 6 1 8
BITMAP
C5DA
EC20
E500
E400
E400
E400
ENDCHAR
STARTCHAR w.sups
ENCODING 695
SWIDTH 487 0
DWIDTH 10 0
BBX 10 6 0 8
BITMAP
8B00C900D4
4E02DD02E0
0E468C36B0
0A8A487A60
05BD14BE20
01FB00ED00
ENDCHAR
STARTCHAR y.sups
ENCODING 696
SWIDTH 319 0
DWIDTH 6 0
BBX 7 9 0 5
BITMAP
A9002F10
3E107A00
0C50C500
06B2E000
01E79000
008F4000
005E0000
01C70000
6E900000
ENDCHAR
STARTCHAR uni02B9
ENCODING 697
SWIDTH 249 0
DWIDTH 5 0
BBX 3 5 1 9
BITMAP
0E90
1F70
2F40
3F10
5C00
ENDCHAR
STARTCHAR uni02BB
ENCODING 699
SWIDTH 249 0
DWIDTH 5 0
BBX 3 6 1 9
BITMAP
0010
0A80
6B00
B400
CE40
7E40
ENDCHAR
STARTCHAR uni02BC
ENCODING 700
SWIDTH 249 0
DWIDTH 5 0
BBX 3 6 1 8
BITMAP
4E70
4EC0
05B0
0B60
8A00
1000
ENDCHAR
STARTCHAR uni02BE
ENCODING 702
SWIDTH 166 0
DWIDTH 3 0
BBX 3 4 0 11
BITMAP
6D50
03E0
03E0
6D50
ENDCHAR
STARTCHAR uni02BF
ENCODING 703
SWIDTH 166 0
DWIDTH 3 0
BBX 3 4 0 11
BITMAP
2CA0
9800
9800
2CA0
ENDCHAR
STARTCHAR uni02C1
ENCODING 705
SWIDTH 302 0
DWIDTH 6 0
BBX 6 10 0 7
BITMAP
07DFB2
5E4058
8B0000
6D0000
0CB100
01AD00
005E00
005E00
005E00
002700
ENDCHAR
STARTCHAR circumflex
ENCODING 710
SWIDTH 542 0
DWIDTH 11 0
BBX 7 3 2 11
BITMAP
01CFA000
1BB3D900
69001B40
ENDCHAR
STARTCHAR caron
ENCODING 711
SWIDTH 542 0
DWIDTH 11 0
BBX 7 3 2 11
BITMAP
69001B40
1BB3D900
01CFA000
ENDCHAR
STARTCHAR uni02C8
ENCODING 712
SWIDTH 114 0
DWIDTH 2 0
BBX 2 4 0 11
BITMAP
8C
8C
7C
7B
ENDCHAR
STARTCHAR uni02C9
ENCODING 713
SWIDTH 277 0
DWIDTH 6 0
BBX 6 1 0 12
BITMAP
DFFFF7
ENDCHAR
STARTCHAR uni02CA
ENCODING 714
SWIDTH 225 0
DWIDTH 5 0
BBX 4 4 1 11
BITMAP
0087
06F9
4F80
8700
ENDCHAR
STARTCHAR uni02CB
ENCODING 715
SWIDTH 225 0
DWIDTH 5 0
BBX 5 4 -1 11
BITMAP
2B1000
3EC100
03EA00
002C20
ENDCHAR
STARTCHAR uni02CC
ENCODING 716
SWIDTH 114 0
DWIDTH 2 0
BBX 2 4 0 -5
BITMAP
7B
7C
8C
8C
ENDCHAR
STARTCHAR uni02D0
ENCODING 720
SWIDTH 249 0
DWIDTH 5 0
BBX 3 9 1 0
BITMAP
CFB0
5F40
0A00
0000
0000
0000
0A00
5F40
CFB0
ENDCHAR
STARTCHAR uni02D1
ENCODING 721
SWIDTH 249 0
DWIDTH 5 0
BBX 3 3 1 5
BITMAP
CFB0
5F40
0A00
ENDCHAR
STARTCHAR breve
ENCODING 728
SWIDTH 542 0
DWIDTH 11 0
BBX 7 3 2 11
BITMAP
87000960
4E415E20
06DEC400
ENDCHAR
STARTCHAR dotaccent
ENCODING 729
SWIDTH 542 0
DWIDTH 11 0
BBX 3 2 4 12
BITMAP
6E40
6E40
ENDCHAR
STARTCHAR ring
ENCODING 730
SWIDTH 542 0
DWIDTH 11 0
BBX 5 4 3 11
BITMAP
2CEB10
A81A80
A81A80
2CEB10
ENDCHAR
STARTCHAR ogonek
ENCODING 731
SWIDTH 542 0
DWIDTH 11 0
BBX 4 5 4 -4
BITMAP
0110
2D20
A700
D810
6ED3
ENDCHAR
STARTCHAR tilde
ENCODING 732
SWIDTH 542 0
DWIDTH 11 0
BBX 7 3 2 11
BITMAP
06500240
ABBC28B0
D207ED30
ENDCHAR
STARTCHAR hungarumlaut
ENCODING 733
SWIDTH 542 0
DWIDTH 11 0
BBX 7 5 3 11
BITMAP
00000100
01C22E30
08D0AB00
1E42E200
4A025000
ENDCHAR
STARTCHAR uni02DE
ENCODING 734
SWIDTH 151 0
DWIDTH 3 0
BBX 6 4 -2 5
BITMAP
004000
7DF200
B6B810
003DE3
ENDCHAR
STARTCHAR uni02E0
ENCODING 736
SWIDTH 318 0
DWIDTH 6 0
BBX 7 9 0 5
BITMAP
A9003E10
3E008900
0C50D300
06B4C000
01EB6000
00BF2000
02E98000
05C6B000
01CE5000
ENDCHAR
STARTCHAR l.sups
ENCODING 737
SWIDTH 174 0
DWIDTH 3 0
BBX 2 9 1 8
BITMAP
E4
E4
E4
E4
E4
E4
E4
E5
9E
ENDCHAR
STARTCHAR s.sups
ENCODING 738
SWIDTH 283 0
DWIDTH 6 0
BBX 6 6 0 8
BITMAP
09ED80
3E2250
1CB610
004AD1
3613F3
2BEE80
ENDCHAR
STARTCHAR x.sups
ENCODING 739
SWIDTH 307 0
DWIDTH 6 0
BBX 6 6 0 8
BITMAP
5E10C7
09A6C0
01DE30
02EE40
0C76D1
8C00B9
ENDCHAR
STARTCHAR uni0300
ENCODING 768
SWIDTH 0 0
DWIDTH 0 0
BBX 4 4 -3 11
BITMAP
4A00
6F90
05F7
004B
ENDCHAR
STARTCHAR uni0301
ENCODING 769
SWIDTH 0 0
DWIDTH 0 0
BBX 4 4 -1 11
BITMAP
00A4
09F6
7F50
B400
ENDCHAR
STARTCHAR uni0302
ENCODING 770
SWIDTH 0 0
DWIDTH 0 0
BBX 6 3 -3 11
BITMAP
04FF40
4E66E4
B4004B
ENDCHAR
STARTCHAR uni0303
ENCODING 771
SWIDTH 0 0
DWIDTH 0 0
BBX 8 3 -4 11
BITMAP
02630042
2E9D71D4
5A02BEA0
ENDCHAR
STARTCHAR uni0304
ENCODING 772
SWIDTH 0 0
DWIDTH 0 0
BBX 6 1 -3 12
BITMAP
AFFFFA
ENDCHAR
STARTCHAR uni0305
ENCODING 773
SWIDTH 0 0
DWIDTH 0 0
BBX 6 1 -3 12
BITMAP
AFFFFA
ENDCHAR
STARTCHAR uni0306
ENCODING 774
SWIDTH 0 0
DWIDTH 0 0
BBX 7 3 -4 11
BITMAP
1E1001E0
0AA22BA0
01AEEA10
ENDCHAR
STARTCHAR uni0307
ENCODING 775
SWIDTH 0 0
DWIDTH 0 0
BBX 2 2 -1 12
BITMAP
CC
CC
ENDCHAR
STARTCHAR uni0308
ENCODING 776
SWIDTH 0 0
DWIDTH 0 0
BBX 6 2 -3 12
BITMAP
AC00CA
BC00CB
ENDCHAR
STARTCHAR uni0309
ENCODING 777
SWIDTH 0 0
DWIDTH 0 0
BBX 4 4 -2 11
BITMAP
5E91
02D7
02D7
0A90
ENDCHAR
STARTCHAR uni030A
ENCODING 778
SWIDTH 0 0
DWIDTH 0 0
BBX 6 4 -3 11
BITMAP
07EE70
2E22E2
2E22E2
07EE70
ENDCHAR
STARTCHAR uni030B
ENCODING 779
SWIDTH 0 0
DWIDTH 0 0
BBX 6 5 -2 11
BITMAP
000010
07908B
0E71E4
6D08A0
A40620
ENDCHAR
STARTCHAR uni030C
ENCODING 780
SWIDTH 0 0
DWIDTH 0 0
BBX 6 3 -3 11
BITMAP
B4004B
4E66E4
04FF40
ENDCHAR
STARTCHAR uni030F
ENCODING 783
SWIDTH 0 0
DWIDTH 0 0
BBX 6 4 -4 11
BITMAP
960960
7D07D0
0D60D6
04A04A
ENDCHAR
STARTCHAR uni0311
ENCODING 785
SWIDTH 0 0
DWIDTH 0 0
BBX 7 3 -4 11
BITMAP
019EE910
0AA22BA0
1E1001E0
ENDCHAR
STARTCHAR uni0312
ENCODING 786
SWIDTH 0 0
DWIDTH 0 0
BBX 3 4 -2 11
BITMAP
0490
0C10
1F90
0C80
ENDCHAR
STARTCHAR uni0313
ENCODING 787
SWIDTH 0 0
DWIDTH 0 0
BBX 2 4 -1 11
BITMAP
9B
9F
1C
A4
ENDCHAR
STARTCHAR uni0318
ENCODING 792
SWIDTH 0 0
DWIDTH 0 0
BBX 4 5 -2 -6
BITMAP
0025
004B
8FFB
004B
0025
ENDCHAR
STARTCHAR uni0319
ENCODING 793
SWIDTH 0 0
DWIDTH 0 0
BBX 4 5 -2 -6
BITMAP
5200
B400
BFF8
B400
5200
ENDCHAR
STARTCHAR uni031A
ENCODING 794
SWIDTH 0 0
DWIDTH 0 0
BBX 4 3 -2 11
BITMAP
8FFB
004B
0049
ENDCHAR
STARTCHAR uni031B
ENCODING 795
SWIDTH 0 0
DWIDTH 0 0
BBX 4 5 -1 9
BITMAP
0002
009C
008D
03D8
1D70
ENDCHAR
STARTCHAR uni031C
ENCODING 796
SWIDTH 0 0
DWIDTH 0 0
BBX 4 4 -2 -5
BITMAP
09E1
3C10
3C10
09E1
ENDCHAR
STARTCHAR uni031D
ENCODING 797
SWIDTH 0 0
DWIDTH 0 0
BBX 4 4 -2 -4
BITMAP
0110
0880
0880
EFFE
ENDCHAR
STARTCHAR uni031E
ENCODING 798
SWIDTH 0 0
DWIDTH 0 0
BBX 4 4 -2 -6
BITMAP
EFFE
0880
0880
0110
ENDCHAR
STARTCHAR uni031F
ENCODING 799
SWIDTH 0 0
DWIDTH 0 0
BBX 4 5 -2 -6
BITMAP
0330
0880
EFFE
0880
0330
ENDCHAR
STARTCHAR uni0320
ENCODING 800
SWIDTH 0 0
DWIDTH 0 0
BBX 4 1 -2 -4
BITMAP
EFFE
ENDCHAR
STARTCHAR uni0323
ENCODING 803
SWIDTH 0 0
DWIDTH 0 0
BBX 2 2 -1 -4
BITMAP
CC
CC
ENDCHAR
STARTCHAR uni0324
ENCODING 804
SWIDTH 0 0
DWIDTH 0 0
BBX 6 2 -3 -4
BITMAP
AC00CA
BC00CB
ENDCHAR
STARTCHAR uni0325
ENCODING 805
SWIDTH 0 0
DWIDTH 0 0
BBX 6 4 -3 -5
BITMAP
07EE70
2E22E2
2E22E2
07EE70
ENDCHAR
STARTCHAR uni0326
ENCODING 806
SWIDTH 0 0
DWIDTH 0 0
BBX 4 4 -2 -5
BITMAP
0DA1
02D7
14E6
CC70
ENDCHAR
STARTCHAR uni0327
ENCODING 807
SWIDTH 0 0
DWIDTH 0 0
BBX 4 6 -2 -5
BITMAP
0230
0A50
1FC2
03D8
14E5
CC60
ENDCHAR
STARTCHAR uni0328
ENCODING 808
SWIDTH 0 0
DWIDTH 0 0
BBX 4 5 -2 -4
BITMAP
0010
07A0
2F10
4F22
1BEB
ENDCHAR
STARTCHAR uni0329
ENCODING 809
SWIDTH 0 0
DWIDTH 0 0
BBX 2 4 -1 -5
BITMAP
99
99
AA
AA
ENDCHAR
STARTCHAR uni032A
ENCODING 810
SWIDTH 0 0
DWIDTH 0 0
BBX 6 3 -3 -5
BITMAP
6FFFF6
680086
670076
ENDCHAR
STARTCHAR uni032C
ENCODING 812
SWIDTH 0 0
DWIDTH 0 0
BBX 6 3 -3 -5
BITMAP
B4004B
4E66E4
04FF40
ENDCHAR
STARTCHAR uni032E
ENCODING 814
SWIDTH 0 0
DWIDTH 0 0
BBX 7 3 -4 -5
BITMAP
1E1001E0
0AA22BA0
01AEEA10
ENDCHAR
STARTCHAR uni032F
ENCODING 815
SWIDTH 0 0
DWIDTH 0 0
BBX 7 3 -4 -5
BITMAP
019EE910
0AA22BA0
1E1001E0
ENDCHAR
STARTCHAR uni0330
ENCODING 816
SWIDTH 0 0
DWIDTH 0 0
BBX 8 3 -4 -5
BITMAP
02630042
2E9D71D4
5A02BEA0
ENDCHAR
STARTCHAR uni0331
ENCODING 817
SWIDTH 0 0
DWIDTH 0 0
BBX 6 1 -3 -3
BITMAP
AFFFFA
ENDCHAR
STARTCHAR uni0334
ENCODING 820
SWIDTH 0 0
DWIDTH 0 0
BBX 8 3 -4 3
BITMAP
02630042
2E9D71D4
5A02BEA0
ENDCHAR
STARTCHAR uni0339
ENCODING 825
SWIDTH 0 0
DWIDTH 0 0
BBX 4 4 -2 -5
BITMAP
1E90
01C3
01C3
1E90
ENDCHAR
STARTCHAR uni033A
ENCODING 826
SWIDTH 0 0
DWIDTH 0 0
BBX 6 3 -3 -5
BITMAP
670076
680086
6FFFF6
ENDCHAR
STARTCHAR uni033B
ENCODING 827
SWIDTH 0 0
DWIDTH 0 0
BBX 6 4 -3 -5
BITMAP
6FFFF6
680086
680086
6FFFF6
ENDCHAR
STARTCHAR uni033C
ENCODING 828
SWIDTH 0 0
DWIDTH 0 0
BBX 8 3 -4 -5
BITMAP
0BE99EB0
4B1AA1B4
01000010
ENDCHAR
STARTCHAR uni033D
ENCODING 829
SWIDTH 0 0
DWIDTH 0 0
BBX 4 4 -2 10
BITMAP
6776
1DD1
6CC6
1111
ENDCHAR
STARTCHAR uni0342
ENCODING 834
SWIDTH 0 0
DWIDTH 0 0
BBX 8 3 -4 11
BITMAP
02630042
2E9D71D4
5A02BEA0
ENDCHAR
STARTCHAR uni0345
ENCODING 837
SWIDTH 0 0
DWIDTH 0 0
BBX 3 3 -1 -4
BITMAP
7600
9A00
4EA0
ENDCHAR
STARTCHAR uni0361
ENCODING 865
SWIDTH 0 0
DWIDTH 0 0
BBX 18 4 -9 10
BITMAP
00037ADEFFEDA73000
07DD8631001368DD70
CA30000000000003AC
100000000000000001
ENDCHAR
STARTCHAR uni0374
ENCODING 884
SWIDTH 249 0
DWIDTH 5 0
BBX 3 5 1 9
BITMAP
0F90
1F70
2F40
3F10
5C00
ENDCHAR
STARTCHAR uni0375
ENCODING 885
SWIDTH 249 0
DWIDTH 5 0
BBX 3 5 1 0
BITMAP
0D40
1F30
4F20
7F10
AE00
ENDCHAR
STARTCHAR uni037A
ENCODING 890
SWIDTH 542 0
DWIDTH 11 0
BBX 4 3 4 -4
BITMAP
1A10
1F30
0AF4
ENDCHAR
STARTCHAR uni037E
ENCODING 894
SWIDTH 249 0
DWIDTH 5 0
BBX 3 14 1 -4
BITMAP
5E50
AFA0
5E50
0000
0000
0000
0000
0000
6E80
6EE0
05C0
1C70
CA00
2000
ENDCHAR
STARTCHAR tonos
ENCODING 900
SWIDTH 542 0
DWIDTH 11 0
BBX 4 4 4 11
BITMAP
07D2
0BD0
0E70
2E20
ENDCHAR
STARTCHAR dieresistonos
ENCODING 901
SWIDTH 542 0
DWIDTH 11 0
BBX 7 4 2 11
BITMAP
0007B000
5D0B8C70
5D0E2C70
002B0000
ENDCHAR
STARTCHAR Alphatonos
ENCODING 902
SWIDTH 566 0
DWIDTH 11 0
BBX 12 13 0 0
BITMAP
5D104FE00000
8D009DF50000
AA00E7CA0000
C604F38E1000
0009E03F5000
000E900EA000
004F5009F100
009F1005F600
00EFFFFFFB00
05F400009F10
0AE000004F60
1EA000000EB0
5F5000000AF1
ENDCHAR
STARTCHAR anoteleia
ENCODING 903
SWIDTH 249 0
DWIDTH 5 0
BBX 3 3 1 7
BITMAP
5E50
AFA0
5E50
ENDCHAR
STARTCHAR Epsilontonos
ENCODING 904
SWIDTH 591 0
DWIDTH 12 0
BBX 12 13 -1 0
BITMAP
0C80EFFFFFFA
0F60EB000000
3F20EB000000
4D00EB000000
0100EB000000
0000EB000000
0000EFFFFFB0
0000EB000000
0000EB000000
0000EB000000
0000EB000000
0000EB000000
0000EFFFFFFD
ENDCHAR
STARTCHAR Etatonos
ENCODING 905
SWIDTH 716 0
DWIDTH 14 0
BBX 14 13 -1 0
BITMAP
0C80EB000002F8
0F60EB000002F8
3F20EB000002F8
4D00EB000002F8
0100EB000002F8
0000EB000002F8
0000EFFFFFFFF8
0000EB000002F8
0000EB000002F8
0000EB000002F8
0000EB000002F8
0000EB000002F8
0000EB000002F8
ENDCHAR
STARTCHAR Iotatonos
ENCODING 906
SWIDTH 327 0
DWIDTH 7 0
BBX 6 13 -1 0
BITMAP
0C80EB
0F60EB
3F20EB
4D00EB
0100EB
0000EB
0000EB
0000EB
0000EB
0000EB
0000EB
0000EB
0000EB
ENDCHAR
STARTCHAR Omicrontonos
ENCODING 908
SWIDTH 711 0
DWIDTH 14 0
BBX 15 13 -1 0
BITMAP
0C80029DFEA30000
0F604EB302AF5000
3F21EB00000AF300
4D07F3000001FA00
010CE0000000CE00
000EB00000009F20
000FB00000008F30
000EC00000009F20
000CE0000000CE00
0007F4000002F900
0001EC00000AF200
00003EB302AF5000
0000029DFEA30000
ENDCHAR
STARTCHAR Upsilontonos
ENCODING 910
SWIDTH 600 0
DWIDTH 12 0
BBX 13 13 -1 0
BITMAP
0C84F700000EC0
0F60CE00006F40
3F204F6000DC00
4D000CD005F400
010005F50CC000
000000CB4F5000
0000005FDC0000
0000000CF50000
00000009F10000
00000009F10000
00000009F10000
00000009F10000
00000009F10000
ENDCHAR
STARTCHAR Omegatonos
ENCODING 911
SWIDTH 723 0
DWIDTH 14 0
BBX 15 13 -1 0
BITMAP
0D70018DFEB40000
1F502DC3028F7000
3F10CD100007F400
5C05F6000000EC00
010AF10000009F20
000CE00000006F40
000DD00000006F50
000BF00000008F30
0008F3000000BE10
0003F8000002FA00
0000AF20000BE200
00001DD2008F5000
002FFFF801FFFF90
ENDCHAR
STARTCHAR iotadieresistonos
ENCODING 912
SWIDTH 262 0
DWIDTH 5 0
BBX 7 15 -1 0
BITMAP
0008A000
6C0C7D60
6C1E2D60
003A0000
00000000
005F4000
005F4000
005F4000
005F3000
005F3000
005F3000
005F3000
005F3000
004F5000
000BF800
ENDCHAR
STARTCHAR Alpha
ENCODING 913
SWIDTH 544 0
DWIDTH 11 0
BBX 11 13 0 0
BITMAP
0000AF800000
0001ECD00000
0005F5F30000
000AC0E90000
001F70AE0000
006F305F4000
00BD001F9000
01F9000CE000
06FFFFFFF400
0BD00001F900
1F800000BE00
6F4000006F40
CE0000002FA0
ENDCHAR
STARTCHAR Beta
ENCODING 914
SWIDTH 588 0
DWIDTH 12 0
BBX 10 13 1 0
BITMAP
3FFFFEC600
3F70027FA0
3F70000AF2
3F700007F2
3F70000AD0
3F70028E40
3FFFFFFC60
3F70014BF7
3F700000DD
3F700000BE
3F700001EB
3F70014CE3
3FFFFEC920
ENDCHAR
STARTCHAR Gamma
ENCODING 915
SWIDTH 498 0
DWIDTH 10 0
BBX 9 13 1 0
BITMAP
3FFFFFFF50
3F70000000
3F70000000
3F70000000
3F70000000
3F70000000
3F70000000
3F70000000
3F70000000
3F70000000
3F70000000
3F70000000
3F70000000
ENDCHAR
STARTCHAR uni0394
ENCODING 916
SWIDTH 588 0
DWIDTH 12 0
BBX 12 13 0 0
BITMAP
00004FF10000
00009DF60000
0001E7CB0000
0005F37F2000
000BD02F7000
001F800CC000
006F3007F300
00CD0003F800
02F80000DD00
08F300008F40
0DD000003F90
3F9000000DE0
6FFFFFFFFFF2
ENDCHAR
STARTCHAR Epsilon
ENCODING 917
SWIDTH 527 0
DWIDTH 11 0
BBX 9 13 1 0
BITMAP
3FFFFFFF50
3F70000000
3F70000000
3F70000000
3F70000000
3F70000000
3FFFFFF700
3F70000000
3F70000000
3F70000000
3F70000000
3F70000000
3FFFFFFF80
ENDCHAR
STARTCHAR Zeta
ENCODING 918
SWIDTH 539 0
DWIDTH 11 0
BBX 10 13 0 0
BITMAP
07FFFFFFFD
00000008F8
0000002FD1
000000BF40
000006FA00
00001EE100
0000AF6000
0004FC0000
001DF30000
008F800000
03FD100000
0CF4000000
1FFFFFFFFE
ENDCHAR
STARTCHAR Eta
ENCODING 919
SWIDTH 652 0
DWIDTH 13 0
BBX 11 13 1 0
BITMAP
3F7000007F40
3F7000007F40
3F7000007F40
3F7000007F40
3F7000007F40
3F7000007F40
3FFFFFFFFF40
3F7000007F40
3F7000007F40
3F7000007F40
3F7000007F40
3F7000007F40
3F7000007F40
ENDCHAR
STARTCHAR Theta
ENCODING 920
SWIDTH 664 0
DWIDTH 13 0
BBX 12 13 1 0
BITMAP
0029DFEA3000
03EC3029F600
1DC100009F30
6F4000001EB0
BE0000000BF1
DC00000008F3
EC09FFFD08F4
DC00000008F3
BF0000000BF0
6F5000001FA0
1DD100009F30
03EC3029F600
0019DFEA3000
ENDCHAR
STARTCHAR Iota
ENCODING 921
SWIDTH 263 0
DWIDTH 5 0
BBX 3 13 1 0
BITMAP
3F70
3F70
3F70
3F70
3F70
3F70
3F70
3F70
3F70
3F70
3F70
3F70
3F70
ENDCHAR
STARTCHAR Kappa
ENCODING 922
SWIDTH 579 0
DWIDTH 12 0
BBX 11 13 1 0
BITMAP
3F700007F700
3F70004F9000
3F7003EC0000
3F701DD10000
3F70CE300000
3F79FE200000
3FDF9FA00000
3FFA08F40000
3FB001EC0000
3F70006F7000
3F70000CE100
3F700004F900
3F700000AF30
ENDCHAR
STARTCHAR Lambda
ENCODING 923
SWIDTH 515 0
DWIDTH 10 0
BBX 11 13 0 0
BITMAP
0000EF400000
0004FE900000
0009C9D00000
000E85F30000
004F31F80000
009E00BD0000
00EA006F3000
03F5002F8000
08F1000CD000
0DB00008F200
3F700003F700
8F200000EC00
DD0000009F20
ENDCHAR
STARTCHAR Mu
ENCODING 924
SWIDTH 727 0
DWIDTH 15 0
BBX 12 13 1 0
BITMAP
3FE0000007FB
3FF500000CFB
3FBB00003FBB
3F7F10008BBB
3F4E6000D6BB
3F49C004F1CB
3F43F209A0CB
3F40D80E50CB
3F407D4E00CB
3F402FC900CB
3F400BF300CB
3F40049000CB
3F40000000CB
ENDCHAR
STARTCHAR Nu
ENCODING 925
SWIDTH 647 0
DWIDTH 13 0
BBX 11 13 1 0
BITMAP
3FC000007F20
3FF600007F20
3FBE10007F20
3F5E80007F20
3F58F2007F20
3F51EB007F20
3F605F407F20
3F600CD06F20
3F6003F76F20
3F60009E6F20
3F60001EBF20
3F600007FF20
3F600000DF20
ENDCHAR
STARTCHAR Xi
ENCODING 926
SWIDTH 533 0
DWIDTH 11 0
BBX 9 13 1 0
BITMAP
CFFFFFFF70
0000000000
0000000000
0000000000
0000000000
0000000000
08FFFFF300
0000000000
0000000000
0000000000
0000000000
0000000000
FFFFFFFFA0
ENDCHAR
STARTCHAR Omicron
ENCODING 927
SWIDTH 664 0
DWIDTH 13 0
BBX 12 13 1 0
BITMAP
0029DFEA3000
03EC3029F600
1DC100009F30
6F4000001EB0
BE0000000BF1
DC00000008F3
EC00000008F4
DC00000008F3
BF0000000BF0
6F5000001FA0
1DD100009F30
03EC3029F600
0019DFEA3000
ENDCHAR
STARTCHAR Pi
ENCODING 928
SWIDTH 645 0
DWIDTH 13 0
BBX 11 13 1 0
BITMAP
3FFFFFFFFF10
3F7000008F10
3F7000008F10
3F7000008F10
3F7000008F10
3F7000008F10
3F7000008F10
3F7000008F10
3F7000008F10
3F7000008F10
3F7000008F10
3F7000008F10
3F7000008F10
ENDCHAR
STARTCHAR Rho
ENCODING 929
SWIDTH 566 0
DWIDTH 11 0
BBX 10 13 1 0
BITMAP
3FFFFEC700
3F70027FA0
3F700008F3
3F700004F6
3F700004F6
3F700009F2
3F70027F90
3FFFFDB500
3F70000000
3F70000000
3F70000000
3F70000000
3F70000000
ENDCHAR
STARTCHAR Sigma
ENCODING 931
SWIDTH 538 0
DWIDTH 11 0
BBX 10 13 0 0
BITMAP
1FFFFFFFF6
09F7000000
00CF300000
001DD10000
0003EA0000
00005F7000
00000CD000
00007F4000
0004F80000
002EC00000
01DE200000
0BF5000000
2FFFFFFFFF
ENDCHAR
STARTCHAR Tau
ENCODING 932
SWIDTH 536 0
DWIDTH 11 0
BBX 11 13 0 0
BITMAP
7FFFFFFFFF20
00007F300000
00007F300000
00007F300000
00007F300000
00007F300000
00007F300000
00007F300000
00007F300000
00007F300000
00007F300000
00007F300000
00007F300000
ENDCHAR
STARTCHAR Upsilon
ENCODING 933
SWIDTH 476 0
DWIDTH 10 0
BBX 10 13 0 0
BITMAP
CE100006F4
4F70000DC0
0CD0005F50
04F600CC00
00CC04F500
005F4BC000
000CDF5000
0005FC0000
0001F90000
0001F90000
0001F90000
0001F90000
0001F90000
ENDCHAR
STARTCHAR Phi
ENCODING 934
SWIDTH 719 0
DWIDTH 14 0
BBX 13 14 1 0
BITMAP
000008E0000000
000008E0000000
004ADFFEB61000
09F939E26ED200
6F5008E001DC00
CC0008E0007F30
F90008E0004F60
F90008E0004F60
CD0008E0007F30
6F7008E002EB00
08F939E26EC100
004ADFFEB60000
000008E0000000
000008E0000000
ENDCHAR
STARTCHAR Chi
ENCODING 935
SWIDTH 513 0
DWIDTH 10 0
BBX 10 13 0 0
BITMAP
3FA00005F7
09F3000CD0
01EB005F50
007F40DB00
000DC6F300
0005FE9000
0001FF4000
0009EDC000
002F75F600
00BE10CD10
04F6004F80
0DD0000AF2
6F500002FA
ENDCHAR
STARTCHAR Psi
ENCODING 936
SWIDTH 699 0
DWIDTH 14 0
BBX 12 13 1 0
BITMAP
BE000CC000EB
BE000CC000EB
BE000CC000EB
BE000CC000FA
9F100CC002F8
3F800CC009F3
07FA5DC5AF70
0038BEEA8300
00000CC00000
00000CC00000
00000CC00000
00000CC00000
00000CC00000
ENDCHAR
STARTCHAR uni03A9
ENCODING 937
SWIDTH 678 0
DWIDTH 14 0
BBX 13 13 0 0
BITMAP
00018DFEB40000
002DC4117F8000
00CD100006F500
04F7000000DD00
09F20000008F30
0BF00000005F50
0CE00000005F60
0AF10000007F40
07F4000000AF10
02F9000001FB00
009F30000AF300
001CD2007F6000
1FFFF800FFFFA0
ENDCHAR
STARTCHAR Iotadieresis
ENCODING 938
SWIDTH 263 0
DWIDTH 5 0
BBX 7 16 -1 0
BITMAP
4E502E70
4E502E70
00000000
003F7000
003F7000
003F7000
003F7000
003F7000
003F7000
003F7000
003F7000
003F7000
003F7000
003F7000
003F7000
003F7000
ENDCHAR
STARTCHAR Upsilondieresis
ENCODING 939
SWIDTH 476 0
DWIDTH 10 0
BBX 10 16 0 0
BITMAP
02E701D900
02E701D900
0000000000
CE100006F4
4F70000DC0
0CD0005F50
04F600CC00
00CC04F500
005F4BC000
000CDF5000
0005FC0000
0001F90000
0001F90000
0001F90000
0001F90000
0001F90000
ENDCHAR
STARTCHAR alphatonos
ENCODING 940
SWIDTH 560 0
DWIDTH 11 0
BBX 11 15 0 0
BITMAP
000003E50000
000007F20000
00000AB00000
00000C500000
000000000000
0019EEA17F20
01CD416A9E00
08F30009EC00
0DD00004F900
0FB00004F600
1FA00005F400
0EB00007F200
0BF1000CF100
03FB22A9F410
004CFD60AEB0
ENDCHAR
STARTCHAR epsilontonos
ENCODING 941
SWIDTH 448 0
DWIDTH 9 0
BBX 8 15 1 0
BITMAP
0000D800
0003F600
0006E100
00089000
00000000
05BEEC71
5F9114A0
8F200000
3F810000
08FFF700
9F510000
FA000000
FA000000
8F7114B3
06CEED92
ENDCHAR
STARTCHAR etatonos
ENCODING 942
SWIDTH 541 0
DWIDTH 11 0
BBX 9 18 1 -3
BITMAP
00002E7000
00005F4000
00009D0000
0000A70000
0000000000
7F03CED400
6F5A21BE00
5FB0005F30
5F50004F40
5F40004F40
5F40004F40
5F40004F40
5F40004F40
5F40004F40
5F40004F40
0000005F40
0000005F40
0000005F40
ENDCHAR
STARTCHAR iotatonos
ENCODING 943
SWIDTH 262 0
DWIDTH 5 0
BBX 4 15 1 0
BITMAP
06D3
0AE0
0D80
1E20
0000
5F40
5F40
5F40
5F30
5F30
5F30
5F30
5F30
4F50
0BF8
ENDCHAR
STARTCHAR upsilondieresistonos
ENCODING 944
SWIDTH 510 0
DWIDTH 10 0
BBX 9 15 1 0
BITMAP
0002D20000
1E46D7B000
1E4977B000
000B200000
0000000000
BD0003F500
AE0000E900
AE0000CD00
AE0000AE00
AD00009F10
BD00009F10
AD0000AE00
8F1001EA00
2E912AE200
03BEEB3000
ENDCHAR
STARTCHAR alpha
ENCODING 945
SWIDTH 560 0
DWIDTH 11 0
BBX 11 10 0 0
BITMAP
0019EEA17F20
01CD416A9E00
08F30009EC00
0DD00004F900
0FB00004F600
1FA00005F400
0EB00007F200
0BF1000CF100
03FB22A9F410
004CFD60AEB0
ENDCHAR
STARTCHAR beta
ENCODING 946
SWIDTH 565 0
DWIDTH 11 0
BBX 10 17 1 -3
BITMAP
007DFD8100
08F614EA00
2F90008F20
5F50006F30
6F3000AE10
6F3006F700
6F21DFA100
6F2077CE50
6F20000BE1
6F200005F5
6F200004F6
6F300008F3
6FC6116F90
6F38DFD700
6F30000000
6F30000000
6F30000000
ENDCHAR
STARTCHAR gamma
ENCODING 947
SWIDTH 484 0
DWIDTH 10 0
BBX 10 13 0 -3
BITMAP
8E200007F3
0DA00009E0
05F3000DB0
00DA002F60
007F108E10
001F61E800
000BA6F200
0007ED8000
0003FE1000
0001F70000
0000F80000
0000F90000
0001F90000
ENDCHAR
STARTCHAR delta
ENCODING 948
SWIDTH 531 0
DWIDTH 11 0
BBX 9 14 1 0
BITMAP
02AEFEC930
0BD2125A20
0CC0000000
06F9000000
007FB20000
001AFE4000
04EC6BF500
3F9000CF20
BE10003F80
EB00000FA0
DB00001F90
9E20005F50
1DC314DB00
018DFD8100
ENDCHAR
STARTCHAR epsilon
ENCODING 949
SWIDTH 448 0
DWIDTH 9 0
BBX 8 10 1 0
BITMAP
05BEEC71
5F9114A0
8F200000
3F810000
08FFF700
9F510000
FA000000
FA000000
8F7114B3
06CEED92
ENDCHAR
STARTCHAR zeta
ENCODING 950
SWIDTH 424 0
DWIDTH 8 0
BBX 8 17 1 -3
BITMAP
6FFFFFF3
11105E70
0005F600
004F8000
02EB0000
0BE20000
4F800000
AF200000
EC000000
FA000000
EB000000
AF200000
3ED51000
02AEFC60
000039F4
000005F2
00000A90
ENDCHAR
STARTCHAR eta
ENCODING 951
SWIDTH 541 0
DWIDTH 11 0
BBX 9 13 1 -3
BITMAP
7F03CED400
6F5A21BE00
5FB0005F30
5F50004F40
5F40004F40
5F40004F40
5F40004F40
5F40004F40
5F40004F40
5F40004F40
0000005F40
0000005F40
0000005F40
ENDCHAR
STARTCHAR theta
ENCODING 952
SWIDTH 522 0
DWIDTH 10 0
BBX 9 14 1 0
BITMAP
007DEB2000
08E31AD100
2F6001E800
6F1000AD00
9E00007F10
BC00006F30
CFFFFFFF40
CC00006F40
BD00007F30
9F00008F10
7F2000BD00
2F7001F800
09E31AE100
008EEB2000
ENDCHAR
STARTCHAR iota
ENCODING 953
SWIDTH 262 0
DWIDTH 5 0
BBX 4 10 1 0
BITMAP
5F40
5F40
5F40
5F30
5F30
5F30
5F30
5F30
4F50
0BF8
ENDCHAR
STARTCHAR kappa
ENCODING 954
SWIDTH 494 0
DWIDTH 10 0
BBX 9 10 1 0
BITMAP
7F20004C30
6F3007FD20
5F407F8000
5F45F60000
5F5EF30000
5FD9DB0000
5FD15F5000
5F700BE100
5F4002EB00
5F30004F80
ENDCHAR
STARTCHAR lambda
ENCODING 955
SWIDTH 494 0
DWIDTH 10 0
BBX 10 14 0 0
BITMAP
5EFB200000
121BD10000
0001F70000
0000AD0000
00009F3000
0001FF9000
0007FAE000
000DA3F500
005F40DB00
00BD008F10
03F7003F70
09F1000DC0
1FA00008F3
7F400003F8
ENDCHAR
STARTCHAR uni03BC
ENCODING 956
SWIDTH 562 0
DWIDTH 11 0
BBX 10 13 1 -3
BITMAP
5F40005F40
5F40005F40
5F40005F40
5F40005F30
5F40005F30
5F40005F30
5F50005F30
5F60009F30
5FD218AF50
5F9EE80AF8
5F30000000
5F30000000
5F40000000
ENDCHAR
STARTCHAR nu
ENCODING 957
SWIDTH 474 0
DWIDTH 9 0
BBX 9 10 0 0
BITMAP
9E10000AE0
1E90000CC0
08F1000F80
02F7004F40
00BC009E00
006F20E900
001F75F300
000BBBB000
0008FF4000
0004FB0000
ENDCHAR
STARTCHAR xi
ENCODING 958
SWIDTH 431 0
DWIDTH 9 0
BBX 9 17 0 -3
BITMAP
7FFFFFFF50
004E920000
00DC000000
00FA000000
00DD000000
004EA20000
0007FFF600
01BE610000
08F3000000
0DC0000000
0FB0000000
0CE2000000
03FD510000
002AEFD800
0000028F60
0000003F40
0000008B00
ENDCHAR
STARTCHAR omicron
ENCODING 959
SWIDTH 535 0
DWIDTH 11 0
BBX 10 10 0 0
BITMAP
0019DFC600
01DC305E90
08F30007F4
0DC00002F9
1FA00000FB
1FA00000FB
0EC00002F9
08F20007F4
01DC305E90
0019EFD600
ENDCHAR
STARTCHAR pi
ENCODING 960
SWIDTH 586 0
DWIDTH 12 0
BBX 12 10 0 0
BITMAP
8FFFFFFFFFF3
005F3005F400
005F3005F300
006F2005F300
007F1006F200
007F1006F200
009E0006F200
00BD0006F200
00CC0004F510
00EB0000AED0
ENDCHAR
STARTCHAR rho
ENCODING 961
SWIDTH 549 0
DWIDTH 11 0
BBX 9 13 1 -3
BITMAP
005CFEB300
06F712CE20
1EA0002FA0
5F40000CE0
6F20000AF0
7F20000BF0
7F20000DD0
7F30004F70
7FC413DD10
7F4AEE9100
7F20000000
7F30000000
7F30000000
ENDCHAR
STARTCHAR uni03C2
ENCODING 962
SWIDTH 432 0
DWIDTH 9 0
BBX 8 13 0 -3
BITMAP
0019EFD7
01DD3167
08F30000
0DC00000
1FA00000
1FA00000
0EC00000
08F50000
01CE6000
0007EE91
000005F7
000002F5
000009B0
ENDCHAR
STARTCHAR sigma
ENCODING 963
SWIDTH 546 0
DWIDTH 11 0
BBX 11 10 0 0
BITMAP
0019DFFFFFA0
01DD317E3000
09F2000AD000
0EC00004F400
1FA00002F700
1FA00002F700
0DC00004F500
08F30009E100
01DD317F6000
0019EFC50000
ENDCHAR
STARTCHAR tau
ENCODING 964
SWIDTH 460 0
DWIDTH 9 0
BBX 9 10 0 0
BITMAP
7FFFFFFFA0
0003F60000
0003F60000
0003F50000
0003F50000
0003F50000
0003F50000
0003F50000
0001F71000
00008EE300
ENDCHAR
STARTCHAR upsilon
ENCODING 965
SWIDTH 510 0
DWIDTH 10 0
BBX 9 10 1 0
BITMAP
BD0003F500
AE0000E900
AE0000CD00
AE0000AE00
AD00009F10
BD00009F10
AD0000AE00
8F1001EA00
2E912AE200
03BEEB3000
ENDCHAR
STARTCHAR phi
ENCODING 966
SWIDTH 680 0
DWIDTH 14 0
BBX 12 16 1 -3
BITMAP
00000E800000
00000E800000
00000E800000
005BEFFD9200
09F72E93BE40
6F600E800BE1
DD000E8004F7
FA000E8001FA
FA000E8001FA
DD000E8004F7
6F600E800CE1
09F71E93BE40
005BEFFD9200
00000E800000
00000E800000
00000E800000
ENDCHAR
STARTCHAR chi
ENCODING 967
SWIDTH 481 0
DWIDTH 10 0
BBX 10 13 0 -3
BITMAP
7F30000DD0
0DB0005F50
04F500DC00
00AD15F400
002F8DB000
0008FF3000
0002FD0000
0009EF5000
003F69E100
00BC01E900
05F4006F30
1DA0000CC0
8F200003F7
ENDCHAR
STARTCHAR psi
ENCODING 968
SWIDTH 689 0
DWIDTH 14 0
BBX 12 16 1 -3
BITMAP
00000E900000
00000E900000
00000E900000
BD000E900AE0
AE000E9006F3
AE000E9003F7
AE000E9001F8
AE000E9000FA
9E000E9001F9
8F100E9004F6
3F500E900AE1
09E61EA3AF50
006CEFFEA300
00000E900000
00000E900000
00000E900000
ENDCHAR
STARTCHAR omega
ENCODING 969
SWIDTH 701 0
DWIDTH 14 0
BBX 12 10 1 0
BITMAP
078000001A80
1EE100000BF2
7F60000004F8
CE00000000EC
EB000DC000BE
F9000CB000BF
DA000CB000CE
AD000DD000EB
3F716CC618F4
05DFB22BFD60
ENDCHAR
STARTCHAR iotadieresis
ENCODING 970
SWIDTH 262 0
DWIDTH 5 0
BBX 7 14 -1 0
BITMAP
4E506E30
4E506E30
00000000
00000000
005F4000
005F4000
005F4000
005F3000
005F3000
005F3000
005F3000
005F3000
004F5000
000BF800
ENDCHAR
STARTCHAR upsilondieresis
ENCODING 971
SWIDTH 510 0
DWIDTH 10 0
BBX 9 14 1 0
BITMAP
0CB01D9000
0CB01D9000
0000000000
0000000000
BD0003F500
AE0000E900
AE0000CD00
AE0000AE00
AD00009F10
BD00009F10
AD0000AE00
8F1001EA00
2E912AE200
03BEEB3000
ENDCHAR
STARTCHAR omicrontonos
ENCODING 972
SWIDTH 535 0
DWIDTH 11 0
BBX 10 15 0 0
BITMAP
000008D100
00000CC000
00000F6000
00003E1000
0000000000
0019DFC600
01DC305E90
08F30007F4
0DC00002F9
1FA00000FB
1FA00000FB
0EC00002F9
08F20007F4
01DC305E90
0019EFD600
ENDCHAR
STARTCHAR upsilontonos
ENCODING 973
SWIDTH 510 0
DWIDTH 10 0
BBX 9 15 1 0
BITMAP
0001E80000
0004F50000
0007E00000
0009800000
0000000000
BD0003F500
AE0000E900
AE0000CD00
AE0000AE00
AD00009F10
BD00009F10
AD0000AE00
8F1001EA00
2E912AE200
03BEEB3000
ENDCHAR
STARTCHAR omegatonos
ENCODING 974
SWIDTH 701 0
DWIDTH 14 0
BBX 12 15 1 0
BITMAP
000000D90000
000002F70000
000005F10000
000007A00000
000000000000
078000001A80
1EE100000BF2
7F60000004F8
CE00000000EC
EB000DC000BE
F9000CB000BF
DA000CB000CE
AD000DD000EB
3F716CC618F4
05DFB22BFD60
ENDCHAR
STARTCHAR uni03D0
ENCODING 976
SWIDTH 560 0
DWIDTH 11 0
BBX 10 14 1 0
BITMAP
007DFD7000
09E514E800
2F80009F10
5F40009F10
6F2001DD00
7F205DE300
7FBEFF7100
7FD967DE30
7F20001DD0
6F200007F3
5F400005F4
1E900009F1
06F8117F70
004BEEC500
ENDCHAR
STARTCHAR uni03D1
ENCODING 977
SWIDTH 522 0
DWIDTH 10 0
BBX 9 14 1 0
BITMAP
02BFE91000
2EA12BD100
8F1002F800
AE0000BD00
8F20008F10
2EA1006F30
03CEAACF40
0003558F40
4A20006F30
4F40008F10
4F5000AD00
3F6000E900
0DD219E200
02AEFB3000
ENDCHAR
STARTCHAR uni03D5
ENCODING 981
SWIDTH 680 0
DWIDTH 14 0
BBX 13 13 0 -3
BITMAP
005A1007DE9100
01EE106E33EC00
08F500CA007F50
0DE000E8002F80
0FA000E8001FA0
1F9000E8001F90
0DB000E8005F60
07F400E800CE10
00AE62E94CE300
0006BEFFD92000
000000E9000000
000000E9000000
000000E9000000
ENDCHAR
STARTCHAR uni03D7
ENCODING 983
SWIDTH 494 0
DWIDTH 10 0
BBX 9 13 1 -3
BITMAP
7F20004C30
6F3007FD20
5F407F7000
5F45F50000
5F5EF30000
5FD9DC0000
5FD06F6000
5F700CE200
5F4002FB00
5F30006F80
0000004F80
000004EA00
00003EA000
ENDCHAR
STARTCHAR uni03D9
ENCODING 985
SWIDTH 535 0
DWIDTH 11 0
BBX 10 13 0 -3
BITMAP
0019DFC600
01DC305E90
08F20007F3
0DC00002F9
1FA00000FB
1FA00000FB
0EC00002F9
08F20007F3
01DC305E90
001AEFD700
00006F3000
00006F3000
00006F4000
ENDCHAR
STARTCHAR uni03DB
ENCODING 987
SWIDTH 466 0
DWIDTH 9 0
BBX 9 13 0 -3
BITMAP
0018DEEEC0
01CD400000
08F3000000
0DC0000000
1FA0000000
1FA0000000
0ED0000000
08F5000000
01CF710000
0007DFC500
000002AF10
0000007E10
000001C600
ENDCHAR
STARTCHAR uni03DD
ENCODING 989
SWIDTH 413 0
DWIDTH 8 0
BBX 7 13 1 -3
BITMAP
5FFFFFB0
5F300000
5F300000
5F300000
5F300000
5F300000
5FFFFF50
5F300000
5F300000
5F300000
5F400000
5F400000
5F400000
ENDCHAR
STARTCHAR uni03E1
ENCODING 993
SWIDTH 498 0
DWIDTH 10 0
BBX 10 17 0 -3
BITMAP
03C3000000
05EF500000
002CF50000
0001CF3000
00001DD100
000005F800
00039FFE10
04BFD75F70
7FD6000EC0
1500004DF1
00006DFEF4
007EFB44F6
00AA3003F7
00000002F7
00000003F6
00000004F5
00000005E3
ENDCHAR
STARTCHAR uni0400
ENCODING 1024
SWIDTH 527 0
DWIDTH 11 0
BBX 9 17 1 0
BITMAP
0088000000
005EB10000
0001A70000
0000000000
3FFFFFFF50
3F70000000
3F70000000
3F70000000
3F70000000
3F70000000
3FFFFFF700
3F70000000
3F70000000
3F70000000
3F70000000
3F70000000
3FFFFFFF80
ENDCHAR
STARTCHAR uni0401
ENCODING 1025
SWIDTH 527 0
DWIDTH 11 0
BBX 9 16 1 0
BITMAP
03E602E800
03E602E800
0000000000
3FFFFFFF50
3F70000000
3F70000000
3F70000000
3F70000000
3F70000000
3FFFFFF700
3F70000000
3F70000000
3F70000000
3F70000000
3F70000000
3FFFFFFF80
ENDCHAR
STARTCHAR uni0402
ENCODING 1026
SWIDTH 687 0
DWIDTH 14 0
BBX 13 13 0 0
BITMAP
7FFFFFFFFF6000
0000DC00000000
0000DC00000000
0000DC00000000
0000DC00000000
0000DEEFEC7100
0000DD2015DD10
0000DC00004F70
0000DC00000FB0
0000DC00000EB0
0000DC00002F80
0000DC0012CE20
0000DC00EEB400
ENDCHAR
STARTCHAR uni0403
ENCODING 1027
SWIDTH 498 0
DWIDTH 10 0
BBX 9 17 1 0
BITMAP
000003C200
00005EA100
0001C50000
0000000000
3FFFFFFF50
3F70000000
3F70000000
3F70000000
3F70000000
3F70000000
3F70000000
3F70000000
3F70000000
3F70000000
3F70000000
3F70000000
3F70000000
ENDCHAR
STARTCHAR uni0404
ENCODING 1028
SWIDTH 571 0
DWIDTH 11 0
BBX 10 13 1 0
BITMAP
0018DFEC60
03EC4117E3
1DD1000010
6F50000000
BE00000000
DC00000000
EFFFFFF300
DB00000000
BD00000000
7F20000000
1EA0000031
03EA3016E8
0029DFEC60
ENDCHAR
STARTCHAR uni0405
ENCODING 1029
SWIDTH 534 0
DWIDTH 11 0
BBX 9 13 1 0
BITMAP
018CFEB600
0CD3028E30
6F40000100
7F40000000
4FC2000000
08FF930000
004BFFC300
000029FF40
0000004FB0
0000000DD0
4200000EB0
DE7202AE30
17CEFE9200
ENDCHAR
STARTCHAR uni0406
ENCODING 1030
SWIDTH 263 0
DWIDTH 5 0
BBX 3 13 1 0
BITMAP
3F70
3F70
3F70
3F70
3F70
3F70
3F70
3F70
3F70
3F70
3F70
3F70
3F70
ENDCHAR
STARTCHAR uni0407
ENCODING 1031
SWIDTH 263 0
DWIDTH 5 0
BBX 7 16 -1 0
BITMAP
4E502E70
4E502E70
00000000
003F7000
003F7000
003F7000
003F7000
003F7000
003F7000
003F7000
003F7000
003F7000
003F7000
003F7000
003F7000
003F7000
ENDCHAR
STARTCHAR uni0408
ENCODING 1032
SWIDTH 480 0
DWIDTH 10 0
BBX 8 13 0 0
BITMAP
000000CD
000000CD
000000CD
000000CD
000000CD
000000CD
000000CD
000000CD
000000CD
000000DC
030001E9
2FA119F3
03BEFC40
ENDCHAR
STARTCHAR uni0409
ENCODING 1033
SWIDTH 903 0
DWIDTH 18 0
BBX 18 13 0 0
BITMAP
0000BFFFFF80000000
0000E9002F80000000
0001F6002F80000000
0004F3002F80000000
0006F1002F80000000
0009D0002FFFFDA400
000CB0002F8013AF60
000E80002F80000CE0
002F50002F800008F2
006F20002F800008F2
00AC00002F80000CD0
13F600002F8013AF50
BE9000002FFFFDA300
ENDCHAR
STARTCHAR uni040A
ENCODING 1034
SWIDTH 929 0
DWIDTH 19 0
BBX 17 13 1 0
BITMAP
3F700000AF10000000
3F700000AF10000000
3F700000AF10000000
3F700000AF10000000
3F700000AF10000000
3F700000AF10000000
3FFFFFFFFFFFED8200
3F700000AF1014CE20
3F700000AF10002F90
3F700000AF10000FA0
3F700000AF10003F80
3F700000AF1015DD10
3F700000AFFFEC8100
ENDCHAR
STARTCHAR uni040B
ENCODING 1035
SWIDTH 696 0
DWIDTH 14 0
BBX 13 13 0 0
BITMAP
7FFFFFFFFF6000
0000DC00000000
0000DC00000000
0000DC00000000
0000DC00000000
0000DEDFEC8100
0000DD2015EC00
0000DC00005F50
0000DC00002F80
0000DC00001F90
0000DC00001F90
0000DC00001F90
0000DC00001F90
ENDCHAR
STARTCHAR uni040C
ENCODING 1036
SWIDTH 580 0
DWIDTH 12 0
BBX 11 17 1 0
BITMAP
0000006A0000
000009E60000
00004B200000
000000000000
3F700002BF20
3F70000C9100
3F70006E1000
3F7001E70000
3F7007E10000
3F701E700000
3FFFFF300000
3F701DC00000
3F7004F70000
3F70009F3000
3F70001DC000
3F700004F800
3F7000009F30
ENDCHAR
STARTCHAR uni040D
ENCODING 1037
SWIDTH 656 0
DWIDTH 13 0
BBX 11 17 1 0
BITMAP
000980000000
0005EA100000
00001A600000
000000000000
3F700000BF50
3F700005FF50
3F70001DBF50
3F70008E5F50
3F7002E84F50
3F700AE14F50
3F704F605F50
3F60DC005F50
3F66F3005F50
3F5E90005F50
3FBE10005F50
3FF700005F50
3FD000005F50
ENDCHAR
STARTCHAR uni040E
ENCODING 1038
SWIDTH 514 0
DWIDTH 10 0
BBX 11 17 0 0
BITMAP
00CA005F1000
007E31CB0000
0008EFB20000
000000000000
AF2000009F10
3F800001EA00
0AE00006F400
03F6000CD000
00BC003F6000
003F409E1000
000BA1E90000
0004F6F30000
0000BFC00000
00008F600000
0000CE000000
0006F6000000
06FD70000000
ENDCHAR
STARTCHAR uni040F
ENCODING 1039
SWIDTH 645 0
DWIDTH 13 0
BBX 11 16 1 -3
BITMAP
3F7000008F10
3F7000008F10
3F7000008F10
3F7000008F10
3F7000008F10
3F7000008F10
3F7000008F10
3F7000008F10
3F7000008F10
3F7000008F10
3F7000008F10
3F7000008F10
3FFFFFFFFF10
00004F500000
00004F400000
00004F300000
ENDCHAR
STARTCHAR uni0410
ENCODING 1040
SWIDTH 544 0
DWIDTH 11 0
BBX 11 13 0 0
BITMAP
0000AF800000
0001ECD00000
0005F5F30000
000AC0E90000
001F70AE0000
006F305F4000
00BD001F9000
01F9000CE000
06FFFFFFF400
0BD00001F900
1F800000BE00
6F4000006F40
CE0000002FA0
ENDCHAR
STARTCHAR uni0411
ENCODING 1041
SWIDTH 580 0
DWIDTH 12 0
BBX 10 13 1 0
BITMAP
3FFFFFFFE0
3F70000000
3F70000000
3F70000000
3F70000000
3F94432000
3FDBBCED50
3F700019F5
3F700000FA
3F700000EB
3F700002F9
3F70014CE2
3FFFFED820
ENDCHAR
STARTCHAR uni0412
ENCODING 1042
SWIDTH 588 0
DWIDTH 12 0
BBX 10 13 1 0
BITMAP
3FFFFEC600
3F70027FA0
3F70000AF2
3F700007F2
3F70000AD0
3F70028E40
3FFFFFFC60
3F70014BF7
3F700000DD
3F700000BE
3F700001EB
3F70014CE3
3FFFFEC920
ENDCHAR
STARTCHAR uni0413
ENCODING 1043
SWIDTH 498 0
DWIDTH 10 0
BBX 9 13 1 0
BITMAP
3FFFFFFF50
3F70000000
3F70000000
3F70000000
3F70000000
3F70000000
3F70000000
3F70000000
3F70000000
3F70000000
3F70000000
3F70000000
3F70000000
ENDCHAR
STARTCHAR uni0414
ENCODING 1044
SWIDTH 638 0
DWIDTH 13 0
BBX 13 16 0 -3
BITMAP
0000EFFFFFC000
0002F5000EC000
0004F3000EC000
0006F1000EC000
0009D0000EC000
000CB0000EC000
000E90000EC000
002F60000EC000
005F30000EC000
009E00000EC000
00DA00000EC000
06F400000EC000
7FFFFFFFFFFF30
7F200000006F30
6F200000006F20
5F200000006F10
ENDCHAR
STARTCHAR uni0415
ENCODING 1045
SWIDTH 527 0
DWIDTH 11 0
BBX 9 13 1 0
BITMAP
3FFFFFFF50
3F70000000
3F70000000
3F70000000
3F70000000
3F70000000
3FFFFFF700
3F70000000
3F70000000
3F70000000
3F70000000
3F70000000
3FFFFFFF80
ENDCHAR
STARTCHAR uni0416
ENCODING 1046
SWIDTH 805 0
DWIDTH 16 0
BBX 16 13 0 0
BITMAP
9E70000BD00006EB
02E5000BD0004E30
007D000BD000C800
001E600BD004F200
000AC00BD00BB000
0004F40BD03F5000
0001FFFFFFFF2000
0008E20BD01EA000
002F800BD006F400
00BD100BD000DC00
05F6000BD0004F70
1EC0000BD0000BE1
9F40000BD00002FA
ENDCHAR
STARTCHAR uni0417
ENCODING 1047
SWIDTH 554 0
DWIDTH 11 0
BBX 10 13 1 0
BITMAP
17CEFD9100
4E7214DD10
0100004F70
0000001F80
0000004F60
000015DC10
006FFFE400
0000128F80
00000009F2
00000006F4
4100000AF1
DD62029F70
18CEFDA400
ENDCHAR
STARTCHAR uni0418
ENCODING 1048
SWIDTH 656 0
DWIDTH 13 0
BBX 11 13 1 0
BITMAP
3F700000BF50
3F700005FF50
3F70001DBF50
3F70008E5F50
3F7002E84F50
3F700AE14F50
3F704F605F50
3F60DC005F50
3F66F3005F50
3F5E90005F50
3FBE10005F50
3FF700005F50
3FD000005F50
ENDCHAR
STARTCHAR uni0419
ENCODING 1049
SWIDTH 656 0
DWIDTH 13 0
BBX 11 17 1 0
BITMAP
004F200D8000
001E915F4000
0003CFD60000
000000000000
3F700000BF50
3F700005FF50
3F70001DBF50
3F70008E5F50
3F7002E84F50
3F700AE14F50
3F704F605F50
3F60DC005F50
3F66F3005F50
3F5E90005F50
3FBE10005F50
3FF700005F50
3FD000005F50
ENDCHAR
STARTCHAR uni041A
ENCODING 1050
SWIDTH 580 0
DWIDTH 12 0
BBX 11 13 1 0
BITMAP
3F700002BF20
3F70000C9100
3F70006E1000
3F7001E70000
3F7007E10000
3F701E700000
3FFFFF300000
3F701DC00000
3F7004F70000
3F70009F3000
3F70001DC000
3F700004F800
3F7000009F30
ENDCHAR
STARTCHAR uni041B
ENCODING 1051
SWIDTH 630 0
DWIDTH 13 0
BBX 11 13 0 0
BITMAP
0000DFFFFFC0
0001F7000DC0
0003F4000DC0
0006F2000DC0
0008E0000DC0
000BB0000DC0
000E90000DC0
001F60000DC0
004F30000DC0
008E00000DC0
00CA00000DC0
14F400000DC0
CE8000000DC0
ENDCHAR
STARTCHAR uni041C
ENCODING 1052
SWIDTH 727 0
DWIDTH 15 0
BBX 12 13 1 0
BITMAP
3FE0000007FB
3FF500000CFB
3FBB00003FBB
3F7F10008BBB
3F4E6000D6BB
3F49C004F1CB
3F43F209A0CB
3F40D80E50CB
3F407D4E00CB
3F402FC900CB
3F400BF300CB
3F40049000CB
3F40000000CB
ENDCHAR
STARTCHAR uni041D
ENCODING 1053
SWIDTH 652 0
DWIDTH 13 0
BBX 11 13 1 0
BITMAP
3F7000007F40
3F7000007F40
3F7000007F40
3F7000007F40
3F7000007F40
3F7000007F40
3FFFFFFFFF40
3F7000007F40
3F7000007F40
3F7000007F40
3F7000007F40
3F7000007F40
3F7000007F40
ENDCHAR
STARTCHAR uni041E
ENCODING 1054
SWIDTH 664 0
DWIDTH 13 0
BBX 12 13 1 0
BITMAP
0029DFEA3000
03EC3029F600
1DC100009F30
6F4000001EB0
BE0000000BF1
DC00000008F3
EC00000008F4
DC00000008F3
BF0000000BF0
6F5000001FA0
1DD100009F30
03EC3029F600
0019DFEA3000
ENDCHAR
STARTCHAR uni041F
ENCODING 1055
SWIDTH 645 0
DWIDTH 13 0
BBX 11 13 1 0
BITMAP
3FFFFFFFFF10
3F7000008F10
3F7000008F10
3F7000008F10
3F7000008F10
3F7000008F10
3F7000008F10
3F7000008F10
3F7000008F10
3F7000008F10
3F7000008F10
3F7000008F10
3F7000008F10
ENDCHAR
STARTCHAR uni0420
ENCODING 1056
SWIDTH 566 0
DWIDTH 11 0
BBX 10 13 1 0
BITMAP
3FFFFEC700
3F70027FA0
3F700008F3
3F700004F6
3F700004F6
3F700009F2
3F70027F90
3FFFFDB500
3F70000000
3F70000000
3F70000000
3F70000000
3F70000000
ENDCHAR
STARTCHAR uni0421
ENCODING 1057
SWIDTH 571 0
DWIDTH 11 0
BBX 10 13 1 0
BITMAP
0017CEEC60
02DC4117E3
0CD1000010
6F50000000
BF00000000
DC00000000
EC00000000
DD00000000
BF00000000
6F50000000
1DD1000031
03EC4116E8
0018DFEC60
ENDCHAR
STARTCHAR uni0422
ENCODING 1058
SWIDTH 536 0
DWIDTH 11 0
BBX 11 13 0 0
BITMAP
7FFFFFFFFF20
00007F300000
00007F300000
00007F300000
00007F300000
00007F300000
00007F300000
00007F300000
00007F300000
00007F300000
00007F300000
00007F300000
00007F300000
ENDCHAR
STARTCHAR uni0423
ENCODING 1059
SWIDTH 514 0
DWIDTH 10 0
BBX 11 13 0 0
BITMAP
AF2000009F10
3F800001EA00
0AE00006F400
03F6000CD000
00BC003F6000
003F409E1000
000BA1E90000
0004F6F30000
0000BFC00000
00008F600000
0000CE000000
0006F6000000
06FD70000000
ENDCHAR
STARTCHAR uni0424
ENCODING 1060
SWIDTH 732 0
DWIDTH 15 0
BBX 14 13 0 0
BITMAP
0000006F100000
0000006F100000
0006BEFFED9300
01CE737F24AF70
09F2006F1007F4
0EA0006F1001F9
1F90006F1000EA
0EA0006F1001F9
09F3006F1008F3
01BE737F24AF70
0005BDFFED9300
0000006F100000
0000006F100000
ENDCHAR
STARTCHAR uni0425
ENCODING 1061
SWIDTH 513 0
DWIDTH 10 0
BBX 10 13 0 0
BITMAP
3FA00005F7
09F3000CD0
01EB005F50
007F40DB00
000DC6F300
0005FE9000
0001FF4000
0009EDC000
002F75F600
00BE10CD10
04F6004F80
0DD0000AF2
6F500002FA
ENDCHAR
STARTCHAR uni0426
ENCODING 1062
SWIDTH 642 0
DWIDTH 13 0
BBX 12 16 1 -3
BITMAP
3F700000CD00
3F700000CD00
3F700000CD00
3F700000CD00
3F700000CD00
3F700000CD00
3F700000CD00
3F700000CD00
3F700000CD00
3F700000CD00
3F700000CD00
3F700000CD00
3FFFFFFFFFF5
0000000005F4
0000000005F3
0000000005F2
ENDCHAR
STARTCHAR uni0427
ENCODING 1063
SWIDTH 598 0
DWIDTH 12 0
BBX 10 13 1 0
BITMAP
AF000008F2
AF000008F2
AF000008F2
9F100008F2
6F400008F2
1DD51019F2
019DEFEEF2
00000008F2
00000008F2
00000008F2
00000008F2
00000008F2
00000008F2
ENDCHAR
STARTCHAR uni0428
ENCODING 1064
SWIDTH 865 0
DWIDTH 17 0
BBX 15 13 1 0
BITMAP
3F70002F70002F80
3F70002F70002F80
3F70002F70002F80
3F70002F70002F80
3F70002F70002F80
3F70002F70002F80
3F70002F70002F80
3F70002F70002F80
3F70002F70002F80
3F70002F70002F80
3F70002F70002F80
3F70002F70002F80
3FFFFFFFFFFFFF80
ENDCHAR
STARTCHAR uni0429
ENCODING 1065
SWIDTH 874 0
DWIDTH 17 0
BBX 16 16 1 -3
BITMAP
3F70002F70002F80
3F70002F70002F80
3F70002F70002F80
3F70002F70002F80
3F70002F70002F80
3F70002F70002F80
3F70002F70002F80
3F70002F70002F80
3F70002F70002F80
3F70002F70002F80
3F70002F70002F80
3F70002F70002F80
3FFFFFFFFFFFFFFE
00000000000000AE
00000000000000AD
00000000000000AC
ENDCHAR
STARTCHAR uni042A
ENCODING 1066
SWIDTH 720 0
DWIDTH 14 0
BBX 14 13 0 0
BITMAP
7FFFFF70000000
00004F70000000
00004F70000000
00004F70000000
00004F70000000
00004FFFFDB500
00004F70027FA0
00004F700007F4
00004F700003F7
00004F700003F7
00004F700007F3
00004F70027FA0
00004FFFFEB600
ENDCHAR
STARTCHAR uni042B
ENCODING 1067
SWIDTH 798 0
DWIDTH 16 0
BBX 14 13 1 0
BITMAP
3F7000000008F2
3F7000000008F2
3F7000000008F2
3F7000000008F2
3F7000000008F2
3FFFFDB50008F2
3F70028F9008F2
3F700009F208F2
3F700005F508F2
3F700006F408F2
3F70000AF108F2
3F70029F7008F2
3FFFFDB50008F2
ENDCHAR
STARTCHAR uni042C
ENCODING 1068
SWIDTH 580 0
DWIDTH 12 0
BBX 10 13 1 0
BITMAP
3F70000000
3F70000000
3F70000000
3F70000000
3F70000000
3FFFFEC710
3F70015DD1
3F700004F7
3F700000FA
3F700000FA
3F700004F6
3F70025EC1
3FFFFEC810
ENDCHAR
STARTCHAR uni042D
ENCODING 1069
SWIDTH 571 0
DWIDTH 11 0
BBX 11 13 0 0
BITMAP
039DFEB50000
0BC4017FA000
01000006F600
00000000DD00
000000008F20
000000006F50
000CFFFFFF50
000000005F50
000000007F20
00000000BD00
03000004F600
2FB3016E9000
039DFEB50000
ENDCHAR
STARTCHAR uni042E
ENCODING 1070
SWIDTH 908 0
DWIDTH 18 0
BBX 17 13 1 0
BITMAP
3F7000007DFEA30000
3F70000BD4129F6000
3F70008E200009F200
3F7001E8000001F900
3F7005F4000000CE00
3F7008F2000000BF10
3FFFFFF10000009F20
3F7009F2000000AF10
3F7006F4000000CD00
3F7002F9000002F900
3F7000AE200009F200
3F70001CD4129F5000
3F7000018DFEA30000
ENDCHAR
STARTCHAR uni042F
ENCODING 1071
SWIDTH 582 0
DWIDTH 12 0
BBX 10 13 0 0
BITMAP
003ADFFFFD
04FA3100CD
0BE00000CD
0CD00000CD
0AF10000CD
03EC4100CD
002AFFFFFD
0004F700CD
000DD000CD
007F5000CD
02EC0000CD
0AF30000CD
4FA00000CD
ENDCHAR
STARTCHAR uni0430
ENCODING 1072
SWIDTH 504 0
DWIDTH 10 0
BBX 8 10 1 0
BITMAP
27CEFC40
3C511CE1
000003F7
000001F9
0059CEFA
2DE841FA
CE1000FA
EA0001FA
AE304CEA
1AEE91BA
ENDCHAR
STARTCHAR uni0431
ENCODING 1073
SWIDTH 544 0
DWIDTH 11 0
BBX 9 15 1 0
BITMAP
0000001420
00059DFD40
02CC630000
0CB0000000
4F30000000
9E00000000
CC6CEEB300
DE7213CE10
EA00003F90
EA00000DD0
CB00000CD0
AE00000EC0
4F50004F60
0AE403EC00
007DFD8100
ENDCHAR
STARTCHAR uni0432
ENCODING 1074
SWIDTH 508 0
DWIDTH 10 0
BBX 9 10 1 0
BITMAP
5FFFFD9100
5F4004EB00
5F4000AE00
5F4014E900
5FFFFFC100
5F4003DD10
5F40005F40
5F40006F50
5F4003DD10
5FFFFDA200
ENDCHAR
STARTCHAR uni0433
ENCODING 1075
SWIDTH 411 0
DWIDTH 8 0
BBX 7 10 1 0
BITMAP
5FFFFFB0
5F400000
5F400000
5F400000
5F400000
5F400000
5F400000
5F400000
5F400000
5F400000
ENDCHAR
STARTCHAR uni0434
ENCODING 1076
SWIDTH 532 0
DWIDTH 11 0
BBX 11 13 0 -3
BITMAP
005FFFFFC000
007F000DC000
008D000DC000
00AC000DC000
00CA000DC000
00D8000DC000
01F6000DC000
04F3000DC000
0BD0000DC000
9FFFFFFFFF30
9F0000006F30
8F0000006F20
7F0000006F10
ENDCHAR
STARTCHAR uni0435
ENCODING 1077
SWIDTH 496 0
DWIDTH 10 0
BBX 10 10 0 0
BITMAP
0018DFC600
01CC315F50
08E10008D0
0DA00005F2
1FFFFFFFF2
1FA0000000
0DC0000000
08F4000000
01CE502650
0018DFDB40
ENDCHAR
STARTCHAR uni0436
ENCODING 1078
SWIDTH 681 0
DWIDTH 14 0
BBX 14 10 0 0
BITMAP
5E8000B6002CE0
02D600E800C900
006D00E804F100
001F50E80BA000
000CFFFFFF6000
004F40E809D000
00CB00E802F600
05F400E800AE10
0DC000E8002F80
7F4000E8000AF2
ENDCHAR
STARTCHAR uni0437
ENCODING 1079
SWIDTH 456 0
DWIDTH 9 0
BBX 9 10 0 0
BITMAP
06BDFD8100
086214EA00
000000BD00
000015E700
002FFFB100
000004DC00
0000006F40
0000007F40
1B5214EB00
07CEFD8100
ENDCHAR
STARTCHAR uni0438
ENCODING 1080
SWIDTH 565 0
DWIDTH 11 0
BBX 9 10 1 0
BITMAP
5F40003FA0
5F4000CFA0
5F4007DDA0
5F402F5DA0
5F30CB0EA0
5F36E20EA0
5F4E600EA0
5FBC000EA0
5FF2000EA0
5F70000EA0
ENDCHAR
STARTCHAR uni0439
ENCODING 1081
SWIDTH 565 0
DWIDTH 11 0
BBX 9 14 1 0
BITMAP
05F0009B00
01E813E600
003CFE7000
0000000000
5F40003FA0
5F4000CFA0
5F4007DDA0
5F402F5DA0
5F30CB0EA0
5F36E20EA0
5F4E600EA0
5FBC000EA0
5FF2000EA0
5F70000EA0
ENDCHAR
STARTCHAR uni043A
ENCODING 1082
SWIDTH 498 0
DWIDTH 10 0
BBX 9 10 1 0
BITMAP
4C3001AE10
5F4009B100
5F402F3000
5F409C0000
5FFFF80000
5F408E1000
5F401E9000
5F4007F300
5F4000DC00
5F40005F60
ENDCHAR
STARTCHAR uni043B
ENCODING 1083
SWIDTH 531 0
DWIDTH 11 0
BBX 9 10 0 0
BITMAP
001FFFFFF0
003F400AF0
004F200AF0
006F000AF0
007D000AF0
009C000AF0
00BA000AF0
00D7000AF0
05F2000AF0
AE600008B0
ENDCHAR
STARTCHAR uni043C
ENCODING 1084
SWIDTH 633 0
DWIDTH 13 0
BBX 10 10 1 0
BITMAP
5FB00001FF
5FF20007FF
5FC8000DCF
5F7E004F7F
5F2F50AB7F
5F2AB1E57F
5F24F7D07F
5F20CF807F
5F206F207F
5F2001007F
ENDCHAR
STARTCHAR uni043D
ENCODING 1085
SWIDTH 562 0
DWIDTH 11 0
BBX 9 10 1 0
BITMAP
5F40001F90
5F40001F90
5F40001F90
5F40001F90
5FFFFFFF90
5F40001F90
5F40001F90
5F40001F90
5F40001F90
5F40001F90
ENDCHAR
STARTCHAR uni043E
ENCODING 1086
SWIDTH 542 0
DWIDTH 11 0
BBX 10 10 0 0
BITMAP
0018DFD700
01CD305EA0
08F30006F5
0DC00000FB
1FA00000DD
1FA00000DD
0DC00000EB
08F30006F5
01CD305EA0
0018DFD700
ENDCHAR
STARTCHAR uni043F
ENCODING 1087
SWIDTH 553 0
DWIDTH 11 0
BBX 9 10 1 0
BITMAP
5FFFFFFF60
5F40003F60
5F40003F60
5F40003F60
5F40003F60
5F40003F60
5F40003F60
5F40003F60
5F40003F60
5F40003F60
ENDCHAR
STARTCHAR uni0440
ENCODING 1088
SWIDTH 555 0
DWIDTH 11 0
BBX 10 14 1 -4
BITMAP
5F17DFC400
5FD712BF40
5F50001EB0
5F40000AF0
5F400009F1
5F40000AF1
5F40000CE0
5F40003F90
5FD513DD10
5F59EEA200
5F40000000
5F40000000
5F40000000
5F40000000
ENDCHAR
STARTCHAR uni0441
ENCODING 1089
SWIDTH 456 0
DWIDTH 9 0
BBX 9 10 0 0
BITMAP
0017DFE920
00CE513A10
07F4000000
0DD0000000
1FA0000000
1FA0000000
0ED0000000
08F4000000
01DE402A30
0019DFD920
ENDCHAR
STARTCHAR uni0442
ENCODING 1090
SWIDTH 460 0
DWIDTH 9 0
BBX 9 10 0 0
BITMAP
7FFFFFFFA0
0003F60000
0003F60000
0003F60000
0003F60000
0003F60000
0003F60000
0003F60000
0003F60000
0003F60000
ENDCHAR
STARTCHAR uni0443
ENCODING 1091
SWIDTH 467 0
DWIDTH 9 0
BBX 9 14 0 -4
BITMAP
9F20000AE0
3F70000E90
0CD0005F30
06F3009D00
01E900E800
009E04F300
003F48D000
000C9D8000
0006FF2000
0001EC0000
0001F70000
0006F10000
014E700000
3FE7000000
ENDCHAR
STARTCHAR uni0444
ENCODING 1092
SWIDTH 734 0
DWIDTH 15 0
BBX 14 18 0 -4
BITMAP
0000007F200000
0000007F200000
0000007F200000
0000007F200000
002BECAF8DEB20
02EC12BF713DD1
09F2006F1005F6
0DC0006F1001F9
0FA0006F1000FA
1FA0006F1000FA
0EC0006F1002F8
0AF1006F1007F4
03FA11BF613EB0
004CFCAF9EE910
0000007F200000
0000007F200000
0000007F200000
0000007F200000
ENDCHAR
STARTCHAR uni0445
ENCODING 1093
SWIDTH 446 0
DWIDTH 9 0
BBX 9 10 0 0
BITMAP
3F90009F20
08F302F800
01DB0AD100
005F8F5000
000BFB0000
001EFC0000
009E5F7000
03F60AE200
0CC002EA00
6F40007F50
ENDCHAR
STARTCHAR uni0446
ENCODING 1094
SWIDTH 554 0
DWIDTH 11 0
BBX 10 13 1 -3
BITMAP
5F40005F40
5F40005F40
5F40005F40
5F40005F40
5F40005F40
5F40005F40
5F40005F40
5F40005F40
5F40005F40
5FFFFFFFFB
00000000DA
00000000D9
00000000D9
ENDCHAR
STARTCHAR uni0447
ENCODING 1095
SWIDTH 512 0
DWIDTH 10 0
BBX 8 10 1 0
BITMAP
CC0001F9
CC0001F9
CC0001F9
BE0001F9
6F8202F9
06CEFEF9
000001F9
000001F9
000001F9
000001F9
ENDCHAR
STARTCHAR uni0448
ENCODING 1096
SWIDTH 749 0
DWIDTH 15 0
BBX 13 10 1 0
BITMAP
5F4004F4004F50
5F4004F4004F50
5F4004F4004F50
5F4004F4004F50
5F4004F4004F50
5F4004F4004F50
5F4004F4004F50
5F4004F4004F50
5F4004F4004F50
5FFFFFFFFFFF50
ENDCHAR
STARTCHAR uni0449
ENCODING 1097
SWIDTH 757 0
DWIDTH 15 0
BBX 14 13 1 -3
BITMAP
5F4004F4004F50
5F4004F4004F50
5F4004F4004F50
5F4004F4004F50
5F4004F4004F50
5F4004F4004F50
5F4004F4004F50
5F4004F4004F50
5F4004F4004F50
5FFFFFFFFFFFFB
000000000000CB
000000000000CA
000000000000C9
ENDCHAR
STARTCHAR uni044A
ENCODING 1098
SWIDTH 596 0
DWIDTH 12 0
BBX 11 10 0 0
BITMAP
7FFFF9000000
0001F9000000
0001F9000000
0001F9000000
0001FFFFD810
0001F9015EA0
0001F90009F0
0001F90009F0
0001F9015EA0
0001FFFFD810
ENDCHAR
STARTCHAR uni044B
ENCODING 1099
SWIDTH 674 0
DWIDTH 13 0
BBX 11 10 1 0
BITMAP
5F4000000CD0
5F4000000CD0
5F4000000CD0
5F4000000CD0
5FFFDA300CD0
5F402BE20CD0
5F4003F70CD0
5F4003F70CD0
5F402BE20CD0
5FFFEA300CD0
ENDCHAR
STARTCHAR uni044C
ENCODING 1100
SWIDTH 491 0
DWIDTH 10 0
BBX 8 10 1 0
BITMAP
5F400000
5F400000
5F400000
5F400000
5FFFEC70
5F4016F8
5F4000BE
5F4000BE
5F4016F8
5FFFED70
ENDCHAR
STARTCHAR uni044D
ENCODING 1101
SWIDTH 456 0
DWIDTH 9 0
BBX 9 10 0 0
BITMAP
18DFEA2000
0A412BE200
000000DA00
0000008F10
00AFFFFF20
0000006F20
0000009F10
000001EB00
2A313CE200
18DEEA2000
ENDCHAR
STARTCHAR uni044E
ENCODING 1102
SWIDTH 738 0
DWIDTH 15 0
BBX 13 10 1 0
BITMAP
5F40004CFD8000
5F4005E504EB00
5F400D70006F50
5F404F20001FA0
5F408F00000EC0
5FFFFF00000EC0
5F408F20001FA0
5F404F70006F50
5F4009F504EB00
5F40006DFD8100
ENDCHAR
STARTCHAR uni044F
ENCODING 1103
SWIDTH 514 0
DWIDTH 10 0
BBX 9 10 0 0
BITMAP
004BEFFFA0
04FA200FA0
09F2000FA0
08F2000FA0
03FB300FA0
004CFFFFA0
001DC00FA0
009F300FA0
05F8000FA0
1EC0000FA0
ENDCHAR
STARTCHAR uni0450
ENCODING 1104
SWIDTH 496 0
DWIDTH 10 0
BBX 10 15 0 0
BITMAP
002B200000
003ED10000
0002DB0000
00002B2000
0000000000
0018DFC600
01CC315F50
08E10008D0
0DA00005F2
1FFFFFFFF2
1FA0000000
0DC0000000
08F4000000
01CE502650
0018DFDB40
ENDCHAR
STARTCHAR uni0451
ENCODING 1105
SWIDTH 496 0
DWIDTH 10 0
BBX 10 14 0 0
BITMAP
006E308E10
006E308E10
0000000000
0000000000
0018DFC600
01CC315F50
08E10008D0
0DA00005F2
1FFFFFFFF2
1FA0000000
0DC0000000
08F4000000
01CE502650
0018DFDB40
ENDCHAR
STARTCHAR uni0452
ENCODING 1106
SWIDTH 548 0
DWIDTH 11 0
BBX 10 18 0 -4
BITMAP
05F4000000
05F4000000
CFFFFFE000
05F4000000
05F4000000
05F46DFC40
05FC712BF2
05F60002F9
05F40000DC
05F40000BE
05F40000BF
05F40000BE
05F40000CE
05F40000DC
00000001F9
00000006F5
0000013DC0
00002EEA10
ENDCHAR
STARTCHAR uni0453
ENCODING 1107
SWIDTH 411 0
DWIDTH 8 0
BBX 7 15 1 0
BITMAP
00000B40
0000AF50
0008E400
001B4000
00000000
5FFFFFB0
5F400000
5F400000
5F400000
5F400000
5F400000
5F400000
5F400000
5F400000
5F400000
ENDCHAR
STARTCHAR uni0454
ENCODING 1108
SWIDTH 456 0
DWIDTH 9 0
BBX 9 10 0 0
BITMAP
0018DFE910
01DC413A10
08E2000000
0DA0000000
1FFFFFF100
1F80000000
0EB0000000
09F2000000
01DD412A40
0019DFD920
ENDCHAR
STARTCHAR uni0455
ENCODING 1109
SWIDTH 419 0
DWIDTH 8 0
BBX 8 10 0 0
BITMAP
018DED81
09E314A1
0DA00000
0BE50000
02CFC610
0004BFD2
000004F9
000000EA
2E7116F5
06CEEC50
ENDCHAR
STARTCHAR uni0456
ENCODING 1110
SWIDTH 246 0
DWIDTH 5 0
BBX 3 15 1 0
BITMAP
0100
7F70
6E60
0000
0000
5F40
5F40
5F40
5F40
5F40
5F40
5F40
5F40
5F40
5F40
ENDCHAR
STARTCHAR uni0457
ENCODING 1111
SWIDTH 246 0
DWIDTH 5 0
BBX 7 14 -1 0
BITMAP
4E506E30
4E506E30
00000000
00000000
005F4000
005F4000
005F4000
005F4000
005F4000
005F4000
005F4000
005F4000
005F4000
005F4000
ENDCHAR
STARTCHAR uni0458
ENCODING 1112
SWIDTH 247 0
DWIDTH 5 0
BBX 5 19 -1 -4
BITMAP
000100
007F70
006E60
000000
000000
005F40
005F40
005F40
005F40
005F40
005F40
005F40
005F40
005F40
005F40
005F40
006F30
11AE10
9FD400
ENDCHAR
STARTCHAR uni0459
ENCODING 1113
SWIDTH 735 0
DWIDTH 15 0
BBX 14 10 0 0
BITMAP
002FFFFFB00000
003F400EB00000
004F300EB00000
005F200EB00000
006F100EFFEC60
008E000EB017F6
009C000EB000CC
00C9000EB000CC
04F4000EB017F6
9E70000EFFEC60
ENDCHAR
STARTCHAR uni045A
ENCODING 1114
SWIDTH 758 0
DWIDTH 15 0
BBX 14 10 1 0
BITMAP
5F40007F300000
5F40007F300000
5F40007F300000
5F40007F300000
5FFFFFFFFFD920
5F40007F303DE1
5F40007F3005F4
5F40007F3006F4
5F40007F303DE1
5F40007FFFD920
ENDCHAR
STARTCHAR uni045B
ENCODING 1115
SWIDTH 544 0
DWIDTH 11 0
BBX 10 14 0 0
BITMAP
05F4000000
05F4000000
BEFFEED000
05F4000000
05F4000000
05F43AC920
05FAA45DD0
05F90006F4
05F40004F6
05F40003F6
05F40003F6
05F40003F6
05F40003F6
05F40003F6
ENDCHAR
STARTCHAR uni045C
ENCODING 1116
SWIDTH 498 0
DWIDTH 10 0
BBX 9 15 1 0
BITMAP
000003B100
00002ED100
0001DC1000
0004B10000
0000000000
4C3001AE10
5F4009B100
5F402F3000
5F409C0000
5FFFF80000
5F408E1000
5F401E9000
5F4007F300
5F4000DC00
5F40005F60
ENDCHAR
STARTCHAR uni045D
ENCODING 1117
SWIDTH 565 0
DWIDTH 11 0
BBX 9 15 1 0
BITMAP
0087000000
00AF500000
0009F30000
0000870000
0000000000
5F40003FA0
5F4000CFA0
5F4007DDA0
5F402F5DA0
5F30CB0EA0
5F36E20EA0
5F4E600EA0
5FBC000EA0
5FF2000EA0
5F70000EA0
ENDCHAR
STARTCHAR uni045E
ENCODING 1118
SWIDTH 467 0
DWIDTH 9 0
BBX 9 18 0 -4
BITMAP
03F2007D00
00D912D800
002BFE9000
0000000000
9F20000AE0
3F70000E90
0CD0005F30
06F3009D00
01E900E800
009E04F300
003F48D000
000C9D8000
0006FF2000
0001EC0000
0001F70000
0006F10000
014E700000
3FE7000000
ENDCHAR
STARTCHAR uni045F
ENCODING 1119
SWIDTH 558 0
DWIDTH 11 0
BBX 9 13 1 -3
BITMAP
5F40002F80
5F40002F80
5F40002F80
5F40002F80
5F40002F80
5F40002F80
5F40002F80
5F40002F80
5F40002F80
5FFFFFFF80
0003F60000
0003F50000
0002F40000
ENDCHAR
STARTCHAR uni0462
ENCODING 1122
SWIDTH 614 0
DWIDTH 12 0
BBX 12 14 0 0
BITMAP
000580000000
000AF0000000
000AF0000000
7FFFFFFFFA00
000AF0000000
000AF0000000
000AF0000000
000AFFFEC710
000AF0026EC0
000AF00006F4
000AF00004F6
000AF00007F3
000AF0026EA0
000AFFFEC700
ENDCHAR
STARTCHAR uni0463
ENCODING 1123
SWIDTH 576 0
DWIDTH 12 0
BBX 11 13 0 0
BITMAP
000251000000
0007F3000000
0007F3000000
7FFFFFFFE000
0007F3000000
0007F3000000
0007F3000000
0007FFFEB500
0007F3029F50
0007F3000FA0
0007F3000F90
0007F3029F40
0007FFFEB500
ENDCHAR
STARTCHAR uni0472
ENCODING 1138
SWIDTH 664 0
DWIDTH 13 0
BBX 12 13 1 0
BITMAP
0029DFEA4000
04EB3029F700
1EC000009F40
7F4000001EB0
BE0000000AF1
DC00000008F3
EFFFFFFFFFF4
DB00000007F3
BD00000009F1
6F2000000DB0
1DB000006F40
03EA3028F700
0029DFEA3000
ENDCHAR
STARTCHAR uni0473
ENCODING 1139
SWIDTH 542 0
DWIDTH 11 0
BBX 10 10 0 0
BITMAP
0019DFD700
01DC314DB0
08E10003F6
0DA00000CB
1FFFFFFFFD
1F900000BD
0EB00000DB
08F30005F6
01DD304EB0
0019DFD700
ENDCHAR
STARTCHAR uni0474
ENCODING 1140
SWIDTH 529 0
DWIDTH 11 0
BBX 12 13 0 0
BITMAP
DE0000003DE1
8F300000DA10
3F800004F300
0DC00009E000
08F2000D9000
03F6002F5000
00DB007F1000
009F10BC0000
004F51F80000
000E94F30000
0009E8E00000
0004FEA00000
0000EF600000
ENDCHAR
STARTCHAR uni0475
ENCODING 1141
SWIDTH 477 0
DWIDTH 10 0
BBX 10 10 0 0
BITMAP
9F200005EC
4F60001E71
0DB0006E00
08F100BA00
03F601F600
00DB05F100
007F1AC000
002F5E7000
000CCF3000
0007FE0000
ENDCHAR
STARTCHAR uni0490
ENCODING 1168
SWIDTH 498 0
DWIDTH 10 0
BBX 9 17 1 0
BITMAP
0000000E80
0000000F70
0000001F70
0000002F60
3FFFFFFF60
3F70000000
3F70000000
3F70000000
3F70000000
3F70000000
3F70000000
3F70000000
3F70000000
3F70000000
3F70000000
3F70000000
3F70000000
ENDCHAR
STARTCHAR uni0491
ENCODING 1169
SWIDTH 416 0
DWIDTH 8 0
BBX 7 14 1 0
BITMAP
00000260
000007E0
000008E0
00000AD0
5FFFFFC0
5F400000
5F400000
5F400000
5F400000
5F400000
5F400000
5F400000
5F400000
5F400000
ENDCHAR
STARTCHAR uni0492
ENCODING 1170
SWIDTH 521 0
DWIDTH 10 0
BBX 10 13 0 0
BITMAP
00CFFFFFFC
00CE000000
00CE000000
00CE000000
00CE000000
00CE000000
5FFFFFD000
00CE000000
00CE000000
00CE000000
00CE000000
00CE000000
00CE000000
ENDCHAR
STARTCHAR uni0493
ENCODING 1171
SWIDTH 424 0
DWIDTH 8 0
BBX 8 10 0 0
BITMAP
01FFFFFF
01F80000
01F80000
01F80000
01F80000
6EFFFF30
01F80000
01F80000
01F80000
01F80000
ENDCHAR
STARTCHAR uni0496
ENCODING 1174
SWIDTH 847 0
DWIDTH 17 0
BBX 17 16 0 -3
BITMAP
9E70000BD00006EB00
02E5000BD0004E3000
007D000BD000C80000
001E600BD004F20000
000AC00BD00BB00000
0004F40BD03F500000
0001FFFFFFFF200000
0008E20BD01E900000
002F800BD006F30000
00BD100BD000DB0000
05F6000BD0004F5000
1EC0000BD0000BD000
9F40000BD00002FF60
000000000000003F60
000000000000003F50
000000000000003F40
ENDCHAR
STARTCHAR uni0497
ENCODING 1175
SWIDTH 718 0
DWIDTH 14 0
BBX 14 13 0 -3
BITMAP
5E8000E8002CE0
02D600E800C900
006D00E804F100
001F50E80BA000
000CFFFFFF6000
004F40E809C000
00CB00E802F500
05F400E800AC00
0DC000E8002F50
7F4000E8000AFF
0000000000009E
0000000000009D
0000000000009D
ENDCHAR
STARTCHAR uni0498
ENCODING 1176
SWIDTH 554 0
DWIDTH 11 0
BBX 10 16 1 -3
BITMAP
17CEFD9100
4E7214DD10
0100004F70
0000001F80
0000004F60
000015DC10
006FFFE400
0000128F80
00000009F2
00000006F4
4100000AF1
DD62029F70
18CEFEB400
0003F60000
0003F50000
0003F50000
ENDCHAR
STARTCHAR uni0499
ENCODING 1177
SWIDTH 456 0
DWIDTH 9 0
BBX 9 13 0 -3
BITMAP
06BDFD8000
086214E900
000000BD00
000015EA00
002FFFB100
000004D900
0000006F30
0000007F40
1B5214EC00
06CEFE9100
0005F30000
0005F30000
0004F20000
ENDCHAR
STARTCHAR uni049A
ENCODING 1178
SWIDTH 628 0
DWIDTH 13 0
BBX 12 16 1 -3
BITMAP
3F700002BF20
3F70000C9100
3F70006E1000
3F7001E70000
3F7007E10000
3F701E700000
3FFFFF300000
3F701DB00000
3F7004F60000
3F70009E1000
3F70001DA000
3F700004F500
3F7000009FF1
0000000009F0
0000000009E0
0000000009D0
ENDCHAR
STARTCHAR uni049B
ENCODING 1179
SWIDTH 536 0
DWIDTH 11 0
BBX 10 14 1 -4
BITMAP
5F4001AF20
5F4009B100
5F402F3000
5F409D0000
5FFFF80000
5F408D0000
5F401E6000
5F4007E100
5F4000D800
5F40005FF5
00000004F5
00000004F4
00000004F3
0000000271
ENDCHAR
STARTCHAR uni04A0
ENCODING 1184
SWIDTH 716 0
DWIDTH 14 0
BBX 15 13 0 0
BITMAP
7FFFFF300004DC00
00007F30002E4000
00007F3000A90000
00007F3003E10000
00007F300B700000
00007F304E100000
00007FFFFF300000
00007F304FC00000
00007F3008F70000
00007F3000DE2000
00007F30003FB000
00007F300008F500
00007F300000CE10
ENDCHAR
STARTCHAR uni04A1
ENCODING 1185
SWIDTH 614 0
DWIDTH 12 0
BBX 12 10 0 0
BITMAP
7FFFF90007E6
0001F9004E20
0001F900C800
0001F904F200
0001FFFFD000
0001F903F500
0001F900AD10
0001F9002F80
0001F90009F2
0001F90002EB
ENDCHAR
STARTCHAR uni04A2
ENCODING 1186
SWIDTH 661 0
DWIDTH 13 0
BBX 12 16 1 -3
BITMAP
3F7000007F40
3F7000007F40
3F7000007F40
3F7000007F40
3F7000007F40
3F7000007F40
3FFFFFFFFF40
3F7000007F40
3F7000007F40
3F7000007F40
3F7000007F40
3F7000007F40
3F7000007FFB
0000000000EA
0000000000E9
0000000000E8
ENDCHAR
STARTCHAR uni04A3
ENCODING 1187
SWIDTH 570 0
DWIDTH 11 0
BBX 10 13 1 -3
BITMAP
5F40000F90
5F40000F90
5F40000F90
5F40000F90
5FFFFFFF90
5F40000F90
5F40000F90
5F40000F90
5F40000F90
5F40000FFF
000000009F
000000009E
000000009D
ENDCHAR
STARTCHAR uni04AA
ENCODING 1194
SWIDTH 571 0
DWIDTH 11 0
BBX 10 16 1 -3
BITMAP
0017CEEC60
02DC4117E3
0CD1000010
6F50000000
AF00000000
DC00000000
EC00000000
DD00000000
BF00000000
6F50000000
1DD1000031
03EC4116E8
0029DFFB70
00000F8000
00000F8000
00000F7000
ENDCHAR
STARTCHAR uni04AB
ENCODING 1195
SWIDTH 456 0
DWIDTH 9 0
BBX 9 13 0 -3
BITMAP
0017DFE920
00CE513A10
07F4000000
0DD0000000
0FA0000000
1FA0000000
0ED0000000
08F4000000
01DE402A30
0019EFEA20
00006F3000
00005F2000
00005F1000
ENDCHAR
STARTCHAR uni04AE
ENCODING 1198
SWIDTH 476 0
DWIDTH 10 0
BBX 10 13 0 0
BITMAP
CE100006F4
4F70000DC0
0CD0005F50
04F600CC00
00CC04F500
005F4BC000
000CDF5000
0005FC0000
0001F90000
0001F90000
0001F90000
0001F90000
0001F90000
ENDCHAR
STARTCHAR uni04AF
ENCODING 1199
SWIDTH 467 0
DWIDTH 9 0
BBX 9 14 0 -4
BITMAP
9F20000AE0
3F70001F80
0DC0006F30
07F200BD00
02F701F700
00BC06F200
006F2BC000
001E7F6000
000AFF1000
0004FB0000
0001F80000
0001F80000
0001F80000
0001F80000
ENDCHAR
STARTCHAR uni04B0
ENCODING 1200
SWIDTH 476 0
DWIDTH 10 0
BBX 10 13 0 0
BITMAP
BE100006F4
4F70000DC0
0BD0005F40
03F600CB00
00BC04F400
003F4BB000
000ADF3000
0CFFFFFF60
0001F90000
0001F90000
0001F90000
0001F90000
0001F90000
ENDCHAR
STARTCHAR uni04B1
ENCODING 1201
SWIDTH 467 0
DWIDTH 9 0
BBX 9 14 0 -4
BITMAP
9F20000AE0
3F70001F80
0DC0006F30
07F200BD00
02F701F700
00BC06F200
006F2BC000
001F7F6000
000AFF1000
1DEFFFEE50
0001F80000
0001F80000
0001F80000
0001F80000
ENDCHAR
STARTCHAR uni04B2
ENCODING 1202
SWIDTH 551 0
DWIDTH 11 0
BBX 11 16 0 -3
BITMAP
3FA00005F700
09F3000CD000
01EB005F5000
007F40DB0000
000DC6F30000
0004FE900000
0001FF400000
0009EDB00000
003F75F40000
00BE10CC0000
04F6004F5000
0DD0000AD000
6F500002FF80
000000001F70
000000001F60
000000001F60
ENDCHAR
STARTCHAR uni04B3
ENCODING 1203
SWIDTH 482 0
DWIDTH 10 0
BBX 10 13 0 -3
BITMAP
3F90009F20
08F302F800
01DB0AD100
005F8F5000
000BFB0000
001EFC0000
009E5F5000
03F60AD100
0CC002E700
6F40007FF3
00000005F3
00000005F2
00000005F2
ENDCHAR
STARTCHAR uni04B6
ENCODING 1206
SWIDTH 607 0
DWIDTH 12 0
BBX 11 16 1 -3
BITMAP
AF000008F200
AF000008F200
AF000008F200
9F100008F200
6F400008F200
1DD51019F200
019DEFEEF200
00000008F200
00000008F200
00000008F200
00000008F200
00000008F200
00000008FF90
000000000F90
000000000F80
000000000F70
ENDCHAR
STARTCHAR uni04B7
ENCODING 1207
SWIDTH 520 0
DWIDTH 10 0
BBX 9 13 1 -3
BITMAP
CC0001F900
CC0001F900
CC0001F900
BE0001F900
6F8202F900
06CEFEF900
000001F900
000001F900
000001F900
000001FFF0
00000008F0
00000008E0
00000008D0
ENDCHAR
STARTCHAR uni04BA
ENCODING 1210
SWIDTH 598 0
DWIDTH 12 0
BBX 10 13 1 0
BITMAP
3F70000000
3F70000000
3F70000000
3F70000000
3F70000000
3FEEFEC810
3F81015EC0
3F700005F5
3F700001F8
3F700000F9
3F700000F9
3F700000F9
3F700000F9
ENDCHAR
STARTCHAR uni04BB
ENCODING 1211
SWIDTH 544 0
DWIDTH 11 0
BBX 9 14 1 0
BITMAP
5F40000000
5F40000000
5F40000000
5F40000000
5F45DEC300
5FB812CE00
5F70005F40
5F40004F60
5F40003F60
5F40003F60
5F40003F60
5F40003F60
5F40003F60
5F40003F60
ENDCHAR
STARTCHAR uni04C0
ENCODING 1216
SWIDTH 263 0
DWIDTH 5 0
BBX 3 13 1 0
BITMAP
3F70
3F70
3F70
3F70
3F70
3F70
3F70
3F70
3F70
3F70
3F70
3F70
3F70
ENDCHAR
STARTCHAR uni04C1
ENCODING 1217
SWIDTH 805 0
DWIDTH 16 0
BBX 16 17 0 0
BITMAP
00000E8007E00000
000009D22D900000
000001AEEA100000
0000000000000000
9E70000BD00006EB
02E5000BD0004E30
007D000BD000C800
001E600BD004F200
000AC00BD00BB000
0004F40BD03F5000
0001FFFFFFFF2000
0008E20BD01EA000
002F800BD006F400
00BD100BD000DC00
05F6000BD0004F70
1EC0000BD0000BE1
9F40000BD00002FA
ENDCHAR
STARTCHAR uni04C2
ENCODING 1218
SWIDTH 681 0
DWIDTH 14 0
BBX 14 14 0 0
BITMAP
0004F2007D0000
0000D913D80000
00002BFE800000
00000000000000
5E8000B6002CE0
02D600E800C900
006D00E804F100
001F50E80BA000
000CFFFFFF6000
004F40E809D000
00CB00E802F600
05F400E800AE10
0DC000E8002F80
7F4000E8000AF2
ENDCHAR
STARTCHAR uni04CF
ENCODING 1231
SWIDTH 255 0
DWIDTH 5 0
BBX 4 14 1 0
BITMAP
5F40
5F40
5F40
5F40
5F40
5F40
5F40
5F40
5F40
5F40
5F40
5F40
4F60
0BF3
ENDCHAR
STARTCHAR uni04D0
ENCODING 1232
SWIDTH 544 0
DWIDTH 11 0
BBX 11 17 0 0
BITMAP
007E001F5000
003F618E1000
0005DFD40000
000000000000
0000AF800000
0001ECD00000
0005F5F30000
000AC0E90000
001F70AE0000
006F305F4000
00BD001F9000
01F9000CE000
06FFFFFFF400
0BD00001F900
1F800000BE00
6F4000006F40
CE0000002FA0
ENDCHAR
STARTCHAR uni04D1
ENCODING 1233
SWIDTH 504 0
DWIDTH 10 0
BBX 8 14 1 0
BITMAP
0C8001F4
07D319D1
008EFC30
00000000
27CEFC40
3C511CE1
000003F7
000001F9
0059CEFA
2DE841FA
CE1000FA
EA0001FA
AE304CEA
1AEE91BA
ENDCHAR
STARTCHAR uni04D4
ENCODING 1236
SWIDTH 822 0
DWIDTH 16 0
BBX 16 13 0 0
BITMAP
0000003FFFFFFFF4
000000BDFB000000
000004F5FB000000
00000CD0FB000000
00005F50FB000000
0000DD00FB000000
0006F500FFFFFF50
001DC000FB000000
007FFFFFFB000000
01EA0000FB000000
08F30000FB000000
1EA00000FB000000
9F300000FFFFFFF7
ENDCHAR
STARTCHAR uni04D5
ENCODING 1237
SWIDTH 785 0
DWIDTH 16 0
BBX 14 10 1 0
BITMAP
17BEEB207DEC40
2C612AC8C207F3
000002FF2000C9
000013FB00009C
018DFCFD9999CE
3ED510EC666665
BE1000CC000000
CC0001CF300000
8F414C9AE51392
19EEB4007DFDA3
ENDCHAR
STARTCHAR uni04D6
ENCODING 1238
SWIDTH 527 0
DWIDTH 11 0
BBX 9 17 1 0
BITMAP
04F300C900
00DA15F400
003CFE7000
0000000000
3FFFFFFF50
3F70000000
3F70000000
3F70000000
3F70000000
3F70000000
3FFFFFF700
3F70000000
3F70000000
3F70000000
3F70000000
3F70000000
3FFFFFFF80
ENDCHAR
STARTCHAR uni04D7
ENCODING 1239
SWIDTH 496 0
DWIDTH 10 0
BBX 10 14 0 0
BITMAP
00B9000F50
006E318E10
0007EFC300
0000000000
0018DFC600
01CC315F50
08E10008D0
0DA00005F2
1FFFFFFFF2
1FA0000000
0DC0000000
08F4000000
01CE502650
0018DFDB40
ENDCHAR
STARTCHAR uni04D8
ENCODING 1240
SWIDTH 658 0
DWIDTH 13 0
BBX 12 13 1 0
BITMAP
006BEFEB4000
04F82028F700
001000008F30
000000001EA0
000000000BE0
0000000009F1
CFFFFFFFFFF2
CE00000009F1
9F1000000CE0
5F5000001F90
0DC000009F30
03EB3029F600
0029DFEA3000
ENDCHAR
STARTCHAR uni04D9
ENCODING 1241
SWIDTH 496 0
DWIDTH 10 0
BBX 9 10 0 0
BITMAP
03ADFE9100
048313CD10
0000002E70
0000000BC0
4FFFFFFFE0
4F30000BE0
2F50000DC0
0C90004F70
04F713DC10
004CFE9100
ENDCHAR
STARTCHAR uni04E2
ENCODING 1250
SWIDTH 656 0
DWIDTH 13 0
BBX 11 15 1 0
BITMAP
001FFFFF5000
000000000000
3F700000BF50
3F700005FF50
3F70001DBF50
3F70008E5F50
3F7002E84F50
3F700AE14F50
3F704F605F50
3F60DC005F50
3F66F3005F50
3F5E90005F50
3FBE10005F50
3FF700005F50
3FD000005F50
ENDCHAR
STARTCHAR uni04E3
ENCODING 1251
SWIDTH 565 0
DWIDTH 11 0
BBX 9 13 1 0
BITMAP
00FFFFF500
0000000000
0000000000
5F40003FA0
5F4000CFA0
5F4007DDA0
5F402F5DA0
5F30CB0EA0
5F36E20EA0
5F4E600EA0
5FBC000EA0
5FF2000EA0
5F70000EA0
ENDCHAR
STARTCHAR uni04E6
ENCODING 1254
SWIDTH 664 0
DWIDTH 13 0
BBX 12 16 1 0
BITMAP
003E502E7000
003E502E7000
000000000000
0029DFEA3000
03EC3029F600
1DC100009F30
6F4000001EB0
BE0000000BF1
DC00000008F3
EC00000008F4
DC00000008F3
BF0000000BF0
6F5000001FA0
1DD100009F30
03EC3029F600
0019DFEA3000
ENDCHAR
STARTCHAR uni04E7
ENCODING 1255
SWIDTH 542 0
DWIDTH 11 0
BBX 10 14 0 0
BITMAP
004E406E30
005E406E30
0000000000
0000000000
0018DFD700
01CD305EA0
08F30006F5
0DC00000FB
1FA00000DD
1FA00000DD
0DC00000EB
08F30006F5
01CD305EA0
0018DFD700
ENDCHAR
STARTCHAR uni04E8
ENCODING 1256
SWIDTH 664 0
DWIDTH 13 0
BBX 12 13 1 0
BITMAP
0029DFEA4000
04EB3029F700
1EC000009F40
7F4000001EB0
BE0000000AF1
DC00000008F3
EFFFFFFFFFF4
DB00000007F3
BD00000009F1
6F2000000DB0
1DB000006F40
03EA3028F700
0029DFEA3000
ENDCHAR
STARTCHAR uni04E9
ENCODING 1257
SWIDTH 542 0
DWIDTH 11 0
BBX 10 10 0 0
BITMAP
0019DFD700
01DC314DB0
08E10003F6
0DA00000CB
1FFFFFFFFD
1F900000BD
0EB00000DB
08F30005F6
01DD304EB0
0019DFD700
ENDCHAR
STARTCHAR uni04EE
ENCODING 1262
SWIDTH 514 0
DWIDTH 10 0
BBX 11 15 0 0
BITMAP
00AFFFFB0000
000000000000
AF2000009F10
3F800001EA00
0AE00006F400
03F6000CD000
00BC003F6000
003F409E1000
000BA1E90000
0004F6F30000
0000BFC00000
00008F600000
0000CE000000
0006F6000000
06FD70000000
ENDCHAR
STARTCHAR uni04EF
ENCODING 1263
SWIDTH 467 0
DWIDTH 9 0
BBX 9 17 0 -4
BITMAP
00CFFFF800
0000000000
0000000000
9F20000AE0
3F70000E90
0CD0005F30
06F3009D00
01E900E800
009E04F300
003F48D000
000C9D8000
0006FF2000
0001EC0000
0001F70000
0006F10000
014E700000
3FE7000000
ENDCHAR
STARTCHAR uni04F2
ENCODING 1266
SWIDTH 514 0
DWIDTH 10 0
BBX 11 17 0 0
BITMAP
00007905B000
0003E31E5000
000A50870000
000000000000
AF2000009F10
3F800001EA00
0AE00006F400
03F6000CD000
00BC003F6000
003F409E1000
000BA1E90000
0004F6F30000
0000BFC00000
00008F600000
0000CE000000
0006F6000000
06FD70000000
ENDCHAR
STARTCHAR uni04F3
ENCODING 1267
SWIDTH 467 0
DWIDTH 9 0
BBX 9 20 0 -4
BITMAP
0000000100
0000970B90
0002F43F20
0009B0B800
000C207100
0000000000
9F20000AE0
3F70000E90
0CD0005F30
06F3009D00
01E900E800
009E04F300
003F48D000
000C9D8000
0006FF2000
0001EC0000
0001F70000
0006F10000
014E700000
3FE7000000
ENDCHAR
STARTCHAR a.sups
ENCODING 7491
SWIDTH 345 0
DWIDTH 7 0
BBX 6 6 0 8
BITMAP
06CFD4
06318C
029CFE
1E835E
3F219E
09ED6C
ENDCHAR
STARTCHAR b.sups
ENCODING 7495
SWIDTH 374 0
DWIDTH 7 0
BBX 6 9 1 8
BITMAP
E40000
E40000
E40000
E9DEA1
EA12D8
E4008B
E4008B
E813E6
E8EE80
ENDCHAR
STARTCHAR d.sups
ENCODING 7496
SWIDTH 374 0
DWIDTH 7 0
BBX 7 9 0 8
BITMAP
00000C70
00000C70
00000C70
03CEBD70
1E813D70
4F000C70
4F000C70
1E714E70
04CEA960
ENDCHAR
STARTCHAR e.sups
ENCODING 7497
SWIDTH 336 0
DWIDTH 7 0
BBX 7 6 0 8
BITMAP
03BEC400
1D404E10
5FFFFF20
5D000000
1E812400
03CED700
ENDCHAR
STARTCHAR g.sups
ENCODING 7501
SWIDTH 343 0
DWIDTH 7 0
BBX 7 9 0 5
BITMAP
06DECC70
1F419A20
1E419A00
09EFC200
0F200000
0BFFFC30
3C001B90
5D203D50
09EEC600
ENDCHAR
STARTCHAR k.sups
ENCODING 7503
SWIDTH 337 0
DWIDTH 7 0
BBX 6 9 1 8
BITMAP
E40000
E40000
E40000
E407C1
E46D10
E9F500
EE8D10
E50B90
E402E4
ENDCHAR
STARTCHAR m.sups
ENCODING 7504
SWIDTH 559 0
DWIDTH 11 0
BBX 10 6 1 8
BITMAP
C5DE84DE80
EA24FA15F1
E400F400F3
E400F400F3
E400F400F3
E400F400F3
ENDCHAR
STARTCHAR o.sups
ENCODING 7506
SWIDTH 365 0
DWIDTH 7 0
BBX 7 6 0 8
BITMAP
03BED600
1E714F40
5E000A90
5E000A90
1E714F40
03BED600
ENDCHAR
STARTCHAR p.sups
ENCODING 7510
SWIDTH 374 0
DWIDTH 7 0
BBX 6 9 1 5
BITMAP
E7DEA1
EA12D8
E4008B
E4008B
E813E6
EAEE80
E40000
E40000
E40000
ENDCHAR
STARTCHAR t.sups
ENCODING 7511
SWIDTH 232 0
DWIDTH 5 0
BBX 5 8 0 8
BITMAP
088000
0A8000
AFFF40
0B8000
0B8000
0B8000
0AA110
03DF50
ENDCHAR
STARTCHAR u.sups
ENCODING 7512
SWIDTH 370 0
DWIDTH 7 0
BBX 6 6 1 8
BITMAP
F400D6
F400D6
F400D6
F400D6
D816F6
5EE8A6
ENDCHAR
STARTCHAR v.sups
ENCODING 7515
SWIDTH 321 0
DWIDTH 6 0
BBX 7 6 0 8
BITMAP
A9002F10
4E007A00
0D40D400
07A3D000
02E98000
00BF2000
ENDCHAR
STARTCHAR c.sups
ENCODING 7580
SWIDTH 306 0
DWIDTH 6 0
BBX 6 6 0 8
BITMAP
03BED5
1E8132
5E0000
5E0000
1E8123
03CED6
ENDCHAR
STARTCHAR f.sups
ENCODING 7584
SWIDTH 201 0
DWIDTH 4 0
BBX 5 9 0 8
BITMAP
02CE40
09B100
0B8000
9FFD00
0B8000
0B8000
0B8000
0B8000
0B8000
ENDCHAR
STARTCHAR z.sups
ENCODING 7611
SWIDTH 290 0
DWIDTH 6 0
BBX 6 6 0 8
BITMAP
3FFFF5
000AD1
007E20
05F400
3E6000
9FFFF7
ENDCHAR
STARTCHAR uni1E06
ENCODING 7686
SWIDTH 588 0
DWIDTH 12 0
BBX 10 16 1 -3
BITMAP
3FFFFEC600
3F70027FA0
3F70000AF2
3F700007F2
3F70000AD0
3F70028E40
3FFFFFFC60
3F70014BF7
3F700000DD
3F700000BE
3F700001EB
3F70014CE3
3FFFFEC920
0000000000
0000000000
00AFFFFA00
ENDCHAR
STARTCHAR uni1E07
ENCODING 7687
SWIDTH 553 0
DWIDTH 11 0
BBX 10 17 1 -3
BITMAP
5F40000000
5F40000000
5F40000000
5F40000000
5F47DFC400
5FD712BF40
5F50001EB0
5F40000AF0
5F400009F1
5F40000AF1
5F40000CE0
5F50003F90
5FD513DD10
5F29EEA200
0000000000
0000000000
00FFFFF500
ENDCHAR
STARTCHAR uni1E0C
ENCODING 7692
SWIDTH 615 0
DWIDTH 12 0
BBX 11 17 1 -4
BITMAP
3FFFFDA30000
3F7013AF7000
3F700008F400
3F700001EC00
3F700000AF10
3F7000007F30
3F7000007F40
3F7000008F30
3F700000AF10
3F700001EB00
3F700009F400
3F7013AF6000
3FFFFD930000
000000000000
000000000000
0000BD100000
0000BD100000
ENDCHAR
STARTCHAR uni1E0D
ENCODING 7693
SWIDTH 555 0
DWIDTH 11 0
BBX 10 18 0 -4
BITMAP
00000003F7
00000003F7
00000003F7
00000003F7
0019EEB5F7
01CE414CF7
08F40003F7
0DD00003F7
0FB00003F7
1FA00003F7
0EC00003F7
0AF20004F7
02EC205CF7
003BEE91E7
0000000000
0000000000
00000CD000
00000CD100
ENDCHAR
STARTCHAR uni1E0E
ENCODING 7694
SWIDTH 615 0
DWIDTH 12 0
BBX 11 16 1 -3
BITMAP
3FFFFDA30000
3F7013AF7000
3F700008F400
3F700001EC00
3F700000AF10
3F7000007F30
3F7000007F40
3F7000008F30
3F700000AF10
3F700001EB00
3F700009F400
3F7013AF6000
3FFFFD930000
000000000000
000000000000
009FFFFB0000
ENDCHAR
STARTCHAR uni1E0F
ENCODING 7695
SWIDTH 555 0
DWIDTH 11 0
BBX 10 17 0 -3
BITMAP
00000003F7
00000003F7
00000003F7
00000003F7
0019EEB5F7
01CE414CF7
08F40003F7
0DD00003F7
0FB00003F7
1FA00003F7
0EC00003F7
0AF20004F7
02EC205CF7
003BEE91E7
0000000000
0000000000
000AFFFFA0
ENDCHAR
STARTCHAR uni1E16
ENCODING 7702
SWIDTH 527 0
DWIDTH 11 0
BBX 9 19 1 0
BITMAP
0000077000
00009E4000
0002B20000
0000000000
01FFFFF500
0000000000
3FFFFFFF50
3F70000000
3F70000000
3F70000000
3F70000000
3F70000000
3FFFFFF700
3F70000000
3F70000000
3F70000000
3F70000000
3F70000000
3FFFFFFF80
ENDCHAR
STARTCHAR uni1E17
ENCODING 7703
SWIDTH 496 0
DWIDTH 10 0
BBX 10 17 0 0
BITMAP
000002B200
00004EB100
0000A60000
0000000000
005FFFFE00
0000000000
0000000000
0018DFC600
01CC315F50
08E10008D0
0DA00005F2
1FFFFFFFF2
1FA0000000
0DC0000000
08F4000000
01CE502650
0018DFDB40
ENDCHAR
STARTCHAR uni1E20
ENCODING 7712
SWIDTH 617 0
DWIDTH 12 0
BBX 10 15 1 0
BITMAP
0009FFFFB0
0000000000
0017CEFD92
02DD5114D8
0CD1000010
6F50000000
BF00000000
DC00000000
EC00000000
DD0004FFFF
BF0000008F
6F5000008F
0DD100008F
02DD5114CE
0018CEED82
ENDCHAR
STARTCHAR uni1E21
ENCODING 7713
SWIDTH 504 0
DWIDTH 10 0
BBX 10 17 0 -4
BITMAP
005FFFFF00
0000000000
0000000000
002AEFFFFA
02EA12CE10
09F1003F50
0BD0001F70
09F1003F40
02EA12CB00
01CCEE9100
07E2000000
01DEFFFD91
07C00004F9
0E600000CC
1F700002F9
0AE6114DD1
007CEFC710
ENDCHAR
STARTCHAR uni1E24
ENCODING 7716
SWIDTH 652 0
DWIDTH 13 0
BBX 11 17 1 -4
BITMAP
3F7000007F40
3F7000007F40
3F7000007F40
3F7000007F40
3F7000007F40
3F7000007F40
3FFFFFFFFF40
3F7000007F40
3F7000007F40
3F7000007F40
3F7000007F40
3F7000007F40
3F7000007F40
000000000000
000000000000
00005E500000
00005E600000
ENDCHAR
STARTCHAR uni1E25
ENCODING 7717
SWIDTH 544 0
DWIDTH 11 0
BBX 9 18 1 -4
BITMAP
5F40000000
5F40000000
5F40000000
5F40000000
5F45DEC300
5FB812CE00
5F70005F40
5F40004F60
5F40003F60
5F40003F60
5F40003F60
5F40003F60
5F40003F60
5F40003F60
0000000000
0000000000
0003E80000
0003E80000
ENDCHAR
STARTCHAR uni1E2A
ENCODING 7722
SWIDTH 652 0
DWIDTH 13 0
BBX 11 18 1 -5
BITMAP
3F7000007F40
3F7000007F40
3F7000007F40
3F7000007F40
3F7000007F40
3F7000007F40
3FFFFFFFFF40
3F7000007F40
3F7000007F40
3F7000007F40
3F7000007F40
3F7000007F40
3F7000007F40
000000000000
000000000000
007800087000
003E515E3000
0005CEC50000
ENDCHAR
STARTCHAR uni1E2B
ENCODING 7723
SWIDTH 544 0
DWIDTH 11 0
BBX 9 19 1 -5
BITMAP
5F40000000
5F40000000
5F40000000
5F40000000
5F45DEC300
5FB812CE00
5F70005F40
5F40004F60
5F40003F60
5F40003F60
5F40003F60
5F40003F60
5F40003F60
5F40003F60
0000000000
0000000000
04B0005A00
01E713D600
003CED7000
ENDCHAR
STARTCHAR uni1E32
ENCODING 7730
SWIDTH 579 0
DWIDTH 12 0
BBX 11 17 1 -4
BITMAP
3F700007F700
3F70004F9000
3F7003EC0000
3F701DD10000
3F70CE300000
3F79FE200000
3FDF9FA00000
3FFA08F40000
3FB001EC0000
3F70006F7000
3F70000CE100
3F700004F900
3F700000AF30
000000000000
000000000000
00005E600000
00005E600000
ENDCHAR
STARTCHAR uni1E33
ENCODING 7731
SWIDTH 495 0
DWIDTH 10 0
BBX 9 18 1 -4
BITMAP
5F40000000
5F40000000
5F40000000
5F40000000
5F4001DC10
5F400AE200
5F407F4000
5F43F70000
5F5DF50000
5FDDDD1000
5FE34F8000
5F6009F300
5F4001EC00
5F40006F60
0000000000
0000000000
0006E40000
0006E40000
ENDCHAR
STARTCHAR uni1E34
ENCODING 7732
SWIDTH 579 0
DWIDTH 12 0
BBX 11 16 1 -3
BITMAP
3F700007F700
3F70004F9000
3F7003EC0000
3F701DD10000
3F70CE300000
3F79FE200000
3FDF9FA00000
3FFA08F40000
3FB001EC0000
3F70006F7000
3F70000CE100
3F700004F900
3F700000AF30
000000000000
000000000000
002FFFFF2000
ENDCHAR
STARTCHAR uni1E35
ENCODING 7733
SWIDTH 495 0
DWIDTH 10 0
BBX 9 17 1 -3
BITMAP
5F40000000
5F40000000
5F40000000
5F40000000
5F4001DC10
5F400AE200
5F407F4000
5F43F70000
5F5DF50000
5FDDDD1000
5FE34F8000
5F6009F300
5F4001EC00
5F40006F60
0000000000
0000000000
04FFFFF100
ENDCHAR
STARTCHAR uni1E36
ENCODING 7734
SWIDTH 486 0
DWIDTH 10 0
BBX 9 17 1 -4
BITMAP
3F70000000
3F70000000
3F70000000
3F70000000
3F70000000
3F70000000
3F70000000
3F70000000
3F70000000
3F70000000
3F70000000
3F70000000
3FFFFFFF30
0000000000
0000000000
0002E90000
0002E90000
ENDCHAR
STARTCHAR uni1E37
ENCODING 7735
SWIDTH 255 0
DWIDTH 5 0
BBX 4 18 1 -4
BITMAP
5F40
5F40
5F40
5F40
5F40
5F40
5F40
5F40
5F40
5F40
5F40
5F40
4F60
0BF3
0000
0000
0AD1
0AD1
ENDCHAR
STARTCHAR uni1E38
ENCODING 7736
SWIDTH 486 0
DWIDTH 10 0
BBX 10 19 0 -4
BITMAP
FFFFF60000
0000000000
03F7000000
03F7000000
03F7000000
03F7000000
03F7000000
03F7000000
03F7000000
03F7000000
03F7000000
03F7000000
03F7000000
03F7000000
03FFFFFFF3
0000000000
0000000000
00002E9000
00002E9000
ENDCHAR
STARTCHAR uni1E39
ENCODING 7737
SWIDTH 255 0
DWIDTH 5 0
BBX 7 21 -1 -4
BITMAP
3FFFFF10
00000000
00000000
005F4000
005F4000
005F4000
005F4000
005F4000
005F4000
005F4000
005F4000
005F4000
005F4000
005F4000
005F4000
004F6000
000BF300
00000000
00000000
000AD100
000AD100
ENDCHAR
STARTCHAR uni1E3A
ENCODING 7738
SWIDTH 486 0
DWIDTH 10 0
BBX 9 16 1 -3
BITMAP
3F70000000
3F70000000
3F70000000
3F70000000
3F70000000
3F70000000
3F70000000
3F70000000
3F70000000
3F70000000
3F70000000
3F70000000
3FFFFFFF30
0000000000
0000000000
00DFFFF600
ENDCHAR
STARTCHAR uni1E3B
ENCODING 7739
SWIDTH 255 0
DWIDTH 5 0
BBX 6 17 0 -3
BITMAP
05F400
05F400
05F400
05F400
05F400
05F400
05F400
05F400
05F400
05F400
05F400
05F400
04F600
00BF30
000000
000000
8FFFFC
ENDCHAR
STARTCHAR uni1E3E
ENCODING 7742
SWIDTH 727 0
DWIDTH 15 0
BBX 12 17 1 0
BITMAP
000000097000
000002CD4000
000008910000
000000000000
3FE0000007FB
3FF500000CFB
3FBB00003FBB
3F7F10008BBB
3F4E6000D6BB
3F49C004F1CB
3F43F209A0CB
3F40D80E50CB
3F407D4E00CB
3F402FC900CB
3F400BF300CB
3F40049000CB
3F40000000CB
ENDCHAR
STARTCHAR uni1E3F
ENCODING 7743
SWIDTH 829 0
DWIDTH 17 0
BBX 15 15 1 0
BITMAP
0000000059000000
00000004FB100000
0000003EA0000000
0000006900000000
0000000000000000
5F17DEB218EE9100
5FC613ECC614F900
5F60009F6000BE00
5F40007F30009F00
5F40007F30009F10
5F40007F30009F10
5F40007F30009F10
5F40007F30009F10
5F40007F30009F10
5F40007F30009F10
ENDCHAR
STARTCHAR uni1E40
ENCODING 7744
SWIDTH 727 0
DWIDTH 15 0
BBX 12 16 1 0
BITMAP
00000AE30000
00000AE30000
000000000000
3FE0000007FB
3FF500000CFB
3FBB00003FBB
3F7F10008BBB
3F4E6000D6BB
3F49C004F1CB
3F43F209A0CB
3F40D80E50CB
3F407D4E00CB
3F402FC900CB
3F400BF300CB
3F40049000CB
3F40000000CB
ENDCHAR
STARTCHAR uni1E41
ENCODING 7745
SWIDTH 829 0
DWIDTH 17 0
BBX 15 14 1 0
BITMAP
0000007E40000000
0000007E40000000
0000000000000000
0000000000000000
5F17DEB218EE9100
5FC613ECC614F900
5F60009F6000BE00
5F40007F30009F00
5F40007F30009F10
5F40007F30009F10
5F40007F30009F10
5F40007F30009F10
5F40007F30009F10
5F40007F30009F10
ENDCHAR
STARTCHAR uni1E42
ENCODING 7746
SWIDTH 727 0
DWIDTH 15 0
BBX 12 17 1 -4
BITMAP
3FE0000007FB
3FF500000CFB
3FBB00003FBB
3F7F10008BBB
3F4E6000D6BB
3F49C004F1CB
3F43F209A0CB
3F40D80E50CB
3F407D4E00CB
3F402FC900CB
3F400BF300CB
3F40049000CB
3F40000000CB
000000000000
000000000000
000008E30000
000008E30000
ENDCHAR
STARTCHAR uni1E43
ENCODING 7747
SWIDTH 829 0
DWIDTH 17 0
BBX 15 14 1 -4
BITMAP
5F17DEB218EE9100
5FC613ECC614F900
5F60009F6000BE00
5F40007F30009F00
5F40007F30009F10
5F40007F30009F10
5F40007F30009F10
5F40007F30009F10
5F40007F30009F10
5F40007F30009F10
0000000000000000
0000000000000000
0000005E50000000
0000005E60000000
ENDCHAR
STARTCHAR uni1E44
ENCODING 7748
SWIDTH 647 0
DWIDTH 13 0
BBX 11 16 1 0
BITMAP
00006E600000
00006E600000
000000000000
3FC000007F20
3FF600007F20
3FBE10007F20
3F5E80007F20
3F58F2007F20
3F51EB007F20
3F605F407F20
3F600CD06F20
3F6003F76F20
3F60009E6F20
3F60001EBF20
3F600007FF20
3F600000DF20
ENDCHAR
STARTCHAR uni1E45
ENCODING 7749
SWIDTH 547 0
DWIDTH 11 0
BBX 9 14 1 0
BITMAP
0001DA0000
0001DA0000
0000000000
0000000000
5F17DEC300
5FC712CE00
5F60005F40
5F40004F60
5F40003F60
5F40003F60
5F40003F60
5F40003F60
5F40003F60
5F40003F60
ENDCHAR
STARTCHAR uni1E46
ENCODING 7750
SWIDTH 647 0
DWIDTH 13 0
BBX 11 17 1 -4
BITMAP
3FC000007F20
3FF600007F20
3FBE10007F20
3F5E80007F20
3F58F2007F20
3F51EB007F20
3F605F407F20
3F600CD06F20
3F6003F76F20
3F60009E6F20
3F60001EBF20
3F600007FF20
3F600000DF20
000000000000
000000000000
00004E600000
00005E600000
ENDCHAR
STARTCHAR uni1E47
ENCODING 7751
SWIDTH 547 0
DWIDTH 11 0
BBX 9 14 1 -4
BITMAP
5F17DEC300
5FC712CE00
5F60005F40
5F40004F60
5F40003F60
5F40003F60
5F40003F60
5F40003F60
5F40003F60
5F40003F60
0000000000
0000000000
0004E60000
0004E60000
ENDCHAR
STARTCHAR uni1E48
ENCODING 7752
SWIDTH 647 0
DWIDTH 13 0
BBX 11 16 1 -3
BITMAP
3FC000007F20
3FF600007F20
3FBE10007F20
3F5E80007F20
3F58F2007F20
3F51EB007F20
3F605F407F20
3F600CD06F20
3F6003F76F20
3F60009E6F20
3F60001EBF20
3F600007FF20
3F600000DF20
000000000000
000000000000
001FFFFF3000
ENDCHAR
STARTCHAR uni1E49
ENCODING 7753
SWIDTH 547 0
DWIDTH 11 0
BBX 9 13 1 -3
BITMAP
5F17DEC300
5FC712CE00
5F60005F40
5F40004F60
5F40003F60
5F40003F60
5F40003F60
5F40003F60
5F40003F60
5F40003F60
0000000000
0000000000
01FFFFF400
ENDCHAR
STARTCHAR uni1E52
ENCODING 7762
SWIDTH 664 0
DWIDTH 13 0
BBX 12 19 1 0
BITMAP
000000770000
000009E40000
00002B200000
000000000000
001FFFFF5000
000000000000
0029DFEA3000
03EC3029F600
1DC100009F30
6F4000001EB0
BE0000000BF1
DC00000008F3
EC00000008F4
DC00000008F3
BF0000000BF0
6F5000001FA0
1DD100009F30
03EC3029F600
0019DFEA3000
ENDCHAR
STARTCHAR uni1E53
ENCODING 7763
SWIDTH 542 0
DWIDTH 11 0
BBX 10 17 0 0
BITMAP
000001B300
00003DC200
0000970000
0000000000
004FFFFF10
0000000000
0000000000
0018DFD700
01CD305EA0
08F30006F5
0DC00000FB
1FA00000DD
1FA00000DD
0DC00000EB
08F30006F5
01CD305EA0
0018DFD700
ENDCHAR
STARTCHAR uni1E58
ENCODING 7768
SWIDTH 569 0
DWIDTH 11 0
BBX 10 16 1 0
BITMAP
0003EA0000
0003EA0000
0000000000
3FFFFEC710
3F70015EC0
3F700005F5
3F700003F7
3F700006F6
3F70016EE1
3FFFFFFD30
3F700DC000
3F7006F400
3F7000CC00
3F70005F60
3F70000CE1
3F700004F9
ENDCHAR
STARTCHAR uni1E59
ENCODING 7769
SWIDTH 347 0
DWIDTH 7 0
BBX 6 14 1 0
BITMAP
008E30
008E30
000000
000000
5F18EC
5FA611
5F7000
5F4000
5F4000
5F4000
5F4000
5F4000
5F4000
5F4000
ENDCHAR
STARTCHAR uni1E5A
ENCODING 7770
SWIDTH 569 0
DWIDTH 11 0
BBX 10 17 1 -4
BITMAP
3FFFFEC710
3F70015EC0
3F700005F5
3F700003F7
3F700006F6
3F70016EE1
3FFFFFFD30
3F700DC000
3F7006F400
3F7000CC00
3F70005F60
3F70000CE1
3F700004F9
0000000000
0000000000
0000BD1000
0000CD1000
ENDCHAR
STARTCHAR uni1E5B
ENCODING 7771
SWIDTH 347 0
DWIDTH 7 0
BBX 6 14 1 -4
BITMAP
5F18EC
5FA611
5F7000
5F4000
5F4000
5F4000
5F4000
5F4000
5F4000
5F4000
000000
000000
6E4000
6E4000
ENDCHAR
STARTCHAR uni1E5C
ENCODING 7772
SWIDTH 569 0
DWIDTH 11 0
BBX 10 19 1 -4
BITMAP
00EFFFF700
0000000000
3FFFFEC710
3F70015EC0
3F700005F5
3F700003F7
3F700006F6
3F70016EE1
3FFFFFFD30
3F700DC000
3F7006F400
3F7000CC00
3F70005F60
3F70000CE1
3F700004F9
0000000000
0000000000
0000BD1000
0000CD1000
ENDCHAR
STARTCHAR uni1E5D
ENCODING 7773
SWIDTH 347 0
DWIDTH 7 0
BBX 6 17 1 -4
BITMAP
5FFFFF
000000
000000
5F18EC
5FA611
5F7000
5F4000
5F4000
5F4000
5F4000
5F4000
5F4000
5F4000
000000
000000
6E4000
6E4000
ENDCHAR
STARTCHAR uni1E5E
ENCODING 7774
SWIDTH 569 0
DWIDTH 11 0
BBX 10 16 1 -3
BITMAP
3FFFFEC710
3F70015EC0
3F700005F5
3F700003F7
3F700006F6
3F70016EE1
3FFFFFFD30
3F700DC000
3F7006F400
3F7000CC00
3F70005F60
3F70000CE1
3F700004F9
0000000000
0000000000
009FFFFB00
ENDCHAR
STARTCHAR uni1E5F
ENCODING 7775
SWIDTH 347 0
DWIDTH 7 0
BBX 8 13 -1 -3
BITMAP
005F18EC
005FA611
005F7000
005F4000
005F4000
005F4000
005F4000
005F4000
005F4000
005F4000
00000000
00000000
4FFFFF10
ENDCHAR
STARTCHAR uni1E60
ENCODING 7776
SWIDTH 534 0
DWIDTH 11 0
BBX 9 16 1 0
BITMAP
0005E70000
0005E70000
0000000000
018CFEB600
0CD3028E30
6F40000100
7F40000000
4FC2000000
08FF930000
004BFFC300
000029FF40
0000004FB0
0000000DD0
4200000EB0
DE7202AE30
17CEFE9200
ENDCHAR
STARTCHAR uni1E61
ENCODING 7777
SWIDTH 419 0
DWIDTH 8 0
BBX 8 14 0 0
BITMAP
0007E400
0007E400
00000000
00000000
018DED81
09E314A1
0DA00000
0BE50000
02CFC610
0004BFD2
000004F9
000000EA
2E7116F5
06CEEC50
ENDCHAR
STARTCHAR uni1E62
ENCODING 7778
SWIDTH 534 0
DWIDTH 11 0
BBX 9 17 1 -4
BITMAP
018CFEB600
0CD3028E30
6F40000100
7F40000000
4FC2000000
08FF930000
004BFFC300
000029FF40
0000004FB0
0000000DD0
4200000EB0
DE7202AE30
17CEFE9200
0000000000
0000000000
0006E50000
0006E50000
ENDCHAR
STARTCHAR uni1E63
ENCODING 7779
SWIDTH 419 0
DWIDTH 8 0
BBX 8 14 0 -4
BITMAP
018DED81
09E314A1
0DA00000
0BE50000
02CFC610
0004BFD2
000004F9
000000EA
2E7116F5
06CEEC50
00000000
00000000
0006E500
0006E500
ENDCHAR
STARTCHAR uni1E6C
ENCODING 7788
SWIDTH 536 0
DWIDTH 11 0
BBX 11 17 0 -4
BITMAP
7FFFFFFFFF20
00007F300000
00007F300000
00007F300000
00007F300000
00007F300000
00007F300000
00007F300000
00007F300000
00007F300000
00007F300000
00007F300000
00007F300000
000000000000
000000000000
00007E400000
00007E400000
ENDCHAR
STARTCHAR uni1E6D
ENCODING 7789
SWIDTH 338 0
DWIDTH 7 0
BBX 7 17 0 -4
BITMAP
00D90000
00E90000
00F90000
7FFFFF30
01F90000
01F90000
01F90000
01F90000
01F90000
01F90000
00FA0000
00BE2110
002BEE50
00000000
00000000
0008E300
0008E300
ENDCHAR
STARTCHAR uni1E6E
ENCODING 7790
SWIDTH 536 0
DWIDTH 11 0
BBX 11 16 0 -3
BITMAP
7FFFFFFFFF20
00007F300000
00007F300000
00007F300000
00007F300000
00007F300000
00007F300000
00007F300000
00007F300000
00007F300000
00007F300000
00007F300000
00007F300000
000000000000
000000000000
004FFFFF0000
ENDCHAR
STARTCHAR uni1E6F
ENCODING 7791
SWIDTH 338 0
DWIDTH 7 0
BBX 7 16 0 -3
BITMAP
00D90000
00E90000
00F90000
7FFFFF30
01F90000
01F90000
01F90000
01F90000
01F90000
01F90000
00FA0000
00BE2110
002BEE50
00000000
00000000
06FFFFE0
ENDCHAR
STARTCHAR Wgrave
ENCODING 7808
SWIDTH 786 0
DWIDTH 16 0
BBX 16 17 0 0
BITMAP
000006A100000000
000003DC20000000
0000000890000000
0000000000000000
7F40000EC00007F2
3F70004FF1000AE0
0FA0008CF5000DB0
0CD000C8D8001F80
09F101F59C004F40
06F404F16F106F10
02F708C02F509D00
00EA0C900D90CA00
00BC0F5009C0F700
008F3F1006F3F400
005F9D0002F9F100
001FE90000DEC000
000DF500009F9000
ENDCHAR
STARTCHAR wgrave
ENCODING 7809
SWIDTH 718 0
DWIDTH 14 0
BBX 14 15 0 0
BITMAP
00002B10000000
00004EC1000000
000003EA000000
0000002C100000
00000000000000
6F4000BF2000CB
2F8000EF6001F7
0DC003E9A004F3
09F107B6E008E0
05F40B72F30CB0
01F80F40D71F70
00BB4E00AB4F30
007E8B006E7E00
003FD7002FDA00
000EF3000DF600
ENDCHAR
STARTCHAR Wacute
ENCODING 7810
SWIDTH 786 0
DWIDTH 16 0
BBX 16 17 0 0
BITMAP
000000002C300000
00000005EA100000
0000001C50000000
0000000000000000
7F40000EC00007F2
3F70004FF1000AE0
0FA0008CF5000DB0
0CD000C8D8001F80
09F101F59C004F40
06F404F16F106F10
02F708C02F509D00
00EA0C900D90CA00
00BC0F5009C0F700
008F3F1006F3F400
005F9D0002F9F100
001FE90000DEC000
000DF500009F9000
ENDCHAR
STARTCHAR wacute
ENCODING 7811
SWIDTH 718 0
DWIDTH 14 0
BBX 14 15 0 0
BITMAP
00000000870000
00000006F90000
0000005F800000
00000097000000
00000000000000
6F4000BF2000CB
2F8000EF6001F7
0DC003E9A004F3
09F107B6E008E0
05F40B72F30CB0
01F80F40D71F70
00BB4E00AB4F30
007E8B006E7E00
003FD7002FDA00
000EF3000DF600
ENDCHAR
STARTCHAR Wdieresis
ENCODING 7812
SWIDTH 786 0
DWIDTH 16 0
BBX 16 16 0 0
BITMAP
00001D900DA00000
00001D800DA00000
0000000000000000
7F40000EC00007F2
3F70004FF1000AE0
0FA0008CF5000DB0
0CD000C8D8001F80
09F101F59C004F40
06F404F16F106F10
02F708C02F509D00
00EA0C900D90CA00
00BC0F5009C0F700
008F3F1006F3F400
005F9D0002F9F100
001FE90000DEC000
000DF500009F9000
ENDCHAR
STARTCHAR wdieresis
ENCODING 7813
SWIDTH 718 0
DWIDTH 14 0
BBX 14 14 0 0
BITMAP
00007E20AD1000
00008E20AD1000
00000000000000
00000000000000
6F4000BF2000CB
2F8000EF6001F7
0DC003E9A004F3
09F107B6E008E0
05F40B72F30CB0
01F80F40D71F70
00BB4E00AB4F30
007E8B006E7E00
003FD7002FDA00
000EF3000DF600
ENDCHAR
STARTCHAR uni1E8E
ENCODING 7822
SWIDTH 476 0
DWIDTH 10 0
BBX 10 16 0 0
BITMAP
0003EA0000
0003EA0000
0000000000
CE100006F4
4F70000DC0
0CD0005F50
04F600CC00
00CC04F500
005F4BC000
000CDF5000
0005FC0000
0001F90000
0001F90000
0001F90000
0001F90000
0001F90000
ENDCHAR
STARTCHAR uni1E8F
ENCODING 7823
SWIDTH 467 0
DWIDTH 9 0
BBX 9 18 0 -4
BITMAP
0001DA0000
0001DA0000
0000000000
0000000000
9F20000AE0
3F70000E90
0CD0005F30
06F3009D00
01E900E800
009E04F300
003F48D000
000C9D8000
0006FF2000
0001EC0000
0001F70000
0006F10000
014E700000
3FE7000000
ENDCHAR
STARTCHAR uni1E92
ENCODING 7826
SWIDTH 539 0
DWIDTH 11 0
BBX 10 17 0 -4
BITMAP
07FFFFFFFD
00000008F8
0000002FD1
000000BF40
000006FA00
00001EE100
0000AF6000
0004FC0000
001DF30000
008F800000
03FD100000
0CF4000000
1FFFFFFFFE
0000000000
0000000000
00004E7000
00004E7000
ENDCHAR
STARTCHAR uni1E93
ENCODING 7827
SWIDTH 425 0
DWIDTH 9 0
BBX 8 14 0 -4
BITMAP
0CFFFFFC
000009F7
00003FC0
0000DF30
0008F900
002FD100
00CF4000
06FA0000
2EE10000
6FFFFFFF
00000000
00000000
0004E600
0005E600
ENDCHAR
STARTCHAR uni1E94
ENCODING 7828
SWIDTH 539 0
DWIDTH 11 0
BBX 10 16 0 -3
BITMAP
07FFFFFFFD
00000008F8
0000002FD1
000000BF40
000006FA00
00001EE100
0000AF6000
0004FC0000
001DF30000
008F800000
03FD100000
0CF4000000
1FFFFFFFFE
0000000000
0000000000
000FFFFF40
ENDCHAR
STARTCHAR uni1E95
ENCODING 7829
SWIDTH 425 0
DWIDTH 9 0
BBX 8 13 0 -3
BITMAP
0CFFFFFC
000009F7
00003FC0
0000DF30
0008F900
002FD100
00CF4000
06FA0000
2EE10000
6FFFFFFF
00000000
00000000
01FFFFF3
ENDCHAR
STARTCHAR uni1E96
ENCODING 7830
SWIDTH 544 0
DWIDTH 11 0
BBX 9 17 1 -3
BITMAP
5F40000000
5F40000000
5F40000000
5F40000000
5F45DEC300
5FB812CE00
5F70005F40
5F40004F60
5F40003F60
5F40003F60
5F40003F60
5F40003F60
5F40003F60
5F40003F60
0000000000
0000000000
00EFFFF600
ENDCHAR
STARTCHAR uni1E97
ENCODING 7831
SWIDTH 338 0
DWIDTH 7 0
BBX 7 17 0 0
BITMAP
CB01D900
CB01D900
00000000
00000000
00D90000
00E90000
00F90000
7FFFFF30
01F90000
01F90000
01F90000
01F90000
01F90000
01F90000
00FA0000
00BE2110
002BEE50
ENDCHAR
STARTCHAR uni1E9E
ENCODING 7838
SWIDTH 667 0
DWIDTH 13 0
BBX 12 13 1 0
BITMAP
0018DFEB4000
02DD4118F600
0AE10000AE10
1FA00004FA00
2F80002EB000
3F8001DD1000
3F8002EFE910
3F800004AFC0
3F80000009F4
3F80000004F7
3F80000006F5
3F809B303DB0
3F803ADFE810
ENDCHAR
STARTCHAR uni1EA0
ENCODING 7840
SWIDTH 544 0
DWIDTH 11 0
BBX 11 17 0 -4
BITMAP
0000AF800000
0001ECD00000
0005F5F30000
000AC0E90000
001F70AE0000
006F305F4000
00BD001F9000
01F9000CE000
06FFFFFFF400
0BD00001F900
1F800000BE00
6F4000006F40
CE0000002FA0
000000000000
000000000000
00006E400000
00006E400000
ENDCHAR
STARTCHAR uni1EA1
ENCODING 7841
SWIDTH 504 0
DWIDTH 10 0
BBX 8 14 1 -4
BITMAP
27CEFC40
3C511CE1
000003F7
000001F9
0059CEFA
2DE841FA
CE1000FA
EA0001FA
AE304CEA
1AEE91BA
00000000
00000000
001DB000
001DB000
ENDCHAR
STARTCHAR uni1EA2
ENCODING 7842
SWIDTH 544 0
DWIDTH 11 0
BBX 11 18 0 0
BITMAP
0000CC400000
000018E00000
000019D00000
00004C300000
000000000000
0000AF800000
0001ECD00000
0005F5F30000
000AC0E90000
001F70AE0000
006F305F4000
00BD001F9000
01F9000CE000
06FFFFFFF400
0BD00001F900
1F800000BE00
6F4000006F40
CE0000002FA0
ENDCHAR
STARTCHAR uni1EA3
ENCODING 7843
SWIDTH 504 0
DWIDTH 10 0
BBX 8 15 1 0
BITMAP
001EB200
0002BB00
0001BA00
0007B200
00000000
27CEFC40
3C511CE1
000003F7
000001F9
0059CEFA
2DE841FA
CE1000FA
EA0001FA
AE304CEA
1AEE91BA
ENDCHAR
STARTCHAR uni1EA4
ENCODING 7844
SWIDTH 544 0
DWIDTH 11 0
BBX 11 18 0 0
BITMAP
000000004800
00000003E500
0002CFA85000
000B728A0000
000000000000
0000AF800000
0001ECD00000
0005F5F30000
000AC0E90000
001F70AE0000
006F305F4000
00BD001F9000
01F9000CE000
06FFFFFFF400
0BD00001F900
1F800000BE00
6F4000006F40
CE0000002FA0
ENDCHAR
STARTCHAR uni1EA5
ENCODING 7845
SWIDTH 504 0
DWIDTH 10 0
BBX 9 16 1 0
BITMAP
0000000680
0000002E40
002DF68500
02D83D6000
0250016000
0000000000
27CEFC4000
3C511CE100
000003F700
000001F900
0059CEFA00
2DE841FA00
CE1000FA00
EA0001FA00
AE304CEA00
1AEE91BA00
ENDCHAR
STARTCHAR uni1EA6
ENCODING 7846
SWIDTH 544 0
DWIDTH 11 0
BBX 11 18 0 0
BITMAP
074000000000
04E200000000
0067CFA10000
000B728A0000
000000000000
0000AF800000
0001ECD00000
0005F5F30000
000AC0E90000
001F70AE0000
006F305F4000
00BD001F9000
01F9000CE000
06FFFFFFF400
0BD00001F900
1F800000BE00
6F4000006F40
CE0000002FA0
ENDCHAR
STARTCHAR uni1EA7
ENCODING 7847
SWIDTH 504 0
DWIDTH 10 0
BBX 9 16 0 0
BITMAP
5A00000000
1D80000000
02B2DF6000
002D83D600
0025001600
0000000000
027CEFC400
03C511CE10
0000003F70
0000001F90
00059CEFA0
02DE841FA0
0CE1000FA0
0EA0001FA0
0AE304CEA0
01AEE91BA0
ENDCHAR
STARTCHAR uni1EA8
ENCODING 7848
SWIDTH 544 0
DWIDTH 11 0
BBX 11 19 0 0
BITMAP
0000000DA100
00000001C700
00000001C700
0002CFA6A100
000B728A0000
000000000000
0000AF800000
0001ECD00000
0005F5F30000
000AC0E90000
001F70AE0000
006F305F4000
00BD001F9000
01F9000CE000
06FFFFFFF400
0BD00001F900
1F800000BE00
6F4000006F40
CE0000002FA0
ENDCHAR
STARTCHAR uni1EA9
ENCODING 7849
SWIDTH 504 0
DWIDTH 10 0
BBX 9 17 1 0
BITMAP
000001E900
0000002E50
0000002E40
002DF68800
02D83D6000
0250016000
0000000000
27CEFC4000
3C511CE100
000003F700
000001F900
0059CEFA00
2DE841FA00
CE1000FA00
EA0001FA00
AE304CEA00
1AEE91BA00
ENDCHAR
STARTCHAR uni1EAA
ENCODING 7850
SWIDTH 544 0
DWIDTH 11 0
BBX 11 19 0 0
BITMAP
001CE81A3000
005929EB0000
000000000000
0002CFA10000
000B728A0000
000000000000
0000AF800000
0001ECD00000
0005F5F30000
000AC0E90000
001F70AE0000
006F305F4000
00BD001F9000
01F9000CE000
06FFFFFFF400
0BD00001F900
1F800000BE00
6F4000006F40
CE0000002FA0
ENDCHAR
STARTCHAR uni1EAB
ENCODING 7851
SWIDTH 504 0
DWIDTH 10 0
BBX 8 17 1 0
BITMAP
01AB52A0
0695BE70
00000000
002DF600
02D83D60
02500160
00000000
27CEFC40
3C511CE1
000003F7
000001F9
0059CEFA
2DE841FA
CE1000FA
EA0001FA
AE304CEA
1AEE91BA
ENDCHAR
STARTCHAR uni1EAC
ENCODING 7852
SWIDTH 544 0
DWIDTH 11 0
BBX 11 21 0 -4
BITMAP
0001CFA00000
000BB3D90000
004A101B2000
000000000000
0000AF800000
0001ECD00000
0005F5F30000
000AC0E90000
001F70AE0000
006F305F4000
00BD001F9000
01F9000CE000
06FFFFFFF400
0BD00001F900
1F800000BE00
6F4000006F40
CE0000002FA0
000000000000
000000000000
00006E400000
00006E400000
ENDCHAR
STARTCHAR uni1EAD
ENCODING 7853
SWIDTH 504 0
DWIDTH 10 0
BBX 8 18 1 -4
BITMAP
002EF800
02D94E70
087002C1
00000000
27CEFC40
3C511CE1
000003F7
000001F9
0059CEFA
2DE841FA
CE1000FA
EA0001FA
AE304CEA
1AEE91BA
00000000
00000000
001DB000
001DB000
ENDCHAR
STARTCHAR uni1EAE
ENCODING 7854
SWIDTH 544 0
DWIDTH 11 0
BBX 11 19 0 0
BITMAP
000000B40000
000009C10000
00582C1B3000
002E416D0000
0004CEC30000
000000000000
0000AF800000
0001ECD00000
0005F5F30000
000AC0E90000
001F70AE0000
006F305F4000
00BD001F9000
01F9000CE000
06FFFFFFF400
0BD00001F900
1F800000BE00
6F4000006F40
CE0000002FA0
ENDCHAR
STARTCHAR uni1EAF
ENCODING 7855
SWIDTH 504 0
DWIDTH 10 0
BBX 8 16 1 0
BITMAP
00004A00
0101D810
0C4590C4
06D318D0
007DEB20
00000000
27CEFC40
3C511CE1
000003F7
000001F9
0059CEFA
2DE841FA
CE1000FA
EA0001FA
AE304CEA
1AEE91BA
ENDCHAR
STARTCHAR uni1EB0
ENCODING 7856
SWIDTH 544 0
DWIDTH 11 0
BBX 11 19 0 0
BITMAP
0006A0000000
0002E7000000
00583C0B3000
002E416D0000
0004CEC30000
000000000000
0000AF800000
0001ECD00000
0005F5F30000
000AC0E90000
001F70AE0000
006F305F4000
00BD001F9000
01F9000CE000
06FFFFFFF400
0BD00001F900
1F800000BE00
6F4000006F40
CE0000002FA0
ENDCHAR
STARTCHAR uni1EB1
ENCODING 7857
SWIDTH 504 0
DWIDTH 10 0
BBX 8 16 1 0
BITMAP
005A0000
012E7010
0C43B0C4
06D318D0
007DEB20
00000000
27CEFC40
3C511CE1
000003F7
000001F9
0059CEFA
2DE841FA
CE1000FA
EA0001FA
AE304CEA
1AEE91BA
ENDCHAR
STARTCHAR uni1EB2
ENCODING 7858
SWIDTH 544 0
DWIDTH 11 0
BBX 11 20 0 0
BITMAP
0000AC300000
000019B00000
000009B00000
00582C2B3000
002E416D0000
0004CEC30000
000000000000
0000AF800000
0001ECD00000
0005F5F30000
000AC0E90000
001F70AE0000
006F305F4000
00BD001F9000
01F9000CE000
06FFFFFFF400
0BD00001F900
1F800000BE00
6F4000006F40
CE0000002FA0
ENDCHAR
STARTCHAR uni1EB3
ENCODING 7859
SWIDTH 504 0
DWIDTH 10 0
BBX 8 17 1 0
BITMAP
000EA100
0001B900
0101B910
0C46B1C4
06D318D0
007DEB20
00000000
27CEFC40
3C511CE1
000003F7
000001F9
0059CEFA
2DE841FA
CE1000FA
EA0001FA
AE304CEA
1AEE91BA
ENDCHAR
STARTCHAR uni1EB4
ENCODING 7860
SWIDTH 544 0
DWIDTH 11 0
BBX 11 19 0 0
BITMAP
001DE81A3000
005929EB0000
000000000000
004C203D2000
0007DFD50000
000000000000
0000AF800000
0001ECD00000
0005F5F30000
000AC0E90000
001F70AE0000
006F305F4000
00BD001F9000
01F9000CE000
06FFFFFFF400
0BD00001F900
1F800000BE00
6F4000006F40
CE0000002FA0
ENDCHAR
STARTCHAR uni1EB5
ENCODING 7861
SWIDTH 504 0
DWIDTH 10 0
BBX 8 16 1 0
BITMAP
01BB52B0
0795BE80
00100010
07B205E0
009EEC30
00000000
27CEFC40
3C511CE1
000003F7
000001F9
0059CEFA
2DE841FA
CE1000FA
EA0001FA
AE304CEA
1AEE91BA
ENDCHAR
STARTCHAR uni1EB6
ENCODING 7862
SWIDTH 544 0
DWIDTH 11 0
BBX 11 21 0 -4
BITMAP
0059000B3000
002E516D0000
0004CEC30000
000000000000
0000AF800000
0001ECD00000
0005F5F30000
000AC0E90000
001F70AE0000
006F305F4000
00BD001F9000
01F9000CE000
06FFFFFFF400
0BD00001F900
1F800000BE00
6F4000006F40
CE0000002FA0
000000000000
000000000000
00006E400000
00006E400000
ENDCHAR
STARTCHAR uni1EB7
ENCODING 7863
SWIDTH 504 0
DWIDTH 10 0
BBX 8 18 1 -4
BITMAP
0B4000C3
07D318D1
008DEB20
00000000
27CEFC40
3C511CE1
000003F7
000001F9
0059CEFA
2DE841FA
CE1000FA
EA0001FA
AE304CEA
1AEE91BA
00000000
00000000
001DB000
001DB000
ENDCHAR
STARTCHAR uni1EB8
ENCODING 7864
SWIDTH 527 0
DWIDTH 11 0
BBX 9 17 1 -4
BITMAP
3FFFFFFF50
3F70000000
3F70000000
3F70000000
3F70000000
3F70000000
3FFFFFF700
3F70000000
3F70000000
3F70000000
3F70000000
3F70000000
3FFFFFFF80
0000000000
0000000000
0001DB0000
0001DB0000
ENDCHAR
STARTCHAR uni1EB9
ENCODING 7865
SWIDTH 496 0
DWIDTH 10 0
BBX 10 14 0 -4
BITMAP
0018DFC600
01CC315F50
08E10008D0
0DA00005F2
1FFFFFFFF2
1FA0000000
0DC0000000
08F4000000
01CE502650
0018DFDB40
0000000000
0000000000
00009E2000
00009E3000
ENDCHAR
STARTCHAR uni1EBA
ENCODING 7866
SWIDTH 527 0
DWIDTH 11 0
BBX 9 18 1 0
BITMAP
0009D70000
00005F3000
00005F2000
0001D50000
0000000000
3FFFFFFF50
3F70000000
3F70000000
3F70000000
3F70000000
3F70000000
3FFFFFF700
3F70000000
3F70000000
3F70000000
3F70000000
3F70000000
3FFFFFFF80
ENDCHAR
STARTCHAR uni1EBB
ENCODING 7867
SWIDTH 496 0
DWIDTH 10 0
BBX 10 15 0 0
BITMAP
0000EB3000
00001AC000
00001AB000
00006B2000
0000000000
0018DFC600
01CC315F50
08E10008D0
0DA00005F2
1FFFFFFFF2
1FA0000000
0DC0000000
08F4000000
01CE502650
0018DFDB40
ENDCHAR
STARTCHAR uni1EBC
ENCODING 7868
SWIDTH 527 0
DWIDTH 11 0
BBX 9 17 1 0
BITMAP
0012000100
05EDC32F20
0A606DE700
0000000000
3FFFFFFF50
3F70000000
3F70000000
3F70000000
3F70000000
3F70000000
3FFFFFF700
3F70000000
3F70000000
3F70000000
3F70000000
3F70000000
3FFFFFFF80
ENDCHAR
STARTCHAR uni1EBD
ENCODING 7869
SWIDTH 496 0
DWIDTH 10 0
BBX 10 14 0 0
BITMAP
0016500240
00CBCA1A90
01D108EC20
0000000000
0018DFC600
01CC315F50
08E10008D0
0DA00005F2
1FFFFFFFF2
1FA0000000
0DC0000000
08F4000000
01CE502650
0018DFDB40
ENDCHAR
STARTCHAR uni1EBE
ENCODING 7870
SWIDTH 527 0
DWIDTH 11 0
BBX 9 18 1 0
BITMAP
00000001A0
0000001C90
0009FD6900
008926C100
0000000000
3FFFFFFF50
3F70000000
3F70000000
3F70000000
3F70000000
3F70000000
3FFFFFF700
3F70000000
3F70000000
3F70000000
3F70000000
3F70000000
3FFFFFFF80
ENDCHAR
STARTCHAR uni1EBF
ENCODING 7871
SWIDTH 496 0
DWIDTH 10 0
BBX 10 16 0 0
BITMAP
0000000059
00000002E5
0001CF7760
001C93D700
0016001600
0000000000
0018DFC600
01CC315F50
08E10008D0
0DA00005F2
1FFFFFFFF2
1FA0000000
0DC0000000
08F4000000
01CE502650
0018DFDB40
ENDCHAR
STARTCHAR uni1EC0
ENCODING 7872
SWIDTH 527 0
DWIDTH 11 0
BBX 9 18 1 0
BITMAP
3800000000
2D40000000
0399FD2000
008926C100
0000000000
3FFFFFFF50
3F70000000
3F70000000
3F70000000
3F70000000
3F70000000
3FFFFFF700
3F70000000
3F70000000
3F70000000
3F70000000
3F70000000
3FFFFFFF80
ENDCHAR
STARTCHAR uni1EC1
ENCODING 7873
SWIDTH 496 0
DWIDTH 10 0
BBX 10 16 0 0
BITMAP
4A00000000
1C90000000
01B3CF7000
001C93D700
0016001600
0000000000
0018DFC600
01CC315F50
08E10008D0
0DA00005F2
1FFFFFFFF2
1FA0000000
0DC0000000
08F4000000
01CE502650
0018DFDB40
ENDCHAR
STARTCHAR uni1EC2
ENCODING 7874
SWIDTH 527 0
DWIDTH 11 0
BBX 9 19 1 0
BITMAP
000000AC30
00000019B0
00000008B0
0009FD4C30
008926C100
0000000000
3FFFFFFF50
3F70000000
3F70000000
3F70000000
3F70000000
3F70000000
3FFFFFF700
3F70000000
3F70000000
3F70000000
3F70000000
3F70000000
3FFFFFFF80
ENDCHAR
STARTCHAR uni1EC3
ENCODING 7875
SWIDTH 496 0
DWIDTH 10 0
BBX 10 17 0 0
BITMAP
0000001EA1
00000002D6
00000001D5
0001CF7790
001C93D700
0016001600
0000000000
0018DFC600
01CC315F50
08E10008D0
0DA00005F2
1FFFFFFFF2
1FA0000000
0DC0000000
08F4000000
01CE502650
0018DFDB40
ENDCHAR
STARTCHAR uni1EC4
ENCODING 7876
SWIDTH 527 0
DWIDTH 11 0
BBX 9 19 1 0
BITMAP
00AEA27700
02B27ED200
0000000000
0009FD2000
008926C100
0000000000
3FFFFFFF50
3F70000000
3F70000000
3F70000000
3F70000000
3F70000000
3FFFFFF700
3F70000000
3F70000000
3F70000000
3F70000000
3F70000000
3FFFFFFF80
ENDCHAR
STARTCHAR uni1EC5
ENCODING 7877
SWIDTH 496 0
DWIDTH 10 0
BBX 10 17 0 0
BITMAP
001AB51A00
005A5BE800
0000000000
0001CF7000
001C93D700
0016001600
0000000000
0018DFC600
01CC315F50
08E10008D0
0DA00005F2
1FFFFFFFF2
1FA0000000
0DC0000000
08F4000000
01CE502650
0018DFDB40
ENDCHAR
STARTCHAR uni1EC6
ENCODING 7878
SWIDTH 527 0
DWIDTH 11 0
BBX 9 21 1 -4
BITMAP
0009FD1000
007E3AC100
01C2009500
0000000000
3FFFFFFF50
3F70000000
3F70000000
3F70000000
3F70000000
3F70000000
3FFFFFF700
3F70000000
3F70000000
3F70000000
3F70000000
3F70000000
3FFFFFFF80
0000000000
0000000000
0001DB0000
0001DB0000
ENDCHAR
STARTCHAR uni1EC7
ENCODING 7879
SWIDTH 496 0
DWIDTH 10 0
BBX 10 18 0 -4
BITMAP
0002DF9000
001DA4D800
0087002B20
0000000000
0018DFC600
01CC315F50
08E10008D0
0DA00005F2
1FFFFFFFF2
1FA0000000
0DC0000000
08F4000000
01CE502650
0018DFDB40
0000000000
0000000000
00009E2000
00009E2000
ENDCHAR
STARTCHAR uni1EC8
ENCODING 7880
SWIDTH 263 0
DWIDTH 5 0
BBX 4 18 1 0
BITMAP
9D60
06F2
06F1
1D50
0000
3F70
3F70
3F70
3F70
3F70
3F70
3F70
3F70
3F70
3F70
3F70
3F70
3F70
ENDCHAR
STARTCHAR uni1EC9
ENCODING 7881
SWIDTH 246 0
DWIDTH 5 0
BBX 3 15 1 0
BITMAP
CC40
18E0
08E0
4C30
0000
5F40
5F40
5F40
5F40
5F40
5F40
5F40
5F40
5F40
5F40
ENDCHAR
STARTCHAR uni1ECA
ENCODING 7882
SWIDTH 263 0
DWIDTH 5 0
BBX 3 17 1 -4
BITMAP
3F70
3F70
3F70
3F70
3F70
3F70
3F70
3F70
3F70
3F70
3F70
3F70
3F70
0000
0000
4E70
4E70
ENDCHAR
STARTCHAR uni1ECB
ENCODING 7883
SWIDTH 246 0
DWIDTH 5 0
BBX 3 19 1 -4
BITMAP
0100
7F70
6E60
0000
0000
5F40
5F40
5F40
5F40
5F40
5F40
5F40
5F40
5F40
5F40
0000
0000
5E50
6E50
ENDCHAR
STARTCHAR uni1ECC
ENCODING 7884
SWIDTH 664 0
DWIDTH 13 0
BBX 12 17 1 -4
BITMAP
0029DFEA3000
03EC3029F600
1DC100009F30
6F4000001EB0
BE0000000BF1
DC00000008F3
EC00000008F4
DC00000008F3
BF0000000BF0
6F5000001FA0
1DD100009F30
03EC3029F600
0019DFEA3000
000000000000
000000000000
00004E700000
00004E700000
ENDCHAR
STARTCHAR uni1ECD
ENCODING 7885
SWIDTH 542 0
DWIDTH 11 0
BBX 10 14 0 -4
BITMAP
0018DFD700
01CD305EA0
08F30006F5
0DC00000FB
1FA00000DD
1FA00000DD
0DC00000EB
08F30006F5
01CD305EA0
0018DFD700
0000000000
0000000000
00006E4000
00006E5000
ENDCHAR
ENDFONT
